<?xml version="1.0" standalone="no"?>
<!DOCTYPE svg PUBLIC "-//W3C//DTD SVG 20010904//EN"
 "http://www.w3.org/TR/2001/REC-SVG-20010904/DTD/svg10.dtd">
<svg version="1.0" xmlns="http://www.w3.org/2000/svg"
 width="2048.000000pt" height="2048.000000pt" viewBox="0 0 2048.000000 2048.000000"
 preserveAspectRatio="xMidYMid meet">

<g transform="translate(0.000000,2048.000000) scale(0.100000,-0.100000)"
fill="#000000" stroke="none">
<path d="M18318 15023 c6 -2 18 -2 25 0 6 3 1 5 -13 5 -14 0 -19 -2 -12 -5z"/>
<path d="M10757 14008 c-3 -9 0 -18 6 -21 19 -7 37 3 37 20 0 12 -3 13 -14 4
-11 -9 -15 -9 -18 1 -3 8 -6 7 -11 -4z"/>
<path d="M11490 14012 c0 -5 -16 -13 -35 -16 -37 -7 -42 -20 -26 -76 6 -20 15
-26 51 -31 25 -4 104 -18 175 -33 185 -37 183 -37 189 -23 3 8 9 6 20 -6 8
-10 29 -23 48 -27 143 -37 153 -38 160 -27 5 8 8 7 8 -4 0 -10 19 -21 53 -32
64 -20 90 -22 67 -6 -12 8 -10 9 10 5 14 -3 28 -6 33 -6 4 0 7 -6 7 -14 0 -8
10 -18 23 -21 12 -4 42 -16 67 -27 57 -26 222 -88 234 -88 6 0 1 7 -10 15 -31
24 -7 17 72 -20 42 -19 73 -38 70 -43 -6 -10 34 -34 129 -79 46 -22 61 -27 45
-13 -34 27 -18 25 47 -5 37 -18 53 -31 53 -45 0 -14 7 -18 31 -18 16 1 38 -6
47 -15 9 -10 11 -17 5 -17 -7 0 -15 5 -18 10 -3 6 -13 10 -22 10 -8 0 8 -16
36 -35 28 -19 53 -35 55 -35 3 0 43 -25 90 -55 46 -30 89 -55 95 -55 6 0 11
-4 11 -10 0 -5 5 -10 11 -10 5 0 7 5 4 10 -9 15 0 12 41 -12 21 -12 32 -24 24
-26 -7 -3 -16 2 -21 9 -6 9 -9 10 -9 2 0 -6 35 -37 77 -68 57 -41 79 -52 85
-43 5 9 8 6 8 -9 0 -15 10 -28 29 -38 17 -8 36 -23 43 -33 31 -41 113 -95 92
-59 -5 8 -3 8 9 -2 9 -7 15 -17 12 -21 -7 -12 144 -151 173 -159 15 -4 32 -17
38 -29 6 -12 14 -19 19 -14 5 4 5 1 0 -7 -10 -17 136 -166 146 -149 5 7 17 1
36 -18 54 -57 92 -109 93 -125 0 -18 39 -71 40 -54 0 6 8 -4 18 -21 34 -61 93
-133 106 -128 7 3 19 -3 27 -12 12 -16 12 -17 -5 -11 -18 7 -18 6 -1 -20 25
-40 56 -72 66 -70 5 1 19 -14 30 -33 l22 -35 -27 30 c-19 21 -16 14 11 -27 20
-32 39 -55 41 -53 3 2 -1 13 -9 22 -10 14 -8 13 10 -2 13 -11 30 -33 39 -50
14 -29 14 -29 -3 -15 -17 14 -17 14 -6 -8 30 -57 74 -112 83 -106 7 4 8 2 4
-4 -8 -13 17 -67 35 -78 8 -5 10 -2 5 7 -4 8 2 3 13 -10 12 -13 21 -28 21 -34
0 -6 -7 -2 -16 9 -14 18 -15 18 -4 -4 6 -12 15 -20 20 -17 4 3 18 -12 29 -33
20 -35 20 -36 1 -13 -11 13 -20 19 -20 15 1 -15 49 -89 57 -87 5 1 10 -1 13
-4 3 -4 -1 -3 -7 1 -8 4 -13 2 -13 -6 0 -7 -20 8 -45 35 -24 26 -49 47 -55 47
-5 0 -10 7 -10 15 0 8 -4 15 -10 15 -5 0 -10 7 -10 15 0 8 -7 15 -15 15 -8 0
-15 5 -15 12 0 6 -3 8 -7 5 -4 -4 3 -20 15 -36 l21 -29 -26 -5 c-38 -7 -51 1
-45 29 4 21 1 24 -27 24 -18 0 -30 -4 -27 -9 4 -5 -2 -7 -12 -4 -10 2 -24 -3
-31 -11 -11 -14 -11 -16 5 -17 11 -1 25 -1 32 0 6 1 20 -2 30 -8 19 -11 21 -9
-34 -26 -39 -12 5 -23 89 -21 50 2 84 1 75 -1 -30 -7 -20 -31 19 -44 39 -13
112 -73 101 -84 -3 -4 -14 3 -24 13 -24 25 -89 54 -134 59 -19 3 -43 9 -53 15
-10 5 -21 7 -24 4 -7 -6 59 -34 117 -48 25 -6 47 -14 50 -17 5 -6 37 -25 76
-46 12 -6 29 -18 38 -28 10 -9 22 -14 28 -11 6 4 8 2 5 -4 -9 -13 2 -44 14
-37 4 3 13 -3 18 -14 14 -25 14 -34 1 -26 -14 9 -12 -7 4 -27 7 -10 16 -15 20
-11 4 4 4 -1 0 -11 -6 -15 -4 -17 6 -11 9 6 11 4 5 -4 -11 -18 26 -96 37 -79
6 9 7 6 3 -8 -5 -19 8 -60 36 -116 11 -21 12 -48 2 -48 -3 0 -14 7 -24 16 -14
12 -16 21 -8 41 11 31 6 40 -34 57 -18 8 -26 15 -18 15 11 1 11 4 1 16 -7 8
-18 15 -24 15 -6 0 -22 9 -36 20 -31 24 -41 25 -33 3 4 -11 3 -14 -5 -9 -7 4
-12 14 -12 22 0 8 -4 13 -10 9 -5 -3 -7 -12 -3 -20 10 -28 -33 -16 -61 17 -26
32 -35 55 -16 43 6 -3 10 -1 10 4 0 6 -6 11 -13 11 -8 0 -19 18 -26 39 -6 21
-18 42 -27 45 -8 3 -12 10 -9 16 3 5 -3 10 -14 10 -11 0 -26 6 -34 14 -17 17
-37 3 -37 -25 0 -13 -7 -17 -27 -14 -16 2 -33 4 -39 4 -7 1 -15 16 -18 34 -4
23 -14 36 -37 46 -34 15 -42 12 -33 -13 4 -11 14 -16 25 -13 11 3 16 0 13 -8
-3 -7 0 -16 5 -20 6 -3 18 -22 26 -41 8 -19 21 -34 29 -34 15 0 21 -12 17 -33
-1 -5 3 -6 8 -2 15 9 52 -32 45 -50 -4 -10 2 -18 17 -24 13 -5 27 -7 30 -5 3
2 21 -10 40 -27 22 -20 30 -32 22 -35 -14 -6 -18 -25 -5 -22 15 3 40 -15 103
-72 35 -33 71 -59 79 -58 21 3 60 -20 60 -36 0 -8 20 -27 45 -43 25 -15 48
-36 51 -45 8 -27 25 -21 18 6 -6 27 14 46 27 25 5 -8 23 -56 40 -107 17 -51
37 -98 44 -106 8 -7 11 -23 8 -35 -3 -13 0 -23 10 -27 8 -3 13 -13 10 -22 -2
-9 5 -45 16 -79 11 -33 17 -71 14 -83 l-6 -22 -13 23 c-10 18 -13 20 -14 7 0
-20 48 -94 60 -91 4 1 13 -18 19 -42 14 -57 13 -66 -4 -35 -8 14 -14 19 -15
11 0 -20 -70 54 -70 74 0 12 -6 15 -20 10 -21 -7 -28 9 -10 20 6 4 -4 21 -25
39 -20 18 -35 39 -33 47 2 8 -4 13 -13 11 -11 -1 -21 8 -27 27 -9 26 -8 29 6
24 14 -5 14 -2 -3 17 -38 45 -83 90 -90 90 -3 0 -14 7 -23 16 -10 10 -18 12
-20 6 -3 -11 -28 -6 -50 11 -9 8 -10 12 -2 17 9 5 8 13 -1 28 -13 21 -56 38
-67 27 -3 -3 2 -5 11 -5 10 0 17 -4 17 -10 0 -15 -33 -12 -56 4 -16 13 -21 12
-36 -1 -12 -10 -22 -12 -34 -5 -15 8 -13 11 14 17 26 5 32 12 32 31 0 14 -4
22 -10 19 -5 -3 -10 1 -10 9 0 39 -64 -1 -75 -47 -5 -18 -3 -27 4 -27 10 0 29
-17 72 -68 8 -10 8 -17 1 -24 -8 -8 -13 -4 -17 13 -6 24 -55 69 -55 51 0 -6 7
-13 16 -16 9 -3 14 -12 11 -20 -5 -13 25 -46 43 -46 6 0 10 -4 10 -8 0 -10 30
-9 48 2 13 8 15 2 13 -26 -2 -16 10 -23 33 -19 4 1 14 -3 21 -9 8 -7 15 -7 19
-1 3 5 1 11 -4 13 -6 2 -12 10 -13 19 -4 24 -30 46 -48 42 -11 -3 -18 3 -22
18 -4 13 -5 25 -3 26 8 8 56 -18 56 -31 0 -8 14 -19 30 -25 17 -5 30 -17 30
-25 0 -9 6 -16 14 -16 24 0 28 -17 12 -47 -12 -25 -12 -31 0 -48 8 -11 18 -19
22 -17 3 2 9 -2 12 -10 7 -18 33 -16 48 5 17 22 23 21 45 -9 12 -15 14 -23 6
-22 -7 2 -15 -5 -17 -14 -2 -13 3 -18 17 -18 11 0 23 -5 27 -12 5 -8 2 -9 -10
-5 -20 8 -18 4 28 -65 17 -27 37 -48 45 -48 8 0 2 9 -13 21 -31 25 -33 39 -5
39 13 0 18 -4 13 -12 -4 -6 0 -16 9 -23 9 -6 17 -18 19 -25 2 -8 11 -21 20
-30 16 -14 78 -129 78 -145 0 -4 -7 -5 -15 -1 -9 3 -15 0 -15 -10 0 -9 6 -14
13 -11 8 3 20 1 28 -4 10 -6 10 -9 2 -9 -7 0 -13 -7 -13 -15 0 -8 -6 -15 -13
-15 -16 0 -50 72 -37 80 5 3 0 17 -10 30 -11 14 -20 20 -20 13 0 -6 5 -15 10
-18 6 -3 10 -11 10 -17 0 -6 -16 5 -36 25 -26 25 -42 34 -59 31 -13 -2 -27 1
-30 6 -5 8 -12 7 -22 -2 -12 -10 -18 -9 -29 7 -12 17 -12 20 2 28 10 6 19 5
23 -1 4 -6 12 -7 20 -3 10 7 9 13 -5 30 -10 11 -24 21 -30 21 -7 0 -15 7 -18
16 -4 9 -13 14 -21 10 -11 -4 -15 1 -15 18 0 37 -38 62 -88 57 -20 -2 25 -60
54 -71 26 -10 48 -45 38 -61 -6 -11 -11 -8 -75 54 -33 32 -70 57 -82 57 -14 0
8 -40 24 -45 19 -6 26 -30 11 -39 -16 -9 -70 26 -76 50 -10 38 -36 30 -36 -10
0 -19 5 -38 10 -41 7 -4 9 2 4 19 -3 14 -4 26 -1 26 10 0 77 -73 77 -84 0 -7
5 -17 12 -24 9 -9 9 -12 0 -12 -6 0 -9 -7 -6 -15 4 -10 -2 -18 -17 -23 l-23
-9 21 -12 c29 -15 36 -14 29 4 -3 8 -1 15 3 15 5 0 7 9 4 20 -3 11 0 20 5 20
13 0 36 -39 28 -47 -3 -3 -1 -14 5 -24 8 -15 6 -19 -6 -19 -23 0 -14 -23 13
-35 12 -5 22 -17 22 -26 0 -31 28 -30 32 1 2 16 1 27 -3 24 -10 -6 -15 3 -23
41 l-6 30 17 -27 c10 -16 23 -28 30 -28 7 0 13 -7 13 -16 0 -9 9 -18 20 -21
22 -6 28 -25 8 -22 -32 4 -38 -2 -34 -33 2 -17 11 -37 20 -43 9 -7 16 -17 16
-23 0 -13 13 -22 42 -27 21 -4 29 -12 30 -32 0 -5 9 -14 20 -21 18 -13 16 -32
-3 -32 -6 0 -8 4 -5 9 3 5 -1 11 -9 14 -10 4 -12 1 -8 -10 5 -13 2 -15 -11
-10 -10 4 -20 7 -22 7 -2 0 -4 6 -4 14 0 8 -8 15 -17 15 -10 0 -43 2 -73 5
-120 12 -135 13 -146 9 -13 -5 -14 -82 -2 -84 5 -1 14 -2 21 -3 6 -1 19 -9 27
-18 8 -9 39 -24 68 -32 42 -12 58 -13 80 -3 15 6 29 14 32 18 9 11 100 -21
100 -35 0 -8 16 -23 36 -35 19 -12 32 -17 29 -11 -3 5 0 10 7 10 7 1 -2 7 -21
16 -28 12 -32 17 -21 27 10 9 13 9 17 0 3 -7 13 -13 23 -13 9 0 23 -7 30 -15
7 -8 16 -12 21 -9 5 3 9 -4 9 -16 0 -11 6 -23 14 -26 8 -3 12 -12 9 -20 -3 -9
0 -14 8 -12 10 2 15 -10 17 -40 2 -25 9 -45 17 -48 8 -3 11 -12 9 -19 -3 -7 4
-19 16 -25 18 -10 24 -8 35 7 13 16 13 14 5 -14 -5 -18 -5 -35 -1 -38 5 -2 11
-44 15 -92 13 -159 14 -153 -9 -153 -25 0 -59 19 -35 20 9 1 5 6 -10 15 -15 8
-29 10 -34 4 -14 -13 -22 -11 -39 6 -9 8 -13 24 -10 36 4 16 8 17 14 7 6 -9 9
-7 9 10 0 13 6 22 16 22 11 0 14 6 9 21 -5 15 -4 19 4 15 6 -4 11 -16 11 -26
0 -10 6 -21 13 -23 10 -4 10 -6 0 -6 -16 -1 -17 -31 -2 -31 7 0 18 -8 26 -17
13 -16 13 -16 7 7 -10 39 -47 110 -56 110 -5 0 -6 5 -2 12 5 8 2 9 -9 5 -10
-4 -22 1 -31 14 -8 12 -22 19 -33 17 -15 -4 -14 -7 10 -18 18 -9 27 -21 27
-37 0 -15 4 -22 11 -17 7 4 10 1 7 -6 -2 -8 -8 -15 -14 -16 -9 -3 -64 69 -64
85 0 5 -3 11 -8 13 -15 6 -52 61 -46 69 8 13 32 11 37 -3 2 -7 2 1 -1 17 -2
17 -16 43 -31 58 -25 28 -74 59 -87 56 -4 0 -11 6 -16 15 -5 9 -13 14 -19 11
-5 -4 -12 1 -15 9 -6 15 -34 23 -34 11 0 -10 63 -70 100 -96 42 -29 73 -59 67
-65 -6 -7 -57 14 -57 24 0 4 -15 16 -32 26 l-33 17 23 -19 c12 -11 22 -30 22
-43 l0 -22 -18 21 c-23 26 -50 13 -47 -23 2 -14 -1 -27 -6 -31 -5 -3 -10 2
-10 10 -1 9 -3 21 -4 26 -1 6 -3 17 -4 25 0 8 -5 15 -10 15 -6 0 -8 -12 -7
-27 2 -16 5 -28 6 -28 1 0 7 -34 14 -75 7 -46 16 -75 24 -76 23 -3 24 -4 13
-18 -9 -10 -9 -16 -1 -21 6 -4 9 -19 5 -34 -4 -19 -1 -32 9 -41 9 -7 13 -17
10 -22 -3 -5 3 -12 15 -15 13 -3 21 -13 21 -26 0 -15 3 -18 11 -10 13 13 -5
85 -26 103 -8 7 -13 15 -10 19 2 4 -2 29 -10 56 -8 27 -13 50 -11 52 2 3 7 -6
11 -18 4 -12 20 -44 36 -71 16 -27 29 -55 29 -61 0 -25 67 -87 94 -87 17 0 26
-5 26 -16 0 -11 -6 -15 -20 -11 -11 3 -20 1 -20 -4 0 -5 11 -9 25 -9 14 0 25
-6 25 -13 0 -8 10 -19 23 -25 l22 -11 -22 0 c-12 -1 -24 -5 -27 -10 -18 -28
-116 37 -116 77 0 11 -3 13 -10 6 -13 -13 7 -64 23 -64 6 0 18 -7 28 -16 9 -8
26 -16 37 -17 12 0 26 -11 33 -24 14 -26 32 -31 22 -6 -4 11 -3 14 5 9 7 -4
29 -2 50 5 l37 12 -30 13 -30 13 28 1 c16 0 26 4 23 9 -3 4 6 6 19 3 20 -3 25
0 25 16 0 11 -6 23 -12 25 -10 4 -9 8 2 16 12 8 16 6 22 -12 11 -40 8 -80 -9
-99 -11 -12 -12 -18 -4 -18 13 0 12 -90 -2 -345 -5 -89 -10 -135 -32 -305 -3
-25 -10 -66 -16 -91 -6 -26 -9 -53 -8 -60 2 -8 0 -23 -3 -34 -4 -11 -14 -64
-23 -117 -10 -54 -21 -95 -27 -92 -5 3 -6 -5 -2 -20 5 -20 2 -26 -10 -26 -19
0 -20 -4 -5 -28 9 -15 8 -31 -7 -73 -10 -30 -17 -60 -16 -66 5 -22 -24 -14
-36 10 -8 18 -9 13 -6 -28 2 -27 -1 -52 -7 -55 -18 -12 -18 -83 0 -97 12 -10
13 -15 4 -21 -7 -4 -17 -31 -23 -59 -6 -28 -20 -60 -31 -71 -19 -21 -27 -48
-10 -38 9 6 -20 -84 -46 -142 -14 -32 -15 -33 -30 -15 -13 16 -14 16 -9 1 3
-11 0 -18 -8 -18 -7 0 -19 -7 -26 -15 -13 -15 -35 -11 -25 6 4 5 1 9 -6 9 -8
0 -8 4 1 15 10 12 16 13 26 4 11 -9 14 -8 14 4 0 8 7 20 15 27 8 7 12 17 8 23
-4 6 -11 3 -20 -8 -12 -18 -13 -17 -13 8 0 19 4 25 15 21 8 -4 15 -1 15 5 0 6
7 11 15 11 10 0 15 10 15 26 0 25 -2 26 -41 21 l-41 -5 6 33 c4 19 13 46 21
61 15 29 2 56 -22 47 -18 -7 -16 -21 5 -27 9 -2 4 -4 -13 -3 -18 1 -30 8 -30
16 0 17 15 25 80 43 33 9 51 20 53 32 7 35 -14 38 -46 7 l-32 -29 -1 26 c-1
15 -2 34 -2 43 0 9 -7 16 -16 15 -8 0 -17 7 -19 17 -3 15 0 18 17 12 21 -6 28
4 14 19 -9 8 -11 66 -3 66 3 0 6 12 6 26 2 18 -2 24 -15 22 -10 -2 -15 -11
-13 -23 3 -16 1 -17 -9 -8 -6 6 -12 27 -13 45 -1 42 -22 79 -34 60 -5 -7 -13
-12 -18 -11 -23 4 -26 -2 -10 -20 17 -19 17 -20 -3 -30 -16 -9 -20 -20 -19
-49 1 -20 -1 -68 -5 -105 -5 -62 -3 -70 19 -90 15 -14 25 -35 26 -60 3 -37 10
-42 56 -40 7 1 11 -4 9 -11 -2 -6 -27 -11 -61 -11 -54 0 -57 1 -51 22 6 27
-13 42 -21 16 -3 -10 -11 -28 -16 -40 -6 -12 -8 -42 -5 -67 5 -33 3 -45 -8
-50 -9 -3 -12 -12 -9 -21 4 -9 3 -15 -2 -13 -5 2 -10 -1 -12 -7 -4 -12 55 -26
75 -18 8 3 12 12 9 19 -3 7 -1 16 4 19 6 4 10 -3 10 -15 0 -25 -58 -82 -74
-73 -6 4 -5 -1 3 -10 8 -10 16 -15 19 -13 2 3 14 -6 24 -20 13 -16 18 -33 14
-49 -5 -18 -1 -27 14 -35 14 -7 19 -17 15 -29 -3 -10 -2 -26 2 -36 6 -18 7
-18 14 1 7 18 8 17 8 -3 1 -29 -27 -37 -68 -20 -27 12 -30 16 -18 26 12 9 16
9 20 -1 4 -10 6 -11 6 0 1 13 -39 33 -51 25 -5 -2 -8 5 -8 16 0 11 -4 22 -9
25 -15 10 -41 -5 -42 -23 0 -10 -2 -11 -6 -3 -2 6 -9 9 -15 6 -6 -4 -6 2 1 14
16 29 14 42 -6 42 -16 1 -16 2 2 16 20 15 19 15 -5 12 -18 -2 -24 -8 -22 -23
2 -16 1 -17 -7 -5 -6 8 -11 18 -11 21 0 12 42 49 50 44 6 -3 7 1 3 10 -4 12
-8 13 -13 5 -11 -17 -30 -3 -30 21 0 12 7 19 20 19 22 0 26 10 8 28 -8 8 -8
15 1 25 12 15 5 47 -9 47 -5 0 -11 -6 -13 -12 -4 -9 -8 -10 -14 -2 -4 6 -18
13 -30 16 -17 5 -24 1 -29 -16 -4 -11 -11 -24 -15 -27 -9 -5 4 -21 51 -61 16
-13 21 -22 13 -25 -7 -3 -13 -9 -13 -14 0 -6 4 -8 9 -5 15 9 0 -38 -16 -51
-12 -10 -12 -13 2 -21 16 -8 16 -11 0 -36 -10 -15 -21 -23 -24 -18 -24 36 -75
-4 -60 -46 6 -16 14 -22 27 -18 18 6 42 -29 57 -83 6 -18 9 -20 16 -10 13 20
11 31 -3 23 -8 -5 -8 -1 1 10 13 15 13 19 0 27 -8 5 -9 9 -4 9 15 0 37 -16 36
-26 -1 -32 13 -54 35 -54 14 0 27 -7 30 -15 9 -22 34 -18 34 5 0 11 7 20 15
20 8 0 15 -9 15 -20 0 -23 18 -26 34 -5 9 12 14 11 33 -11 l23 -25 -24 -24
c-13 -13 -22 -26 -19 -29 7 -7 -49 -136 -59 -136 -5 0 -8 3 -8 8 0 4 -14 13
-30 21 -24 10 -29 17 -25 34 5 18 4 19 -5 7 -9 -13 -12 -13 -24 3 -8 10 -20
15 -30 11 -23 -9 -20 -23 4 -17 11 3 20 0 20 -6 0 -6 -6 -11 -14 -11 -8 0 -21
-3 -30 -6 -11 -4 -19 1 -24 17 l-9 22 -17 -24 c-16 -23 -16 -24 1 -27 10 -2
23 -9 28 -14 7 -8 4 -9 -9 -4 -16 5 -17 3 -12 -21 4 -16 7 -36 7 -46 0 -11 10
-20 28 -23 27 -6 29 -9 29 -55 0 -27 -5 -49 -10 -49 -13 0 -39 66 -32 83 4 10
-4 16 -25 19 -27 4 -30 2 -28 -23 1 -18 6 -24 13 -18 14 11 24 1 24 -23 0 -15
-6 -19 -24 -16 -13 1 -29 -2 -37 -9 -11 -8 -17 -8 -26 2 -10 11 -9 17 9 29 12
9 17 16 10 16 -6 0 -12 7 -12 15 0 12 -5 11 -30 -3 -36 -21 -38 -39 -5 -54 14
-6 25 -18 25 -25 0 -8 5 -11 10 -8 6 3 10 1 10 -4 0 -17 27 -13 45 6 11 11 19
13 24 5 3 -6 19 -14 34 -17 31 -8 31 -9 16 -36 -8 -15 -14 -18 -23 -10 -20 17
-42 -12 -23 -30 11 -11 11 -19 -4 -49 -10 -20 -25 -42 -33 -50 -9 -7 -16 -19
-16 -26 0 -13 -54 -59 -70 -59 -5 0 -12 -3 -16 -7 -4 -5 2 -8 14 -8 30 0 28
-18 -4 -30 -33 -13 -34 -13 -34 5 0 21 -16 19 -33 -5 -8 -11 -23 -20 -33 -19
-46 5 -66 -1 -60 -16 4 -11 -1 -15 -19 -15 -14 0 -25 -4 -25 -10 0 -10 20 -14
54 -10 14 1 17 -3 12 -15 -3 -9 -6 -23 -6 -31 0 -8 -5 -14 -11 -14 -6 0 -8 7
-4 18 5 14 4 15 -6 5 -7 -7 -28 -13 -45 -13 -18 0 -36 -4 -39 -10 -6 -9 8 -14
29 -11 13 3 36 -20 30 -30 -3 -5 1 -9 8 -10 7 0 3 -4 -9 -9 -25 -10 -29 -26
-13 -50 8 -13 10 -12 10 3 0 18 8 21 27 9 8 -5 -7 -32 -48 -86 -32 -44 -59
-85 -59 -92 0 -7 -8 -15 -17 -18 -10 -4 -27 -19 -38 -35 -55 -79 -294 -326
-465 -481 -58 -52 -107 -98 -110 -101 -20 -22 -262 -208 -343 -263 -31 -21
-57 -42 -57 -47 0 -4 -10 -11 -22 -15 -33 -10 -67 -37 -68 -52 0 -7 -4 -11 -9
-7 -10 5 -73 -26 -101 -50 -8 -7 -42 -28 -75 -46 -76 -41 -109 -66 -94 -71 7
-2 -4 -4 -24 -4 -20 0 -44 -8 -55 -17 -11 -10 -30 -20 -42 -22 -13 -2 -50 -20
-82 -40 -33 -19 -63 -35 -68 -35 -14 0 -90 -43 -90 -52 0 -4 -13 -8 -29 -8
-15 0 -40 -9 -54 -20 -14 -11 -35 -20 -46 -20 -12 0 -30 -9 -42 -21 -11 -11
-26 -18 -32 -16 -22 7 -92 -20 -102 -40 -6 -11 -16 -18 -23 -15 -6 2 -12 -1
-12 -7 0 -7 -7 -7 -24 0 -24 11 -86 -3 -211 -47 -22 -8 -49 -15 -60 -17 -11
-2 -36 -10 -55 -19 -28 -13 -78 -23 -162 -32 -3 -1 -10 -4 -14 -9 -4 -4 -20
-7 -36 -7 -16 0 -39 -5 -51 -12 -12 -6 -41 -13 -65 -14 -24 -2 -58 -12 -76
-23 -35 -22 -71 -27 -81 -12 -3 6 -18 6 -38 -1 -28 -9 -59 -12 -172 -21 -16
-1 -36 2 -43 7 -8 6 -21 5 -35 -2 -45 -21 -108 -31 -133 -20 -17 8 -27 8 -38
-1 -9 -8 -27 -10 -46 -6 -16 4 -30 2 -30 -3 0 -15 -34 -10 -59 10 -13 10 -33
18 -45 17 -21 0 -21 -1 -1 -9 15 -7 6 -9 -35 -9 -30 -1 -69 -3 -86 -7 -19 -4
-34 -1 -39 6 -5 8 -10 8 -21 -1 -11 -9 -19 -8 -36 3 -17 12 -31 13 -61 5 -29
-7 -49 -7 -74 2 -28 10 -37 10 -50 -1 -9 -7 -14 -8 -10 -2 4 8 -19 13 -73 18
-77 6 -134 22 -126 35 2 3 -36 6 -86 6 -77 0 -92 3 -104 20 -8 10 -14 13 -14
7 0 -15 -48 -5 -71 15 -9 7 -29 16 -45 18 -30 5 -76 16 -129 33 -16 5 -36 7
-42 5 -7 -3 -13 0 -13 5 0 6 -22 9 -49 9 -40 -2 -54 2 -71 21 -11 12 -26 22
-33 23 -44 2 -193 51 -210 68 -6 6 -18 11 -27 11 -9 0 -20 3 -24 7 -4 5 -11 8
-14 9 -4 0 -16 4 -27 9 -59 23 -75 31 -75 37 0 5 -7 8 -15 8 -8 0 -23 4 -33 9
-9 5 -44 20 -77 32 -127 47 -429 205 -480 249 -11 10 -42 30 -70 45 -27 15
-57 34 -66 41 -8 8 -19 14 -22 14 -4 0 -28 16 -54 35 -27 19 -65 47 -86 62
-21 16 -48 38 -59 51 -12 12 -27 22 -33 22 -7 0 -43 29 -81 65 -38 35 -74 65
-80 65 -24 0 -424 397 -555 550 -35 41 -72 84 -82 95 -41 45 -199 258 -274
370 -107 160 -200 319 -279 476 -36 71 -70 131 -75 134 -5 4 -9 13 -9 21 0 8
-15 45 -33 82 -18 37 -48 105 -67 152 -18 47 -39 94 -46 105 -6 11 -22 54 -34
95 -13 41 -43 136 -67 210 -38 114 -133 465 -133 489 0 4 10 13 23 18 l22 11
-27 7 c-15 4 -29 14 -33 22 -8 24 3 28 23 10 17 -15 19 -14 37 28 11 25 23 45
28 45 16 0 5 18 -15 23 -31 8 -45 -4 -23 -19 25 -18 13 -29 -14 -13 -25 17
-39 4 -23 -21 10 -16 9 -18 -3 -14 -35 14 -25 84 12 84 7 0 16 6 19 14 3 8 16
12 35 10 25 -3 29 0 29 21 0 18 5 23 20 22 12 -1 20 -8 20 -20 0 -25 24 -16
28 10 4 26 -38 39 -69 22 -16 -8 -23 -8 -29 1 -6 9 -9 9 -13 -1 -4 -10 -6 -9
-6 4 -1 11 -9 17 -27 17 -23 0 -25 3 -20 25 5 18 1 28 -14 37 -11 7 -20 21
-20 30 0 10 -8 26 -19 37 -18 18 -22 43 -36 221 l-4 55 11 -42 c11 -45 22 -54
32 -27 5 13 9 14 21 4 9 -7 18 -11 20 -8 7 7 -5 38 -15 38 -4 0 -6 17 -5 39 2
33 0 38 -16 34 -15 -4 -17 -9 -8 -25 6 -11 7 -27 4 -36 -10 -24 -26 34 -19 65
5 17 2 23 -10 23 -10 0 -16 9 -16 25 0 29 24 34 35 8 7 -17 8 -16 15 2 7 15 9
16 9 4 1 -9 9 -23 19 -30 15 -13 16 -12 4 2 -7 9 -14 30 -15 46 -2 23 -7 29
-24 29 -13 0 -23 -4 -23 -8 0 -4 -6 -8 -14 -8 -18 0 -26 52 -26 172 0 93 1 98
27 123 15 14 30 25 34 25 15 0 29 52 19 70 -16 29 -12 37 15 35 14 -2 27 1 31
6 3 5 2 9 -3 9 -4 0 -14 4 -22 9 -11 7 -10 12 5 29 10 12 21 17 24 12 3 -5 15
-11 25 -13 11 -1 25 -6 31 -10 7 -4 14 0 18 8 3 9 0 15 -9 15 -17 0 -20 26 -5
35 8 5 7 12 -2 22 -10 12 -9 18 7 29 23 17 35 18 35 3 0 -6 7 -9 15 -6 18 8
32 -13 15 -23 -8 -5 -7 -9 4 -13 21 -8 46 2 46 19 0 8 5 14 10 14 6 0 10 9 10
20 0 10 9 24 20 30 11 6 18 15 15 20 -3 5 -1 11 5 15 47 29 -90 63 -169 42
-22 -6 -41 -15 -41 -19 0 -4 -7 -8 -16 -8 -11 0 -14 -5 -10 -16 4 -11 1 -14
-12 -12 -9 2 -16 10 -14 17 1 7 -2 10 -7 6 -14 -8 -2 -35 15 -36 8 -1 19 -2
26 -3 6 0 13 -11 15 -24 1 -13 -1 -21 -5 -18 -4 2 -14 0 -22 -5 -12 -8 -12
-12 -2 -16 19 -8 14 -33 -7 -33 -14 0 -18 5 -14 19 4 14 -1 20 -19 23 -12 2
-22 9 -20 16 2 10 -3 10 -17 2 -11 -5 -22 -10 -25 -10 -11 0 -6 28 5 32 8 3 5
10 -6 22 -27 26 -14 130 20 166 26 27 85 54 85 39 0 -5 5 -9 11 -9 6 0 17 -7
26 -16 9 -8 23 -12 32 -9 9 4 21 8 27 9 21 3 59 34 52 41 -4 4 -13 3 -20 -2
-7 -6 -29 -14 -48 -17 -33 -7 -34 -6 -15 9 11 9 30 18 43 22 12 3 22 10 22 15
0 7 16 9 40 5 22 -3 40 -2 40 2 0 4 10 7 23 6 12 0 23 5 24 10 1 6 -11 9 -27
8 -18 -2 -30 3 -34 14 -9 22 18 50 36 36 7 -6 25 -13 39 -17 29 -6 44 12 40
47 -1 9 3 17 8 17 6 0 11 8 11 18 0 15 2 15 11 2 8 -12 10 -8 6 17 -2 21 1 34
10 37 7 3 13 12 13 20 0 24 22 66 32 60 4 -3 15 10 22 28 8 18 18 36 22 41 12
11 33 77 23 71 -5 -3 -9 4 -9 16 0 11 8 24 18 27 24 9 32 24 25 51 -3 15 -1
27 8 32 10 7 6 12 -14 19 -16 6 -32 11 -37 11 -14 0 -22 -19 -14 -32 5 -8 11
-6 19 6 16 21 25 2 18 -38 -5 -24 -10 -27 -31 -23 -14 3 -37 1 -49 -4 -18 -7
-25 -5 -30 7 -5 13 -7 13 -14 2 -12 -18 -11 -31 1 -23 6 3 10 -3 10 -14 0 -28
-3 -37 -13 -33 -5 1 -8 -6 -7 -15 4 -35 0 -43 -24 -43 -26 0 -40 -13 -51 -50
-12 -38 -31 -53 -54 -40 -27 14 -31 13 -31 -8 0 -10 -5 -23 -11 -29 -9 -9 -7
-10 10 -6 11 3 21 10 21 15 0 5 5 6 11 3 6 -4 8 -13 5 -20 -2 -7 2 -12 11 -11
9 0 18 -5 20 -11 3 -9 -9 -11 -44 -9 -26 2 -54 0 -60 -6 -14 -12 -43 -4 -43
12 0 5 9 10 20 10 11 0 20 5 20 10 0 13 -12 13 -45 0 -17 -6 -24 -14 -19 -22
6 -10 4 -10 -7 -2 -17 13 -59 16 -59 4 0 -18 24 -60 34 -60 18 -1 -26 -30 -45
-30 -9 0 -22 7 -29 15 -16 19 -30 19 -30 1 0 -8 -7 -17 -16 -20 -25 -10 -25
-7 -2 16 20 20 20 22 4 34 -12 8 -16 19 -11 33 7 24 16 26 34 9 11 -10 13 -10
7 0 -4 6 -2 12 3 12 18 0 13 20 -6 28 -10 4 -19 13 -21 21 -4 19 29 175 38
181 13 8 24 53 11 46 -6 -4 -11 -1 -11 7 0 25 33 117 42 117 4 0 8 8 8 18 0
14 -2 15 -10 2 -9 -13 -10 -13 -10 0 0 15 24 112 54 220 8 30 20 73 26 95 6
22 17 56 25 75 7 19 28 80 45 135 37 115 123 338 170 440 43 94 175 360 203
410 79 138 147 250 194 317 29 42 53 79 53 82 0 3 8 14 18 24 9 11 54 70 100
133 107 147 183 244 232 294 27 28 40 50 40 68 0 16 4 26 9 23 4 -3 17 1 27 9
18 14 18 15 -3 21 -33 9 -28 21 6 16 35 -5 49 13 23 29 -12 8 -17 20 -14 35 6
33 -13 30 -45 -8 -16 -18 -68 -76 -118 -128 -88 -94 -114 -126 -233 -280 -69
-89 -146 -201 -148 -215 -1 -6 -16 -25 -33 -44 -17 -18 -32 -37 -32 -42 -1 -5
-3 -13 -4 -19 -1 -5 -3 -17 -4 -25 0 -8 -7 -15 -13 -15 -12 0 -58 -58 -58 -73
0 -4 -15 -29 -33 -55 -59 -85 -116 -198 -111 -219 4 -15 -3 -27 -25 -42 -21
-15 -32 -34 -37 -59 -8 -43 -45 -132 -54 -132 -9 0 -34 -62 -50 -118 -6 -24
-18 -46 -26 -49 -8 -3 -14 -12 -14 -20 0 -8 -11 -35 -25 -60 -14 -25 -24 -48
-21 -51 3 -2 -1 -17 -8 -31 -22 -43 -34 -73 -57 -141 -12 -36 -26 -70 -31 -77
-5 -7 -7 -26 -3 -43 5 -22 3 -32 -9 -36 -8 -3 -18 -20 -21 -37 -8 -38 -38
-129 -56 -172 -14 -34 -15 -40 -17 -74 -2 -20 -4 -21 -17 -11 -8 7 -22 10 -30
6 -8 -3 -15 0 -15 6 0 9 -3 9 -12 0 -18 -18 9 -62 40 -62 19 0 23 -4 17 -17
-5 -10 -14 -43 -20 -73 -7 -30 -20 -82 -29 -115 -9 -32 -16 -71 -16 -86 0 -37
-20 -89 -33 -89 -32 1 -56 14 -61 36 -4 13 -11 24 -17 24 -5 0 -14 10 -19 23
l-9 22 0 -22 c-1 -21 -21 -44 -21 -24 0 6 -6 11 -14 11 -22 0 -27 16 -15 44 7
14 8 33 4 43 -5 10 -7 22 -6 27 1 5 -8 6 -20 3 -11 -3 -27 -3 -35 0 -12 4 -11
8 6 20 26 18 16 37 -16 29 -19 -5 -24 -2 -24 14 0 19 -19 26 -60 20 -21 -3
-22 -4 -14 -34 7 -28 24 -36 24 -11 0 8 9 15 21 15 16 0 19 -4 14 -20 -4 -11
-2 -20 4 -20 14 0 14 -50 1 -51 -5 -1 -15 -2 -22 -3 -15 -1 -23 -26 -9 -26 6
0 11 -9 11 -20 0 -13 7 -20 20 -20 11 0 20 -4 20 -10 0 -5 -5 -10 -11 -10 -7
0 -8 -7 -4 -17 4 -10 7 -26 7 -35 0 -10 3 -20 9 -23 5 -4 9 2 9 13 0 10 11 24
25 30 14 6 25 17 25 23 0 8 4 8 15 -1 8 -7 24 -10 36 -7 15 4 32 -5 61 -34 36
-34 40 -42 30 -62 -8 -16 -11 -18 -11 -5 -1 22 -58 69 -76 62 -21 -8 -19 -27
5 -44 26 -19 28 -55 2 -41 -16 9 -96 0 -108 -12 -3 -3 8 -12 24 -21 30 -16 46
-41 36 -57 -3 -5 2 -9 12 -9 12 0 15 6 11 26 -6 35 19 43 46 14 15 -16 18 -24
10 -27 -20 -7 -15 -23 7 -23 39 0 52 -40 47 -142 -5 -94 -12 -128 -27 -128 -5
0 -6 -9 -3 -20 3 -11 0 -27 -7 -35 -11 -13 -10 -14 5 -9 16 7 17 3 12 -32 -4
-21 -7 -47 -7 -56 0 -10 -7 -18 -15 -18 -8 0 -15 -5 -15 -11 0 -6 -7 -9 -15
-5 -11 4 -15 -1 -15 -19 0 -14 5 -25 11 -25 5 0 7 -4 4 -10 -3 -5 -1 -10 4
-10 6 0 11 -5 11 -11 0 -6 -9 -8 -21 -4 -15 5 -22 2 -26 -13 -3 -13 -11 -18
-23 -15 -10 3 -21 0 -24 -6 -4 -6 0 -11 8 -11 9 0 16 -4 16 -10 0 -5 7 -10 15
-10 8 0 15 4 15 10 0 5 9 2 20 -7 13 -11 16 -21 10 -27 -6 -6 -10 -19 -10 -29
0 -12 -5 -17 -14 -14 -9 4 -16 -3 -18 -18 -5 -22 -3 -23 16 -13 12 6 24 16 28
21 4 7 11 7 21 -1 10 -9 13 -30 10 -80 -5 -94 -4 -92 -24 -92 -10 0 -23 -8
-29 -17 -8 -13 -13 -14 -16 -5 -3 6 -10 9 -15 6 -6 -3 -5 -11 2 -20 9 -12 6
-14 -19 -14 -25 0 -30 4 -29 20 1 18 10 24 30 21 11 -2 8 17 -4 25 -6 3 -15 0
-21 -7 -7 -11 -8 -10 -6 5 4 26 -18 32 -25 6 -4 -14 -10 -18 -23 -13 -11 4
-15 3 -11 -4 4 -6 1 -13 -5 -16 -8 -2 1 -12 19 -23 18 -11 33 -22 33 -26 0 -5
9 -17 20 -28 11 -11 20 -27 20 -36 0 -10 6 -14 15 -10 8 3 18 0 22 -7 5 -7 20
-18 36 -26 29 -15 34 -27 42 -103 4 -39 2 -46 -10 -42 -19 8 -19 -1 0 -29 8
-12 15 -42 17 -67 2 -36 0 -45 -14 -48 -13 -2 -16 1 -12 12 3 9 1 16 -6 16 -7
0 -9 8 -5 19 4 14 0 23 -15 31 -23 13 -42 4 -91 -42 -23 -22 -25 -26 -10 -35
13 -8 14 -13 3 -26 -11 -13 -10 -15 6 -10 11 2 23 0 26 -6 4 -6 2 -11 -3 -11
-16 0 -14 -16 8 -60 13 -28 15 -42 8 -49 -8 -8 0 -10 31 -8 31 2 42 0 42 -10
0 -8 5 -11 11 -7 8 5 8 1 0 -14 -6 -11 -17 -22 -26 -25 -18 -8 -7 -43 30 -91
14 -18 25 -39 25 -47 1 -15 23 -49 33 -49 4 0 4 7 1 15 -5 11 -2 13 10 9 18
-7 22 -44 5 -44 -5 0 -7 -5 -4 -10 4 -6 11 -8 16 -5 8 6 13 -9 10 -29 -1 -4 4
-14 10 -22 6 -8 9 -27 6 -43 -4 -17 0 -36 9 -50 9 -12 13 -28 11 -36 -3 -7 6
-58 19 -112 14 -54 29 -114 34 -133 18 -72 84 -287 106 -347 13 -34 24 -66 24
-72 0 -6 5 -11 12 -11 6 0 8 -3 5 -7 -4 -3 2 -12 12 -20 15 -10 18 -22 15 -49
-3 -25 -1 -33 7 -28 7 4 9 3 6 -3 -7 -12 40 -144 56 -158 7 -5 13 -21 15 -35
1 -13 11 -33 21 -45 10 -11 16 -26 13 -34 -3 -8 0 -11 7 -7 6 4 12 4 12 -1 1
-4 3 -20 4 -35 5 -34 90 -200 98 -191 4 3 7 -1 7 -10 0 -23 32 -87 41 -82 4 3
10 -2 13 -11 4 -9 2 -13 -5 -8 -7 4 -10 1 -7 -7 3 -8 10 -13 16 -12 7 2 9 -4
5 -14 -4 -10 -2 -14 4 -10 6 4 10 -1 9 -11 0 -10 5 -16 13 -14 9 2 11 -3 7
-13 -3 -9 -2 -13 4 -10 5 3 14 -4 20 -16 9 -15 9 -19 1 -15 -8 5 -8 0 0 -18 7
-14 16 -23 22 -19 6 3 7 1 3 -5 -9 -14 12 -55 24 -47 5 3 12 0 16 -6 4 -8 3
-9 -4 -5 -16 10 -15 0 4 -29 9 -14 21 -22 28 -18 6 3 8 3 4 -2 -4 -4 0 -14 10
-22 9 -8 11 -11 4 -8 -11 6 -12 3 -3 -14 12 -22 27 -30 16 -8 -10 18 25 -25
37 -47 7 -14 7 -17 -2 -11 -9 6 -9 2 -1 -14 7 -11 18 -21 25 -21 8 0 13 -8 12
-17 0 -10 5 -17 12 -15 6 1 12 -7 12 -17 0 -11 5 -23 12 -27 7 -5 9 -2 4 7 -4
8 2 3 13 -11 11 -14 19 -30 17 -36 -2 -6 7 -24 21 -40 l25 -29 -22 33 c-12 17
-19 32 -16 32 9 0 71 -93 68 -102 -4 -13 57 -88 69 -85 5 1 26 -20 47 -48 20
-27 28 -43 17 -35 -20 14 -20 14 -1 -7 10 -13 22 -20 26 -18 10 6 42 -30 38
-43 -2 -5 0 -9 4 -8 12 2 58 -47 52 -56 -7 -11 35 -59 46 -53 4 2 18 -8 31
-23 13 -14 16 -20 7 -13 -10 7 -18 9 -18 4 0 -16 118 -126 128 -119 6 3 14 1
18 -5 4 -8 3 -9 -4 -5 -25 15 -10 -12 26 -47 47 -46 67 -49 26 -4 l-29 32 32
-29 c18 -16 30 -32 28 -35 -7 -6 76 -91 88 -91 5 0 -10 19 -34 41 -24 23 -35
35 -24 28 35 -23 74 -62 70 -69 -3 -4 5 -16 18 -26 18 -16 19 -16 8 -1 -20 26
2 21 28 -7 15 -16 18 -25 10 -28 -6 -2 1 -12 17 -23 24 -15 27 -16 15 -2 -23
28 -2 19 45 -19 24 -20 41 -40 38 -45 -3 -5 -2 -9 3 -8 24 4 35 -2 29 -17 -5
-12 -2 -15 10 -10 18 7 67 -31 59 -44 -3 -4 2 -13 10 -20 10 -8 15 -9 15 -1 0
7 7 7 25 -1 23 -10 29 -20 26 -40 0 -4 6 -5 14 -1 17 6 58 -25 50 -37 -7 -12
26 -35 49 -35 12 0 21 -6 21 -14 0 -8 7 -16 15 -18 13 -4 13 -3 0 6 -20 14 -4
14 22 0 17 -9 18 -13 7 -20 -12 -8 -11 -10 1 -8 28 3 41 -1 35 -11 -3 -5 0 -7
8 -4 8 3 18 1 22 -5 3 -6 0 -11 -7 -11 -8 0 -6 -5 5 -11 9 -5 22 -7 29 -3 6 4
8 3 5 -3 -7 -12 7 -26 36 -36 11 -4 16 -3 12 3 -10 16 5 12 41 -11 19 -11 32
-24 29 -29 -3 -4 3 -6 14 -3 12 3 24 -4 35 -19 9 -12 20 -22 24 -20 11 4 85
-28 79 -34 -3 -3 -19 2 -36 10 -16 9 -34 16 -38 16 -4 -1 9 -10 30 -21 21 -11
42 -17 47 -14 18 11 50 -6 50 -26 0 -16 5 -19 20 -14 21 7 63 -11 56 -24 -6
-8 54 -44 93 -56 16 -5 21 -4 17 4 -4 6 -2 11 3 11 6 0 11 -7 11 -15 0 -17 12
-24 127 -71 134 -54 197 -74 221 -67 16 4 22 1 22 -10 0 -20 69 -44 79 -28 8
13 41 4 41 -11 0 -5 4 -7 9 -4 5 4 17 3 26 0 11 -5 13 -9 6 -14 -7 -3 4 -11
25 -18 29 -9 35 -8 30 3 -3 9 0 12 9 9 8 -3 13 -11 12 -17 -1 -7 11 -13 27
-15 21 -3 26 0 21 10 -6 10 -5 10 5 1 7 -6 19 -9 26 -6 8 3 14 -1 14 -10 0 -8
12 -17 28 -21 15 -3 38 -9 51 -12 17 -5 22 -4 17 4 -4 7 -1 12 8 12 9 0 16 -7
16 -15 0 -8 8 -15 18 -15 15 0 15 2 2 11 -19 13 14 9 165 -20 61 -12 164 -28
230 -36 66 -8 155 -20 198 -26 43 -5 214 -12 380 -15 166 -3 303 -7 306 -10 9
-9 103 -4 123 7 16 9 23 8 29 -2 8 -12 11 -12 18 0 6 10 29 15 68 16 107 3
124 5 119 13 -3 5 14 8 37 7 27 0 46 4 53 14 7 9 17 12 30 6 10 -4 22 -8 26
-7 4 1 31 5 60 8 29 4 62 11 73 17 11 6 32 12 48 14 15 1 35 3 45 4 17 1 137
31 197 49 17 5 57 16 90 26 56 16 208 68 299 101 22 8 58 22 80 33 23 10 65
28 94 39 28 12 76 30 105 42 168 67 727 383 757 428 3 5 15 13 27 20 39 20
185 133 190 147 3 8 11 14 19 14 44 0 497 419 665 616 24 28 67 77 94 109 28
31 65 78 82 103 52 72 65 84 75 70 6 -9 7 -6 3 8 -4 15 0 24 12 28 10 4 19 3
21 -2 2 -6 14 0 28 13 21 20 25 30 19 55 -6 27 -4 32 15 37 12 3 19 11 16 19
-8 21 12 27 23 7 10 -19 23 -13 27 12 1 8 -4 15 -12 15 -8 0 -14 7 -14 15 0 8
9 15 20 15 15 0 23 12 35 54 14 48 38 76 53 61 3 -3 0 -5 -6 -5 -13 0 -16 -26
-4 -33 9 -6 91 14 111 27 10 6 18 4 27 -8 15 -21 24 -9 34 45 l7 37 -55 -5
c-49 -5 -55 -4 -49 10 5 12 1 17 -13 17 -11 0 -20 3 -20 6 0 4 19 38 42 75 36
58 47 69 70 69 35 0 42 13 18 35 -24 21 -17 35 16 35 14 0 27 6 30 14 4 10 14
12 42 5 20 -4 40 -6 44 -3 4 3 8 -2 8 -11 0 -12 5 -15 23 -9 12 4 30 7 40 6
19 -1 23 13 6 23 -6 4 -8 13 -5 21 3 8 0 17 -8 20 -16 6 -16 46 1 51 7 3 13
-9 15 -28 4 -38 23 -49 33 -19 3 11 10 18 15 15 12 -7 36 4 38 18 3 36 11 51
28 58 18 7 18 7 -1 15 -11 4 -23 12 -27 18 -4 5 -10 -2 -13 -17 -4 -15 -11
-24 -16 -21 -5 3 -15 2 -21 -3 -7 -4 -40 -8 -72 -8 -55 0 -60 -2 -66 -25 l-6
-25 -8 23 c-4 12 -11 22 -16 22 -5 0 4 28 20 63 15 34 56 122 89 195 34 73 61
139 61 147 0 11 7 14 23 11 68 -14 97 -16 97 -6 0 18 17 11 23 -10 3 -12 14
-20 27 -20 12 0 30 -5 40 -10 16 -9 19 -8 13 7 -3 10 -11 25 -18 33 -18 23
-26 50 -14 50 6 0 7 5 3 11 -5 8 -10 6 -16 -5 -5 -9 -17 -16 -26 -16 -16 -1
-16 -2 1 -14 25 -19 21 -27 -6 -15 -32 15 -25 55 10 64 26 6 26 6 5 20 -12 9
-36 13 -62 11 -44 -4 -62 12 -42 37 6 7 16 34 23 60 6 27 18 51 25 54 8 3 14
13 14 23 0 27 27 73 35 60 8 -13 45 31 45 54 0 13 -6 15 -27 10 l-28 -7 24 26
c13 15 32 29 43 33 10 3 18 10 18 15 0 6 -6 7 -12 2 -27 -16 -38 -11 -38 18 0
16 4 29 9 29 5 0 9 11 9 25 0 14 5 39 12 56 11 26 15 28 23 14 6 -12 16 -15
33 -11 13 4 24 2 24 -3 0 -6 -16 -13 -35 -17 -44 -8 -47 -14 -34 -52 11 -32
62 -64 87 -55 29 12 62 51 56 67 -4 12 0 16 15 16 13 0 19 -5 15 -14 -6 -15
43 -29 51 -15 3 4 19 4 35 -1 17 -5 44 -4 65 1 28 8 35 15 35 34 0 22 -3 24
-30 18 -25 -5 -29 -3 -24 11 3 9 12 16 20 16 8 0 11 6 8 15 -4 8 -1 15 5 15 6
0 11 5 11 12 0 6 -3 8 -6 5 -4 -4 -19 2 -33 12 -28 20 -71 36 -85 33 -4 -2
-14 3 -22 9 -11 9 -14 8 -14 -5 0 -10 -9 -16 -25 -16 -14 0 -25 4 -25 9 0 4
-25 9 -56 9 -31 0 -58 3 -61 6 -3 3 12 78 33 166 32 130 42 160 55 157 8 -2
23 1 33 8 16 13 16 14 -1 24 -12 8 -13 11 -3 9 28 -4 59 13 103 56 65 63 83
92 67 112 -11 13 -10 16 9 21 16 4 21 12 18 32 -3 23 -8 26 -35 23 -27 -3 -30
-1 -26 20 2 13 2 17 -2 11 -3 -7 -12 -13 -19 -13 -8 0 -26 -12 -41 -28 -15
-15 -21 -18 -13 -7 13 20 13 20 -8 2 -12 -10 -27 -32 -33 -48 -20 -47 -32 -23
-25 50 9 89 15 111 37 133 12 12 18 28 15 39 -3 12 0 19 9 19 7 0 11 6 8 13
-2 7 3 21 11 32 16 19 16 19 12 -7 -2 -16 0 -28 5 -28 9 0 18 20 20 45 0 6 9
16 19 23 27 19 23 30 -7 24 -24 -4 -25 -3 -15 16 19 36 12 37 -14 1 -14 -19
-31 -34 -38 -34 -7 0 -12 -15 -12 -37 0 -20 -3 -39 -7 -43 -4 -4 -4 -14 -1
-23 4 -10 2 -13 -5 -8 -14 9 -16 66 -2 66 5 0 7 6 4 14 -7 19 14 58 28 50 6
-4 8 1 4 14 -5 14 -1 21 14 25 14 4 18 10 13 22 -4 11 0 21 10 27 10 5 17 16
17 23 0 8 4 15 9 15 5 0 8 8 7 18 -1 13 8 18 36 20 25 2 41 10 50 25 22 35 46
126 53 202 3 39 9 78 11 88 3 10 0 17 -9 17 -11 0 -16 -20 -19 -87 -3 -51 -9
-88 -16 -91 -6 -2 -8 -10 -5 -19 4 -11 2 -14 -5 -9 -12 7 -17 -16 -14 -56 1
-10 -3 -18 -9 -18 -7 0 -9 11 -7 25 3 14 2 25 -2 25 -9 0 -6 32 4 48 8 13 13
80 18 234 2 42 5 75 8 73 3 -2 6 27 7 63 2 36 8 69 14 73 7 4 8 9 1 13 -15 9
-52 -42 -45 -61 4 -9 -1 -19 -10 -24 -8 -5 -18 -23 -22 -39 -4 -17 -11 -28
-16 -24 -5 3 -9 -19 -9 -50 0 -49 -2 -56 -20 -56 -11 0 -20 -4 -20 -10 0 -5 6
-7 14 -4 10 4 13 -5 11 -38 -1 -24 2 -46 8 -49 20 -14 -10 -141 -56 -239 l-46
-95 2 52 c1 28 5 51 11 50 9 -2 60 88 63 113 1 8 6 32 12 54 11 44 6 66 -16
66 -11 0 -14 -10 -11 -37 2 -31 -1 -37 -19 -39 -14 -2 -24 3 -27 14 -3 9 -8
120 -11 246 -3 127 -8 239 -11 249 -6 20 9 58 34 89 8 9 11 22 7 27 -11 19 24
24 41 7 14 -15 15 -19 2 -34 -29 -34 -30 -41 -3 -29 13 7 30 24 36 39 6 15 20
37 30 50 11 12 22 33 24 47 3 14 9 43 14 64 6 28 6 36 -2 28 -20 -20 -24 -11
-21 46 2 32 -1 60 -7 64 -6 3 -11 20 -11 37 -1 18 -6 32 -13 32 -15 0 -25 46
-13 58 5 5 4 21 -3 38 l-11 29 -10 -25 c-5 -14 -11 -34 -13 -45 -2 -11 -7 -30
-10 -42 -5 -16 -3 -25 9 -29 18 -7 22 -34 5 -34 -6 0 -9 -6 -6 -14 3 -8 3 -17
0 -20 -10 -9 -8 -116 2 -121 6 -3 1 -3 -10 0 -16 4 -23 -2 -32 -26 -7 -17 -17
-28 -22 -24 -6 3 -11 -1 -11 -9 0 -9 6 -16 13 -16 9 0 8 -3 -2 -9 -9 -6 -10
-11 -3 -15 6 -4 9 -13 6 -21 -7 -17 -32 -27 -31 -12 1 14 -8 92 -28 227 -13
89 -20 195 -16 248 1 28 21 20 21 -9 0 -13 7 -19 21 -19 19 0 21 -4 16 -39 -6
-48 17 -93 25 -49 2 13 -3 48 -12 76 -9 28 -13 53 -8 54 5 2 11 32 12 67 2 45
8 68 19 76 9 7 14 15 10 18 -3 4 -1 7 5 7 21 0 13 32 -9 37 -20 6 -20 6 -1 27
29 32 73 116 61 116 -6 0 -9 6 -6 13 4 10 -2 13 -21 10 -21 -4 -24 -2 -12 6 8
6 11 11 6 11 -6 0 -5 5 1 11 9 9 18 8 37 -5 25 -16 26 -16 26 4 0 12 -4 18
-10 15 -6 -4 -18 -1 -26 6 -14 12 -14 14 3 27 17 13 17 14 0 23 -17 10 -16 12
7 30 20 16 30 18 46 9 16 -9 20 -8 20 5 0 8 6 15 14 15 16 0 31 18 22 27 -3 3
-13 -2 -22 -12 -14 -13 -19 -14 -25 -3 -7 11 -9 11 -9 -1 0 -9 -8 -12 -27 -8
-19 3 -31 -1 -44 -17 -9 -11 -21 -17 -26 -13 -4 5 5 20 20 33 15 13 34 39 42
58 8 19 20 36 27 39 8 4 7 6 -4 6 -10 1 -27 -13 -40 -29 -12 -17 -27 -29 -33
-27 -5 2 -21 -8 -35 -22 -19 -19 -21 -23 -6 -17 15 5 17 3 11 -11 -4 -10 -8
-27 -7 -38 0 -11 -2 -14 -5 -7 -3 6 -11 12 -19 12 -9 0 -12 5 -8 13 4 6 -7 -1
-24 -17 -31 -29 -55 -79 -26 -55 28 23 24 2 -4 -29 -18 -19 -25 -33 -18 -36 7
-3 4 -9 -8 -17 -10 -6 -26 -19 -36 -29 -18 -18 -18 -17 -13 18 3 20 9 39 13
42 4 3 12 22 19 42 7 20 19 42 27 48 7 7 14 18 14 25 0 7 7 16 16 19 8 3 12
11 9 17 -5 7 -13 5 -24 -5 -10 -9 -20 -16 -24 -16 -10 0 -14 34 -5 58 4 13 4
22 -2 22 -15 0 -12 90 3 96 20 7 21 83 1 105 -9 11 -12 19 -7 19 13 0 11 59
-3 68 -13 10 -16 32 -4 32 6 0 10 7 10 15 0 24 -14 17 -32 -15 -12 -20 -15
-41 -11 -66 5 -31 4 -36 -10 -31 -9 3 -17 1 -19 -5 -2 -5 -10 -2 -18 8 -8 11
-10 16 -6 12 12 -10 36 10 36 30 0 13 -3 12 -20 -3 -21 -19 -42 -13 -22 7 15
15 16 78 1 78 -6 0 -8 -7 -5 -16 3 -8 -1 -29 -10 -45 -13 -27 -20 -30 -52 -27
-30 2 -39 -1 -48 -20 -10 -21 -12 -21 -17 -5 -14 48 -61 169 -69 180 -6 8 -1
24 15 48 21 30 26 34 29 18 4 -13 8 -8 15 17 8 26 11 29 12 13 1 -13 5 -23 10
-23 6 0 7 20 4 48 -8 60 -8 73 2 96 6 15 5 17 -5 11 -8 -5 -11 -4 -6 3 3 6 2
21 -3 34 -5 12 -12 72 -15 132 -9 150 -44 215 -86 163 -15 -18 -17 -13 -39 65
-12 45 -29 99 -36 118 -8 19 -16 55 -20 80 -3 24 -13 52 -21 61 -22 24 -34 75
-21 88 8 8 7 11 -2 11 -7 0 -11 6 -8 15 4 8 2 17 -3 20 -6 4 -10 1 -10 -6 0
-7 -10 -3 -23 9 -30 28 -34 28 -34 -5 0 -60 -2 -64 -27 -57 -24 6 -24 4 -19
-38 7 -53 13 -62 13 -20 0 40 16 42 25 2 4 -16 11 -30 16 -30 6 0 7 -9 4 -21
-5 -15 -4 -19 4 -15 7 4 11 -1 11 -13 0 -12 -6 -21 -12 -21 -8 -1 -7 -5 4 -13
15 -12 15 -14 -2 -25 -16 -10 -17 -16 -6 -51 6 -22 15 -43 20 -48 5 -5 6 -2 2
5 -7 11 -4 11 11 1 11 -6 25 -25 31 -41 11 -30 6 -62 -8 -53 -15 9 -17 -20 -5
-70 7 -27 13 -45 14 -38 0 6 10 9 21 6 23 -6 23 -6 5 -53 l-13 -35 -1 34 c-1
35 -16 34 -23 -2 -3 -17 -10 -5 -122 203 -59 110 -143 246 -168 274 -10 11
-18 24 -18 29 0 5 -13 22 -30 39 -16 16 -30 36 -30 44 0 14 -22 45 -52 73 -10
8 -18 19 -18 24 0 4 -29 43 -64 87 -35 43 -67 88 -71 99 -3 12 -10 21 -16 21
-5 0 -19 17 -32 38 -33 51 -111 132 -128 132 -12 0 -12 2 0 9 11 7 4 16 -32
38 -25 15 -52 39 -59 53 -7 14 -22 34 -34 45 -12 11 -24 28 -27 38 -4 9 -15
17 -27 17 -13 0 -24 11 -33 33 -17 38 -52 72 -75 72 -9 0 -17 7 -17 15 0 8 -8
15 -17 15 -21 0 -108 82 -108 102 0 8 -5 11 -10 8 -6 -3 -13 1 -16 9 -3 9 -12
16 -20 16 -7 0 -23 14 -36 30 -12 17 -28 30 -35 30 -7 0 -21 8 -31 18 -10 10
-34 28 -55 41 -20 12 -40 28 -44 35 -5 6 -33 29 -63 51 -30 22 -58 43 -61 48
-11 15 -77 46 -85 39 -4 -4 -4 -2 0 5 4 8 -8 22 -31 37 -21 14 -49 34 -63 45
-14 11 -30 21 -37 21 -6 0 -13 3 -15 8 -7 17 -135 85 -159 84 -16 0 -36 9 -50
25 -30 31 -76 56 -90 48 -5 -4 -23 8 -39 25 -22 23 -35 30 -50 25 -27 -8 -60
3 -60 20 0 8 -14 22 -31 31 -17 8 -28 11 -25 5 4 -6 3 -11 -3 -11 -5 0 -14 6
-18 14 -11 17 -51 38 -62 32 -5 -3 -12 1 -15 10 -4 9 -13 14 -21 10 -8 -3 -15
-2 -15 3 0 17 -62 35 -134 40 -5 1 -6 4 -3 8 10 9 -25 32 -48 33 -12 0 -25 4
-30 8 -6 5 -32 17 -59 27 -40 15 -50 15 -57 4 -7 -11 -9 -11 -9 2 0 11 -16 20
-47 29 -27 7 -66 18 -88 25 -95 30 -113 34 -163 33 -30 0 -59 5 -65 11 -6 6
-18 11 -26 11 -8 0 -34 9 -57 20 -23 12 -64 23 -91 27 -26 3 -55 9 -64 14 -32
17 -169 34 -169 21z m867 -328 c-3 -3 -12 -4 -19 -1 -8 3 -5 6 6 6 11 1 17 -2
13 -5z m439 -192 c-5 -4 -66 26 -66 33 0 3 16 -3 35 -12 19 -9 33 -18 31 -21z
m49 -22 c3 -6 -1 -7 -9 -4 -18 7 -21 14 -7 14 6 0 13 -4 16 -10z m361 -211 c3
-6 -5 -3 -20 6 -14 10 -26 19 -26 22 0 7 39 -17 46 -28z m-5748 -811 c-6 -18
-28 -21 -28 -4 0 9 7 16 16 16 9 0 14 -5 12 -12z m7012 -380 c0 -14 -19 1 -31
25 -12 22 -12 22 10 3 11 -11 21 -23 21 -28z m161 -230 c11 -21 11 -22 -4 -9
-10 7 -17 17 -17 22 0 15 9 10 21 -13z m-7678 -38 c-3 -11 -9 -20 -15 -20 -5
0 -4 9 2 20 6 11 12 20 14 20 2 0 2 -9 -1 -20z m-37 -67 c-10 -10 -19 5 -10
18 6 11 8 11 12 0 2 -7 1 -15 -2 -18z m7775 10 c13 -16 12 -17 -3 -4 -10 7
-18 15 -18 17 0 8 8 3 21 -13z m147 -258 c-3 -3 -9 2 -12 12 -6 14 -5 15 5 6
7 -7 10 -15 7 -18z m248 -77 c-12 -40 -17 -50 -22 -46 -5 6 13 58 20 58 3 0 4
-6 2 -12z m-8380 -34 c-4 -9 -9 -15 -11 -12 -3 3 -3 13 1 22 4 9 9 15 11 12 3
-3 3 -13 -1 -22z m8378 -40 c18 -18 20 -30 6 -39 -5 -3 -16 8 -25 25 -17 32
-6 40 19 14z m-468 -45 c19 -22 19 -22 -3 -10 -24 12 -39 31 -25 31 5 0 17
-10 28 -21z m70 -41 c4 -7 3 -8 -4 -4 -7 4 -12 2 -12 -5 0 -7 -3 -10 -6 -6 -6
5 3 27 11 27 2 0 7 -5 11 -12z m-8056 -12 c0 -3 -4 -8 -10 -11 -5 -3 -10 -1
-10 4 0 6 5 11 10 11 6 0 10 -2 10 -4z m-25 -76 c3 -5 -1 -10 -10 -10 -9 0
-13 5 -10 10 3 6 8 10 10 10 2 0 7 -4 10 -10z m8303 -29 c3 -8 -1 -12 -9 -9
-7 2 -15 10 -17 17 -3 8 1 12 9 9 7 -2 15 -10 17 -17z m81 -74 c8 -10 7 -14
-2 -14 -8 0 -14 6 -14 14 0 7 1 13 2 13 2 0 8 -6 14 -13z m-8460 -43 c-14 -18
-24 -11 -15 11 3 9 11 13 16 10 8 -5 7 -11 -1 -21z m-39 -104 c0 -5 -5 -10
-11 -10 -5 0 -7 5 -4 10 3 6 8 10 11 10 2 0 4 -4 4 -10z m8877 -232 c-3 -8 -6
-5 -6 6 -1 11 2 17 5 13 3 -3 4 -12 1 -19z m-371 -93 c39 -40 39 -41 20 -48
-11 -4 -13 -1 -9 11 6 14 4 15 -9 4 -19 -15 -33 -2 -43 41 -9 36 0 34 41 -8z
m485 -112 c-10 -17 -10 -16 -11 3 0 23 13 41 18 25 2 -6 -1 -18 -7 -28z m-469
14 c7 -8 19 -12 26 -9 6 2 12 -1 12 -7 0 -6 -4 -11 -8 -11 -15 0 -62 25 -62
33 0 11 17 8 32 -6z m415 -9 c-3 -8 -6 -5 -6 6 -1 11 2 17 5 13 3 -3 4 -12 1
-19z m-1 -75 c-10 -10 -19 5 -10 18 6 11 8 11 12 0 2 -7 1 -15 -2 -18z m203
-105 c-9 -16 -14 -19 -17 -9 -2 7 2 17 9 22 20 13 21 11 8 -13z m-160 -24
c-14 -18 -24 -11 -15 11 3 9 11 13 16 10 8 -5 7 -11 -1 -21z m84 -4 c-5 -19
-23 -29 -23 -12 0 7 20 32 26 32 1 0 0 -9 -3 -20z m-229 -115 c3 -8 1 -15 -4
-15 -6 0 -10 7 -10 15 0 8 2 15 4 15 2 0 6 -7 10 -15z m180 0 c3 -9 0 -15 -8
-15 -8 0 -16 7 -20 15 -3 9 0 15 8 15 8 0 16 -7 20 -15z m76 -6 c0 -5 4 -8 9
-5 8 5 8 -15 1 -34 -1 -3 -2 -8 -1 -12 0 -5 -6 -8 -14 -8 -8 0 -15 -9 -15 -19
0 -27 -17 -35 -25 -12 -3 10 2 38 12 60 17 39 33 54 33 30z m-560 -20 c0 -6
-4 -7 -10 -4 -5 3 -10 11 -10 16 0 6 5 7 10 4 6 -3 10 -11 10 -16z m490 -6 c0
-5 -4 -15 -10 -23 -11 -18 -25 -7 -17 15 6 15 27 21 27 8z m-309 -51 c-6 -2
-8 -8 -5 -14 4 -6 1 -8 -7 -6 -8 3 -13 11 -11 18 1 7 -3 19 -10 28 -10 11 -5
10 16 -3 16 -11 24 -21 17 -23z m309 -23 c0 -11 -4 -17 -10 -14 -5 3 -10 13
-10 21 0 8 5 14 10 14 6 0 10 -9 10 -21z m-152 -46 c5 -10 10 -34 10 -53 1
-33 0 -34 -14 -16 -8 11 -11 29 -8 39 4 12 2 17 -4 13 -5 -3 -15 0 -21 8 -9
11 -9 15 1 19 22 9 27 8 36 -10z m-60 -32 c3 -10 0 -10 -17 -2 -25 14 -27 20
-4 17 9 -2 19 -8 21 -15z m-9410 -56 c-3 -3 -12 -3 -21 1 -14 5 -15 10 -5 27
l11 22 10 -23 c6 -12 8 -25 5 -27z m9237 27 c-3 -3 -11 0 -18 7 -9 10 -8 11 6
5 10 -3 15 -9 12 -12z m225 -46 c0 -3 -4 -8 -10 -11 -5 -3 -10 -1 -10 4 0 6 5
11 10 11 6 0 10 -2 10 -4z m-245 -16 c-3 -5 -10 -10 -16 -10 -5 0 -9 5 -9 10
0 6 7 10 16 10 8 0 12 -4 9 -10z m282 -52 c-3 -7 -5 -2 -5 12 0 14 2 19 5 13
2 -7 2 -19 0 -25z m-8679 -1 c-16 -13 -28 -28 -28 -34 0 -6 -9 -9 -19 -6 -16
4 -19 1 -14 -15 4 -17 1 -21 -16 -19 -12 1 -21 2 -21 3 0 2 4 14 10 28 6 18
17 26 33 26 12 0 29 9 37 20 8 11 21 20 30 20 10 -1 6 -8 -12 -23z m8242 -31
c0 -2 -7 -6 -15 -10 -8 -3 -15 -1 -15 4 0 6 7 10 15 10 8 0 15 -2 15 -4z
m-8825 -36 c3 -5 -1 -10 -10 -10 -9 0 -13 5 -10 10 3 6 8 10 10 10 2 0 7 -4
10 -10z m8801 2 c-7 -12 6 -27 39 -46 17 -10 21 -14 10 -10 -11 4 -28 6 -37 6
-9 0 -22 5 -28 12 -11 15 -4 46 12 46 5 0 7 -4 4 -8z m264 4 c0 -3 -4 -8 -10
-11 -5 -3 -10 -1 -10 4 0 6 5 11 10 11 6 0 10 -2 10 -4z m65 -26 c-4 -6 -1
-19 7 -28 12 -15 11 -16 -4 -3 -20 15 -24 41 -7 41 5 0 7 -5 4 -10z m462 -32
c-3 -7 -5 -2 -5 12 0 14 2 19 5 13 2 -7 2 -19 0 -25z m-537 7 c0 -9 -9 -15
-25 -15 -26 0 -34 15 -12 23 23 10 37 7 37 -8z m-150 -15 c0 -5 -5 -10 -11
-10 -5 0 -7 5 -4 10 3 6 8 10 11 10 2 0 4 -4 4 -10z m280 -39 c0 -5 -9 -7 -20
-4 -11 3 -20 12 -20 20 0 11 4 11 20 3 11 -6 20 -15 20 -19z m-8845 -1 c3 -5
1 -10 -4 -10 -6 0 -11 5 -11 10 0 6 2 10 4 10 3 0 8 -4 11 -10z m-80 -10 c3
-5 -1 -10 -9 -10 -9 0 -16 5 -16 10 0 6 4 10 9 10 6 0 13 -4 16 -10z m9365
-15 c0 -28 -38 -92 -54 -92 -21 0 -20 13 3 29 10 7 22 28 25 46 8 33 26 45 26
17z m-9441 -100 c0 -5 -6 -1 -14 9 -8 10 -11 24 -8 29 6 10 21 -16 22 -38z
m28 3 c-3 -8 -6 -5 -6 6 -1 11 2 17 5 13 3 -3 4 -12 1 -19z m84 -28 c5 0 9 -4
9 -10 0 -15 -19 -12 -36 5 -12 12 -12 18 -2 35 13 20 13 20 16 -5 2 -14 8 -25
13 -25z m-194 22 c-12 -13 -13 -22 -5 -36 8 -14 7 -17 -3 -14 -29 10 -23 68 7
68 16 0 16 -1 1 -18z m131 -17 c-1 -14 -6 -25 -10 -25 -4 0 -8 -5 -8 -11 0 -5
5 -7 10 -4 6 3 10 1 10 -4 0 -15 -9 -13 -49 8 -34 18 -34 18 -12 30 12 7 29
10 37 7 8 -3 14 1 14 9 0 8 2 15 5 15 3 0 4 -11 3 -25z m9332 5 c0 -5 -4 -10
-10 -10 -5 0 -10 5 -10 10 0 6 5 10 10 10 6 0 10 -4 10 -10z m-9466 -59 c3 -5
-1 -11 -9 -15 -9 -3 -15 0 -15 9 0 16 16 20 24 6z m8963 -46 c6 -14 8 -25 4
-25 -4 0 -13 11 -19 25 -6 14 -8 25 -4 25 4 0 12 -11 19 -25z m-8980 9 c-3 -3
-12 -4 -19 -1 -8 3 -5 6 6 6 11 1 17 -2 13 -5z m9027 -75 c-3 -5 -16 -9 -29
-9 -24 0 -24 1 -8 20 12 14 20 16 30 9 7 -6 10 -15 7 -20z m-144 11 c0 -5 -2
-10 -4 -10 -3 0 -8 5 -11 10 -3 6 -1 10 4 10 6 0 11 -4 11 -10z m137 -107
c-10 -9 -14 -2 -21 37 l-6 35 17 -32 c9 -18 13 -36 10 -40z m-37 5 c0 -13 -23
-5 -28 10 -2 7 2 10 12 6 9 -3 16 -11 16 -16z m100 18 c0 -3 -4 -8 -10 -11 -5
-3 -10 -1 -10 4 0 6 5 11 10 11 6 0 10 -2 10 -4z m-8836 -12 c17 -6 22 -24 8
-24 -5 0 -17 7 -28 15 -19 15 -8 20 20 9z m-24 -24 c0 -5 -4 -10 -9 -10 -6 0
-13 5 -16 10 -3 6 1 10 9 10 9 0 16 -4 16 -10z m8770 -14 c0 -8 6 -16 13 -19
6 -2 9 -8 5 -12 -4 -4 -14 -2 -23 5 -17 14 -20 40 -5 40 6 0 10 -6 10 -14z
m150 -106 c0 -5 -4 -10 -10 -10 -5 0 -10 5 -10 10 0 6 5 10 10 10 6 0 10 -4
10 -10z m-9116 -25 c-7 -17 -30 -20 -39 -6 -4 8 9 15 37 20 4 0 5 -6 2 -14z
m9106 -45 c0 -5 12 -16 28 -24 20 -11 22 -15 9 -16 -27 0 -57 18 -57 35 0 8 5
15 10 15 6 0 10 -4 10 -10z m-9131 -60 c0 -9 -6 -4 -14 10 -19 33 -19 49 0 24
8 -10 14 -26 14 -34z m9431 -141 c10 -7 11 -12 4 -15 -6 -3 -20 -12 -30 -20
-18 -14 -18 -15 4 -9 l23 7 -22 -44 c-12 -23 -24 -37 -27 -30 -2 7 1 19 7 26
9 11 9 15 0 18 -8 3 -10 11 -4 24 4 10 7 22 7 27 -1 4 6 7 16 8 14 0 14 2 -3
9 -13 6 -15 9 -5 9 8 0 22 -4 30 -10z m-9637 -481 c2 -7 1 -22 -3 -33 -6 -17
-8 -15 -12 13 -4 31 5 45 15 20z m9689 -150 c-7 -7 -12 -8 -12 -2 0 14 12 26
19 19 2 -3 -1 -11 -7 -17z m-9622 3 c0 -12 -59 -11 -66 1 -3 4 11 8 30 8 20 0
36 -4 36 -9z m9494 -92 c-23 -24 -30 -27 -32 -14 -6 27 4 40 34 43 l28 2 -30
-31z m-9321 -89 c-7 -28 -13 -25 -13 6 0 14 4 23 9 20 5 -3 7 -15 4 -26z
m9327 16 c-7 -7 -13 -7 -20 0 -6 6 -3 10 10 10 13 0 16 -4 10 -10z m-9461 -41
c0 -18 -1 -17 -13 5 -8 14 -12 29 -9 33 8 12 23 -14 22 -38z m9598 -441 c-3
-4 -14 -3 -24 0 -15 6 -15 8 -3 16 16 10 39 -4 27 -16z m-147 6 c0 -6 -9 -10
-20 -10 -10 0 -24 -8 -29 -17 -6 -10 -11 -13 -11 -7 0 7 -13 10 -32 8 -33 -4
-32 2 4 20 29 15 88 19 88 6z m50 6 c0 -3 -4 -8 -10 -11 -5 -3 -10 -1 -10 4 0
6 5 11 10 11 6 0 10 -2 10 -4z m-23 -42 c-3 -3 -12 -4 -19 -1 -8 3 -5 6 6 6
11 1 17 -2 13 -5z m38 -34 c3 -5 1 -10 -4 -10 -6 0 -11 5 -11 10 0 6 2 10 4
10 3 0 8 -4 11 -10z m-32 -7 c-7 -2 -21 -2 -30 0 -10 3 -4 5 12 5 17 0 24 -2
18 -5z m-143 -13 c0 -5 -5 -10 -11 -10 -5 0 -7 5 -4 10 3 6 8 10 11 10 2 0 4
-4 4 -10z m51 -43 c-13 -13 -26 -3 -16 12 3 6 11 8 17 5 6 -4 6 -10 -1 -17z
m-523 -221 c-7 -8 -15 -12 -17 -11 -5 6 10 25 20 25 5 0 4 -6 -3 -14z m62 -12
c0 -2 -4 -14 -10 -28 -13 -35 -29 -33 -28 3 1 22 6 29 20 28 10 -1 18 -2 18
-3z m-60 -84 c0 -5 -4 -10 -10 -10 -5 0 -10 5 -10 10 0 6 5 10 10 10 6 0 10
-4 10 -10z m134 -37 c-9 -38 -11 -39 -16 -3 -3 21 0 30 9 30 10 0 11 -8 7 -27z
m-127 -5 c-3 -8 -6 -5 -6 6 -1 11 2 17 5 13 3 -3 4 -12 1 -19z m78 -18 c29 0
36 -27 18 -68 -16 -37 -20 -40 -48 -35 -40 7 -63 29 -48 44 14 14 33 3 33 -17
0 -8 5 -12 10 -9 6 3 10 15 10 26 0 11 7 19 18 19 16 1 16 1 0 11 -10 5 -18
20 -17 32 0 12 3 16 6 10 2 -7 10 -13 18 -13z m-82 -24 c7 -18 -1 -26 -18 -19
-8 2 -11 11 -8 19 7 18 19 18 26 0z m-113 -112 c0 -8 -5 -12 -10 -9 -6 4 -8
11 -5 16 9 14 15 11 15 -7z m46 -76 c4 -6 3 -8 -4 -4 -5 3 -12 0 -15 -6 -2 -7
-8 -9 -13 -5 -5 4 -2 12 6 17 19 12 17 12 26 -2z m129 3 c3 -6 -3 -9 -14 -8
-11 0 -17 5 -15 9 7 11 22 10 29 -1z m48 2 c-7 -2 -19 -2 -25 0 -7 3 -2 5 12
5 14 0 19 -2 13 -5z m-248 -353 c4 -6 -1 -7 -11 -3 -13 5 -15 2 -10 -15 8 -23
-9 -40 -18 -17 -12 32 22 63 39 35z m265 -26 c0 -3 -7 -12 -15 -21 -20 -19
-32 -10 -14 11 14 15 29 21 29 10z m-70 -44 c13 -8 12 -10 -2 -10 -10 0 -21 0
-25 -1 -4 0 -9 4 -11 10 -5 14 18 14 38 1z m-240 -25 c0 -8 -4 -15 -10 -15 -5
0 -7 7 -4 15 4 8 8 15 10 15 2 0 4 -7 4 -15z m-6 -299 c-3 -9 -10 -16 -15 -16
-5 0 -4 9 3 20 14 22 21 20 12 -4z m34 -44 c2 -7 -2 -10 -12 -6 -9 3 -16 11
-16 16 0 13 23 5 28 -10z m-299 -38 c-8 -10 -8 -14 0 -14 15 0 14 -22 -2 -44
-11 -15 -12 -10 -11 31 2 57 1 56 14 48 8 -5 7 -11 -1 -21z m-25 -82 c2 -4 -6
-18 -20 -31 -27 -26 -29 -23 -12 14 11 25 23 32 32 17z m-6999 -722 c10 -11
14 -20 9 -20 -5 0 -15 9 -22 20 -7 11 -11 20 -9 20 2 0 12 -9 22 -20z m700
-590 c3 -5 2 -10 -4 -10 -5 0 -13 5 -16 10 -3 6 -2 10 4 10 5 0 13 -4 16 -10z
m1482 -666 c-3 -3 -12 -4 -19 -1 -8 3 -5 6 6 6 11 1 17 -2 13 -5z"/>
<path d="M11232 14000 c-12 -5 -63 -8 -113 -7 -69 3 -89 0 -85 -9 3 -7 -3 -15
-12 -18 -9 -3 32 -3 92 0 59 3 106 2 103 -3 -6 -10 168 -11 179 0 4 4 -13 7
-37 8 -38 0 -101 16 -74 18 6 1 3 6 -5 11 -18 11 -18 11 -48 0z"/>
<path d="M10530 13984 c0 -8 3 -14 8 -14 9 0 39 19 32 21 -3 0 -13 2 -22 4
-10 2 -18 -3 -18 -11z"/>
<path d="M10819 13991 c7 -5 10 -14 7 -20 -5 -8 3 -11 23 -9 17 1 31 5 31 9 0
4 10 9 23 12 21 3 21 4 3 12 -13 5 -21 5 -23 -2 -3 -8 -14 -8 -36 -2 -39 11
-46 11 -28 0z"/>
<path d="M10985 13984 c-22 -22 -11 -30 15 -11 12 8 17 18 12 21 -6 3 -18 -1
-27 -10z"/>
<path d="M10238 13963 l5 -28 -20 23 c-21 23 -65 31 -60 11 1 -6 -4 -14 -12
-17 -9 -3 -11 0 -6 8 6 10 1 12 -25 7 -18 -4 -36 -7 -41 -7 -5 0 -9 -6 -9 -14
0 -7 -8 -20 -17 -27 -14 -12 -16 -12 -8 0 6 11 4 13 -8 8 -9 -3 -19 -2 -22 3
-4 6 -1 10 6 10 7 0 10 2 7 5 -3 3 -25 3 -49 -1 -35 -6 -40 -9 -24 -16 13 -5
4 -6 -25 -3 -51 6 -70 -3 -73 -33 -1 -15 -11 -23 -39 -30 -26 -7 -38 -6 -42 2
-3 7 -8 6 -15 -4 -9 -13 -12 -12 -17 8 -7 24 -12 26 -33 13 -7 -5 -10 -14 -7
-20 4 -6 1 -11 -8 -11 -8 0 -16 5 -18 11 -3 9 -13 9 -41 0 -21 -7 -34 -17 -31
-23 4 -6 -1 -8 -14 -4 -11 4 -23 2 -27 -4 -3 -6 -11 -8 -16 -5 -5 4 -9 1 -9
-4 0 -6 -9 -11 -20 -11 -11 0 -20 -4 -20 -9 0 -17 -42 -24 -51 -10 -5 9 -9 9
-9 3 0 -7 -17 -12 -40 -12 -22 -1 -66 -12 -96 -26 -55 -25 -56 -27 -42 -49 11
-15 27 -23 52 -24 20 -1 36 3 36 8 0 6 7 9 15 5 13 -5 80 19 95 34 3 3 16 6
30 8 56 6 130 33 130 48 0 12 9 14 40 10 29 -3 42 0 49 11 4 9 14 13 22 11 8
-3 31 1 52 8 20 7 37 10 37 7 0 -3 8 1 18 10 12 11 34 16 67 15 35 -1 66 5
100 22 31 14 70 24 102 24 29 1 57 6 63 12 7 7 28 10 51 7 30 -4 40 -2 45 11
4 11 11 13 23 6 21 -11 60 -2 81 18 13 13 8 14 -38 10 -37 -4 -57 -1 -67 8
-22 22 -33 16 -27 -13z"/>
<path d="M10400 13960 c0 -11 5 -20 10 -20 6 0 10 9 10 20 0 11 -4 20 -10 20
-5 0 -10 -9 -10 -20z"/>
<path d="M10431 13964 c0 -11 3 -14 6 -6 3 7 2 16 -1 19 -3 4 -6 -2 -5 -13z"/>
<path d="M9220 13680 c0 -5 7 -10 16 -10 8 0 12 5 9 10 -3 6 -10 10 -16 10 -5
0 -9 -4 -9 -10z"/>
<path d="M9160 13672 c0 -4 -15 -6 -32 -4 -47 5 -149 -43 -142 -66 5 -13 4
-14 -4 -3 -8 11 -16 11 -46 0 -20 -7 -36 -17 -36 -21 0 -5 9 -4 19 2 29 15 41
12 41 -10 0 -47 150 -6 170 45 11 28 28 33 36 10 4 -11 10 -12 23 -3 15 9 16
15 7 34 -10 22 -36 34 -36 16z"/>
<path d="M12590 13570 c0 -6 7 -10 15 -10 8 0 15 2 15 4 0 2 -7 6 -15 10 -8 3
-15 1 -15 -4z"/>
<path d="M12640 13550 c8 -5 20 -10 25 -10 6 0 3 5 -5 10 -8 5 -19 10 -25 10
-5 0 -3 -5 5 -10z"/>
<path d="M8825 13540 c-3 -5 -25 -14 -48 -21 -23 -6 -49 -17 -57 -23 -8 -7
-41 -26 -73 -41 -31 -15 -60 -31 -62 -36 -7 -10 -156 -101 -171 -103 -17 -3
-144 -89 -144 -98 0 -4 -6 -8 -14 -8 -7 0 -29 -14 -47 -31 -19 -16 -57 -45
-84 -63 -28 -18 -59 -41 -69 -52 -10 -10 -36 -30 -56 -44 -46 -30 -182 -148
-193 -167 -4 -7 -12 -13 -18 -13 -14 0 -99 -85 -99 -99 0 -7 8 -11 18 -9 11 2
17 -3 16 -14 -1 -13 6 -18 25 -18 18 0 43 17 81 54 49 49 166 147 328 276 69
55 416 286 490 325 28 15 52 32 52 37 0 4 6 8 13 8 7 0 25 6 40 13 20 9 25 18
22 35 -2 12 0 22 4 22 5 0 11 9 14 21 4 16 11 19 26 14 12 -4 21 -2 21 4 0 6
14 11 30 11 17 0 30 5 30 11 0 6 -9 9 -20 6 -11 -3 -20 -1 -20 4 0 12 -27 12
-35 -1z m-48 -56 c-3 -3 -12 -4 -19 -1 -8 3 -5 6 6 6 11 1 17 -2 13 -5z m-307
-169 c0 -2 -10 -10 -22 -16 -21 -11 -22 -11 -9 4 13 16 31 23 31 12z m-260
-185 c0 -5 -7 -7 -15 -4 -8 4 -15 8 -15 10 0 2 7 4 15 4 8 0 15 -4 15 -10z
m-450 -375 c-7 -8 -17 -15 -22 -15 -11 0 14 29 26 30 5 0 3 -7 -4 -15z"/>
<path d="M10495 13230 c-243 -22 -599 -89 -777 -146 -623 -200 -1130 -514
-1608 -993 -257 -258 -396 -425 -567 -681 -254 -381 -451 -840 -578 -1348 -53
-212 -88 -393 -110 -562 -21 -161 -25 -172 -66 -163 -23 4 -30 3 -25 -5 4 -7
18 -12 32 -12 16 0 25 -6 25 -17 3 -33 -2 -148 -7 -166 -5 -16 -7 -16 -34 3
-17 12 -31 16 -35 11 -3 -6 -12 -8 -19 -5 -8 3 -17 1 -21 -5 -11 -19 -22 -12
-22 15 0 20 4 25 18 21 23 -6 54 16 45 31 -11 18 -49 15 -42 -3 3 -9 0 -15
-10 -15 -28 0 -10 35 21 41 17 4 25 7 18 8 -7 0 -10 8 -7 16 3 8 3 18 0 24 -8
12 -61 -2 -61 -17 0 -20 -19 -16 -30 5 -8 16 -14 18 -28 9 -13 -8 -20 -8 -26
3 -9 14 -31 7 -31 -10 0 -6 7 -17 16 -26 8 -9 13 -22 10 -29 -3 -8 -1 -14 4
-14 6 0 10 -7 10 -15 0 -13 18 -20 43 -16 7 1 9 -5 11 -31 1 -17 79 -56 92
-46 6 4 25 5 43 2 l32 -7 -2 -129 c-2 -126 -3 -129 -23 -123 -53 17 -73 17
-80 -1 -8 -20 -5 -23 23 -29 11 -2 31 -11 43 -19 25 -18 17 -21 -13 -6 -11 7
-19 7 -19 1 0 -5 6 -12 13 -14 7 -3 5 -6 -6 -6 -10 -1 -20 6 -23 14 -5 11 -9
12 -19 2 -10 -10 -9 -14 9 -21 11 -5 34 -10 49 -11 42 -4 46 -13 38 -82 -4
-35 -4 -68 1 -75 4 -7 8 -43 8 -79 0 -102 28 -368 56 -539 122 -741 342 -1256
798 -1864 147 -195 420 -511 525 -606 339 -308 780 -567 1222 -718 241 -82
744 -207 963 -240 163 -24 711 -23 890 1 328 45 705 149 1017 283 194 82 716
373 817 454 235 189 229 543 -12 706 -101 68 -237 91 -359 59 -68 -18 -130
-48 -227 -111 -108 -69 -277 -146 -457 -208 -519 -177 -993 -238 -1573 -202
-304 19 -399 36 -609 105 -377 125 -713 299 -1081 559 -273 194 -298 213 -437
355 -208 213 -333 380 -495 661 -283 494 -412 856 -490 1376 -32 214 -31 587
1 820 65 463 201 860 431 1260 334 578 726 1005 1219 1325 129 84 383 220 564
302 226 104 619 228 862 272 441 81 770 80 1362 -5 172 -24 346 -49 387 -54
168 -21 306 39 306 133 0 42 -59 144 -108 188 -54 47 -199 135 -295 178 -239
107 -533 184 -826 217 -162 18 -625 26 -766 14z m-3750 -4110 c3 -5 2 -10 -4
-10 -5 0 -13 5 -16 10 -3 6 -2 10 4 10 5 0 13 -4 16 -10z"/>
<path d="M7666 12712 c-4 -7 -16 -12 -26 -12 -10 0 -28 -12 -39 -27 -21 -29
-26 -34 -61 -67 -24 -23 -26 -46 -5 -46 17 0 19 -12 5 -26 -7 -7 -6 -16 3 -28
12 -16 18 -12 72 45 l59 62 -22 18 c-13 10 -18 20 -12 24 5 3 10 2 10 -3 0
-15 54 -11 73 6 23 20 22 32 -4 32 -12 0 -27 7 -34 17 -8 11 -14 13 -19 5z"/>
<path d="M17150 11985 c0 -11 32 -67 36 -63 6 7 -19 68 -28 68 -4 0 -8 -2 -8
-5z"/>
<path d="M14420 11550 c-9 -6 -10 -10 -3 -10 6 0 15 5 18 10 8 12 4 12 -15 0z"/>
<path d="M14460 11541 c8 -5 29 -11 45 -13 17 -3 24 -3 18 -1 -7 3 -13 9 -13
14 0 5 -15 9 -32 9 -24 -1 -29 -3 -18 -9z"/>
<path d="M14550 11530 c0 -5 5 -10 10 -10 6 0 10 5 10 10 0 6 -4 10 -10 10 -5
0 -10 -4 -10 -10z"/>
<path d="M15380 11252 c0 -14 -5 -20 -14 -16 -19 7 -32 -16 -15 -27 11 -7 10
-11 -6 -23 -11 -9 -15 -16 -9 -16 19 0 49 28 49 47 0 10 6 17 13 16 17 -4 15
12 -3 27 -13 10 -15 9 -15 -8z"/>
<path d="M15419 11223 c-1 -5 -2 -15 -3 -23 0 -8 -14 -21 -31 -29 -16 -8 -24
-16 -17 -19 6 -2 12 -15 12 -28 0 -14 6 -24 14 -24 16 0 30 43 16 48 -6 2 -10
8 -10 14 0 6 7 8 15 4 11 -4 15 1 15 19 0 14 5 25 10 25 6 0 10 5 10 10 0 11
-29 14 -31 3z"/>
<path d="M14800 11190 c-8 -5 -10 -10 -5 -10 6 0 17 5 25 10 8 5 11 10 5 10
-5 0 -17 -5 -25 -10z"/>
<path d="M15352 10980 c-10 -17 -10 -20 4 -20 10 0 14 -5 10 -15 -8 -21 1 -19
13 4 7 13 7 23 -2 35 -11 15 -13 15 -25 -4z"/>
<path d="M15420 10910 c0 -5 5 -10 10 -10 6 0 10 5 10 10 0 6 -4 10 -10 10 -5
0 -10 -4 -10 -10z"/>
<path d="M15350 10890 c0 -5 5 -10 11 -10 5 0 7 5 4 10 -3 6 -8 10 -11 10 -2
0 -4 -4 -4 -10z"/>
<path d="M15865 10820 c-3 -6 1 -7 9 -4 18 7 21 14 7 14 -6 0 -13 -4 -16 -10z"/>
<path d="M14795 10760 c3 -5 8 -10 11 -10 2 0 4 5 4 10 0 6 -5 10 -11 10 -5 0
-7 -4 -4 -10z"/>
<path d="M6855 10690 c-3 -5 -1 -10 4 -10 6 0 11 5 11 10 0 6 -2 10 -4 10 -3
0 -8 -4 -11 -10z"/>
<path d="M15869 10670 c-19 -16 -29 -29 -24 -30 14 0 71 47 64 54 -3 3 -21 -8
-40 -24z"/>
<path d="M6802 10664 c-30 -21 -28 -31 7 -26 17 2 28 10 27 18 -3 22 -11 24
-34 8z"/>
<path d="M15500 10654 c0 -8 5 -12 10 -9 6 4 8 11 5 16 -9 14 -15 11 -15 -7z"/>
<path d="M15025 10630 c11 -35 75 -94 88 -81 6 6 5 14 -5 23 -8 7 -31 29 -52
48 -36 33 -38 34 -31 10z"/>
<path d="M5883 10615 c-19 -21 -16 -27 10 -23 12 2 22 9 22 17 0 20 -18 23
-32 6z"/>
<path d="M6716 10615 c-3 -8 -1 -15 4 -15 13 0 22 18 11 24 -5 3 -11 -1 -15
-9z"/>
<path d="M6646 10604 c-9 -22 -7 -34 3 -31 5 1 9 -2 10 -8 0 -5 -9 -10 -21
-10 -12 0 -23 -6 -26 -14 -3 -8 0 -11 7 -7 6 4 11 0 11 -10 0 -14 -3 -15 -12
-6 -7 7 -19 12 -28 12 -20 0 -23 -58 -4 -78 19 -18 1 -42 -25 -35 -27 7 -34
-12 -17 -44 8 -16 15 -22 16 -15 0 6 5 12 11 12 8 0 6 -7 -3 -22 -17 -25 -64
-37 -54 -13 7 18 -24 21 -42 3 -8 -8 -5 -14 14 -25 15 -7 30 -10 35 -7 5 3 9
0 9 -5 0 -6 7 -11 15 -11 8 0 15 5 15 10 0 6 9 10 19 10 23 0 36 16 21 25 -5
3 -10 17 -10 31 0 22 3 24 30 19 17 -3 30 -1 30 5 0 5 7 10 15 10 13 0 13 3 3
20 -8 12 -20 19 -30 17 -10 -3 -18 3 -21 14 -3 12 0 19 9 19 8 0 14 9 14 19 0
22 16 37 22 21 2 -6 9 -1 16 11 8 12 9 18 3 14 -12 -7 -15 17 -4 29 12 12 12
40 0 48 -18 11 -24 10 -31 -8z"/>
<path d="M15765 10610 c4 -6 11 -8 16 -5 14 9 11 15 -7 15 -8 0 -12 -5 -9 -10z"/>
<path d="M5927 10561 c-35 -23 -18 -42 31 -34 26 5 34 3 30 -7 -2 -8 -13 -18
-24 -24 -10 -6 -21 -12 -23 -13 -2 -1 4 -9 13 -18 13 -13 16 -14 16 -2 0 7 6
14 13 14 6 0 19 4 28 7 10 5 20 -2 29 -19 7 -14 17 -25 22 -25 4 0 8 -5 8 -11
0 -6 7 -17 15 -25 16 -16 12 -80 -7 -116 -7 -15 -4 -17 22 -15 23 1 32 8 36
24 6 21 7 21 22 6 12 -12 17 -13 20 -3 3 7 -3 19 -13 26 -10 7 -15 20 -11 31
4 13 -5 25 -29 43 -19 14 -37 34 -41 45 -10 31 -44 64 -60 58 -17 -6 -18 9 -3
24 8 8 1 17 -28 32 -38 19 -41 19 -66 2z"/>
<path d="M6740 10549 c0 -5 5 -7 10 -4 6 3 10 8 10 11 0 2 -4 4 -10 4 -5 0
-10 -5 -10 -11z"/>
<path d="M15798 10519 c-35 -37 -23 -37 22 1 19 17 28 29 20 29 -8 -1 -27 -14
-42 -30z"/>
<path d="M15140 10480 c0 -5 5 -10 10 -10 6 0 10 5 10 10 0 6 -4 10 -10 10 -5
0 -10 -4 -10 -10z"/>
<path d="M15725 10480 c-16 -7 -17 -9 -3 -9 9 -1 20 4 23 9 7 11 7 11 -20 0z"/>
<path d="M15161 10447 c-11 -14 -5 -27 11 -27 5 0 6 5 2 11 -3 6 0 15 7 20 8
5 9 9 3 9 -6 0 -17 -6 -23 -13z"/>
<path d="M15046 10425 c-3 -9 0 -15 9 -15 9 0 12 6 9 15 -4 8 -7 15 -9 15 -2
0 -5 -7 -9 -15z"/>
<path d="M6475 10400 c-3 -5 1 -10 9 -10 9 0 16 5 16 10 0 6 -4 10 -9 10 -6 0
-13 -4 -16 -10z"/>
<path d="M14805 10341 c-3 -5 -1 -12 5 -16 5 -3 10 1 10 9 0 18 -6 21 -15 7z"/>
<path d="M5797 10304 c3 -7 -5 -25 -16 -40 -27 -35 -26 -42 6 -55 29 -11 46 2
36 28 -4 9 0 11 12 7 17 -7 17 -6 0 19 -10 16 -13 27 -6 27 6 0 11 6 11 14 0
8 -10 14 -24 14 -16 0 -23 -5 -19 -14z"/>
<path d="M6459 10258 c-16 -18 -29 -28 -29 -22 0 21 -38 12 -49 -12 -15 -34
-15 -35 15 -23 32 12 35 10 27 -20 -4 -16 -11 -21 -24 -18 -10 3 -26 -1 -36
-9 -10 -7 -13 -14 -6 -14 7 0 10 -7 7 -15 -3 -8 -11 -13 -17 -12 -15 3 -21
-34 -7 -43 7 -4 15 -28 17 -54 3 -26 10 -49 14 -52 15 -9 22 25 10 40 -8 10
-9 16 -1 21 5 3 10 1 10 -4 0 -6 10 -11 23 -11 17 0 19 2 8 9 -23 15 5 44 29
31 16 -9 22 -2 45 45 15 29 32 56 38 58 9 3 9 8 0 18 -18 19 -16 28 10 39 19
7 16 9 -18 10 -33 1 -36 3 -19 10 26 10 36 34 21 49 -18 18 -37 13 -68 -21z"/>
<path d="M15260 10269 c0 -5 5 -7 10 -4 6 3 10 8 10 11 0 2 -4 4 -10 4 -5 0
-10 -5 -10 -11z"/>
<path d="M14760 10213 c0 -11 12 -26 35 -43 17 -13 16 -11 -4 18 -22 32 -31
39 -31 25z"/>
<path d="M14820 10211 c0 -5 9 -19 21 -32 11 -13 18 -17 15 -9 -3 8 -9 23 -12
33 -7 18 -24 24 -24 8z"/>
<path d="M15194 10166 c4 -33 11 -40 29 -29 12 7 10 12 -9 32 l-23 24 3 -27z"/>
<path d="M13460 10089 c-58 -5 -115 -13 -127 -19 -33 -14 -28 -37 10 -49 44
-14 354 -16 395 -3 18 6 36 11 40 11 4 1 22 6 40 12 39 13 40 39 2 50 -34 9
-231 8 -360 -2z"/>
<path d="M13291 10044 c0 -11 3 -14 6 -6 3 7 2 16 -1 19 -3 4 -6 -2 -5 -13z"/>
<path d="M15650 10004 c0 -8 5 -12 10 -9 6 3 10 10 10 16 0 5 -4 9 -10 9 -5 0
-10 -7 -10 -16z"/>
<path d="M5970 9970 c0 -24 15 -27 24 -4 9 22 8 24 -9 24 -8 0 -15 -9 -15 -20z"/>
<path d="M6435 9950 c-8 -13 -1 -24 14 -19 6 3 7 10 2 18 -6 10 -10 10 -16 1z"/>
<path d="M6323 9875 l-20 -54 20 -18 c15 -14 19 -15 15 -3 -3 8 -1 24 5 35 13
26 19 95 8 95 -4 0 -17 -25 -28 -55z"/>
<path d="M6620 9915 c-8 -9 -8 -15 -2 -15 12 0 26 19 19 26 -2 2 -10 -2 -17
-11z"/>
<path d="M15710 9876 c0 -2 7 -7 16 -10 8 -3 12 -2 9 4 -6 10 -25 14 -25 6z"/>
<path d="M5927 9828 c-6 -23 8 -58 23 -58 6 0 10 18 10 40 0 44 -23 57 -33 18z"/>
<path d="M15611 9790 c1 -24 15 -54 21 -44 4 5 0 20 -8 34 -7 14 -13 18 -13
10z"/>
<path d="M15604 9714 c3 -9 6 -18 6 -20 0 -2 7 -4 15 -4 20 0 19 26 -1 34 -24
9 -27 8 -20 -10z"/>
<path d="M5485 9620 c3 -5 11 -10 16 -10 6 0 7 5 4 10 -3 6 -11 10 -16 10 -6
0 -7 -4 -4 -10z"/>
<path d="M5675 9610 c-3 -5 -2 -10 4 -10 5 0 13 5 16 10 3 6 2 10 -4 10 -5 0
-13 -4 -16 -10z"/>
<path d="M5550 9600 c0 -5 7 -10 15 -10 8 0 15 5 15 10 0 6 -7 10 -15 10 -8 0
-15 -4 -15 -10z"/>
<path d="M5637 9585 c3 -8 9 -12 14 -9 12 7 11 11 -5 17 -10 4 -13 1 -9 -8z"/>
<path d="M5758 9583 c-10 -2 -18 -9 -18 -14 0 -6 5 -7 10 -4 11 7 14 -8 4 -18
-4 -3 -14 4 -24 16 l-18 22 -28 -28 c-27 -28 -27 -50 1 -27 8 7 15 9 16 4 0
-5 2 -17 4 -27 3 -14 -1 -16 -17 -11 -14 4 -18 2 -14 -5 4 -6 14 -11 22 -11 8
0 14 -7 14 -15 0 -17 16 -21 22 -5 4 12 48 1 48 -12 0 -5 -4 -7 -8 -4 -4 2
-14 1 -22 -4 -12 -7 -12 -12 -2 -22 9 -9 12 -9 12 1 0 7 5 9 11 6 6 -4 8 -13
5 -21 -3 -9 1 -14 13 -14 12 0 18 -7 17 -17 -1 -12 7 -19 24 -21 29 -5 52 -21
45 -33 -3 -4 4 -13 15 -19 11 -6 20 -18 20 -26 0 -8 5 -12 10 -9 6 3 10 1 10
-4 0 -10 -29 -16 -52 -12 -16 2 -7 -17 15 -33 22 -15 22 -16 2 -30 -11 -9 -27
-21 -35 -28 -8 -7 -16 -12 -17 -10 -2 1 -10 2 -18 2 -19 0 -20 -34 -1 -49 12
-10 17 -8 26 9 6 11 15 18 21 15 5 -4 9 3 9 15 0 17 3 19 19 11 14 -8 20 -7
25 4 3 8 9 14 13 13 4 -1 23 7 41 19 28 17 30 22 18 32 -8 7 -19 10 -25 7 -5
-3 -7 3 -4 15 4 13 12 19 22 16 13 -3 16 3 16 32 -1 40 -12 64 -26 56 -5 -4
-9 -1 -9 6 0 10 -3 10 -12 1 -9 -9 -16 -8 -30 5 -18 16 -18 16 -12 -3 6 -16 4
-16 -19 5 -31 28 -33 33 -12 25 9 -4 15 0 15 9 0 9 7 20 15 25 9 4 17 18 20
31 5 27 -12 64 -26 56 -5 -4 -9 1 -9 9 0 21 -39 16 -46 -7 -3 -11 -1 -24 4
-29 12 -12 5 -38 -10 -38 -5 0 -8 10 -6 21 2 15 -4 24 -19 30 -18 6 -23 5 -23
-7 0 -9 5 -12 12 -8 8 5 9 2 5 -10 -4 -10 -7 -20 -7 -23 0 -2 -12 10 -27 28
-19 22 -24 34 -15 37 7 2 10 8 6 13 -3 5 2 9 11 9 10 0 13 5 9 12 -5 8 -2 9
11 4 14 -5 15 -3 7 6 -6 7 -10 18 -11 23 0 12 -18 15 -43 8z m162 -117 c-7 -7
-14 -6 -22 2 -10 10 -10 15 2 22 17 11 34 -10 20 -24z m68 -172 c-10 -10 -28
6 -28 24 0 15 1 15 17 -1 9 -9 14 -19 11 -23z m-38 6 c0 -5 -4 -10 -10 -10 -5
0 -10 5 -10 10 0 6 5 10 10 10 6 0 10 -4 10 -10z m-3 -72 c-3 -8 -6 -5 -6 6
-1 11 2 17 5 13 3 -3 4 -12 1 -19z"/>
<path d="M5605 9570 c4 -6 11 -8 16 -5 14 9 11 15 -7 15 -8 0 -12 -5 -9 -10z"/>
<path d="M13298 9472 c-20 -2 -42 -9 -48 -17 -6 -8 -17 -12 -24 -9 -16 6 -29
-23 -15 -31 5 -4 9 -3 8 2 -4 22 3 23 19 4 27 -34 118 -42 417 -39 216 2 276
6 299 18 41 21 43 36 6 55 -26 14 -77 16 -328 18 -163 1 -314 1 -334 -1z"/>
<path d="M6455 9461 c-3 -5 -1 -12 4 -15 5 -3 11 1 15 9 6 16 -9 21 -19 6z"/>
<path d="M15626 9403 c-6 -14 -5 -15 5 -6 7 7 10 15 7 18 -3 3 -9 -2 -12 -12z"/>
<path d="M15293 9389 c-1 -12 3 -16 13 -12 18 6 18 19 1 26 -7 3 -13 -3 -14
-14z"/>
<path d="M6570 9370 c0 -5 7 -10 16 -10 8 0 12 5 9 10 -3 6 -10 10 -16 10 -5
0 -9 -4 -9 -10z"/>
<path d="M6630 9330 c0 -5 5 -10 11 -10 5 0 7 5 4 10 -3 6 -8 10 -11 10 -2 0
-4 -4 -4 -10z"/>
<path d="M6658 9305 c-6 -30 7 -33 22 -6 13 26 13 31 -4 31 -7 0 -16 -11 -18
-25z"/>
<path d="M5800 9298 c0 -6 3 -8 7 -5 3 4 13 1 22 -6 14 -11 14 -10 2 6 -15 20
-31 22 -31 5z"/>
<path d="M5780 9283 c0 -13 5 -23 10 -23 13 0 13 11 0 30 -8 12 -10 11 -10 -7z"/>
<path d="M15821 9274 c0 -11 3 -14 6 -6 3 7 2 16 -1 19 -3 4 -6 -2 -5 -13z"/>
<path d="M5824 9238 c-4 -15 -1 -26 12 -35 9 -7 20 -10 23 -7 3 3 -2 10 -12
15 -21 12 -23 31 -2 23 8 -4 15 -2 15 4 0 21 -29 21 -36 0z"/>
<path d="M6540 9231 c0 -6 5 -13 10 -16 6 -3 10 1 10 9 0 9 -4 16 -10 16 -5 0
-10 -4 -10 -9z"/>
<path d="M6504 9165 c-25 -27 -21 -35 15 -35 19 0 22 3 13 12 -18 18 -15 27 7
21 11 -3 21 2 24 11 10 26 -35 19 -59 -9z"/>
<path d="M6605 9140 c-3 -5 -1 -10 4 -10 6 0 11 5 11 10 0 6 -2 10 -4 10 -3 0
-8 -4 -11 -10z"/>
<path d="M6555 9130 c-3 -5 3 -10 14 -10 12 0 21 5 21 10 0 6 -6 10 -14 10 -8
0 -18 -4 -21 -10z"/>
<path d="M14952 9113 c-19 -4 -23 -9 -17 -26 4 -12 7 -30 7 -39 -1 -9 6 -22
14 -29 8 -6 14 -18 14 -26 0 -8 5 -11 11 -8 6 4 8 12 6 19 -3 6 2 21 10 31 15
20 15 19 9 -2 -4 -12 -2 -24 4 -28 8 -5 8 -11 -1 -21 -9 -12 -9 -13 3 -9 11 5
33 -22 79 -97 35 -57 70 -116 78 -133 20 -41 19 -41 39 -19 18 18 18 21 -21
94 -21 41 -45 82 -52 90 -8 9 -28 36 -44 60 -24 35 -27 46 -16 48 9 2 13 8 9
13 -3 5 -2 9 3 8 23 -4 25 3 5 17 -26 18 -49 10 -31 -12 27 -32 -6 -11 -44 29
-32 33 -48 43 -65 40z m28 -49 c0 -8 -4 -14 -10 -14 -5 0 -10 9 -10 21 0 11 5
17 10 14 6 -3 10 -13 10 -21z"/>
<path d="M6558 9103 c7 -3 16 -2 19 1 4 3 -2 6 -13 5 -11 0 -14 -3 -6 -6z"/>
<path d="M5872 9054 c3 -17 21 -21 26 -6 1 5 -4 12 -13 16 -11 4 -15 1 -13
-10z"/>
<path d="M5918 9034 c10 -20 41 -51 43 -43 7 34 5 39 -10 39 -9 0 -23 6 -30
13 -11 10 -12 8 -3 -9z"/>
<path d="M15100 9011 c0 -24 18 -37 32 -23 8 8 7 16 -2 27 -17 21 -30 19 -30
-4z"/>
<path d="M6295 8970 c-3 -5 -1 -10 4 -10 6 0 11 5 11 10 0 6 -2 10 -4 10 -3 0
-8 -4 -11 -10z"/>
<path d="M15138 8968 c-5 -11 -1 -22 11 -30 23 -16 66 -87 58 -95 -4 -3 5 -15
19 -26 18 -14 24 -27 21 -43 -2 -13 -1 -21 3 -19 5 3 10 -2 14 -10 3 -8 1 -15
-4 -15 -5 0 -7 -7 -4 -15 7 -18 -12 -20 -20 -2 -3 6 -3 -1 0 -18 l5 -30 -15
25 c-25 40 -19 0 8 -56 13 -27 28 -68 35 -90 11 -41 34 -63 46 -43 4 5 11 7
16 4 16 -11 10 -23 -16 -29 l-25 -6 21 -21 21 -21 19 21 c21 22 25 46 9 56 -5
3 -10 13 -10 21 0 8 5 12 10 9 14 -9 12 10 -6 74 -24 80 -42 118 -59 125 -8 3
-15 15 -15 26 0 12 -10 31 -23 44 -12 12 -23 33 -24 45 -1 13 -11 29 -21 37
-11 7 -23 25 -26 39 -4 14 -13 25 -20 25 -8 0 -16 8 -18 18 -3 16 -4 16 -10 0z
m161 -270 c-5 -10 -8 -22 -5 -26 12 -20 14 -63 3 -59 -7 3 -11 10 -9 16 1 6
-4 11 -10 11 -15 0 -20 50 -7 66 5 6 15 11 23 11 11 0 13 -5 5 -19z"/>
<path d="M5626 8945 c4 -8 10 -12 15 -9 5 3 9 0 9 -5 0 -6 -7 -11 -16 -11 -14
0 -15 -8 -9 -47 9 -62 26 -92 24 -43 -2 65 -1 67 43 78 38 10 78 3 78 -14 0
-3 -4 -2 -10 1 -11 7 -13 -6 -4 -29 3 -9 15 -16 25 -16 10 0 34 -9 54 -20 42
-24 45 -24 45 -7 0 14 -44 57 -59 57 -4 0 -16 10 -27 22 -13 15 -14 18 -3 10
14 -10 18 -10 22 2 6 15 -25 32 -41 22 -5 -3 -26 1 -48 9 -54 20 -105 20 -98
0z m174 -76 c0 -5 -4 -9 -10 -9 -5 0 -10 7 -10 16 0 8 5 12 10 9 6 -3 10 -10
10 -16z"/>
<path d="M5797 8949 c7 -7 15 -10 18 -7 3 3 -2 9 -12 12 -14 6 -15 5 -6 -5z"/>
<path d="M6600 8927 c-8 -7 -15 -19 -15 -27 0 -8 -9 -16 -19 -18 -14 -3 -17 0
-13 12 4 9 2 16 -2 16 -5 0 -11 -7 -15 -15 -3 -8 -14 -15 -25 -15 -10 0 -21 7
-25 15 -3 8 -17 15 -30 15 -28 0 -58 -34 -49 -56 3 -8 1 -14 -5 -14 -5 0 -12
10 -15 22 l-6 21 -25 -24 c-29 -28 -27 -36 4 -19 20 11 21 9 18 -17 -3 -26 -6
-28 -41 -25 -25 2 -37 -1 -32 -7 3 -6 12 -11 18 -11 7 0 20 -9 30 -20 16 -19
16 -23 2 -50 -9 -17 -19 -29 -23 -28 -4 0 -22 -5 -40 -12 -22 -8 -31 -17 -28
-27 3 -8 6 -27 7 -41 0 -26 1 -26 9 -4 5 12 14 22 19 22 17 0 22 -19 11 -41
-7 -11 -9 -23 -6 -26 3 -3 14 14 24 38 27 62 71 112 94 106 20 -6 34 8 18 18
-19 12 -11 51 15 65 14 7 25 17 25 22 0 5 6 6 13 2 9 -5 9 -4 1 5 -9 10 -16
10 -33 -1 -11 -7 -21 -16 -21 -20 0 -5 -9 -8 -19 -8 -11 0 -23 -4 -26 -10 -3
-5 -11 -10 -16 -10 -5 0 -2 11 7 25 9 14 19 23 23 21 16 -9 46 13 46 35 0 21
5 24 43 26 29 1 42 -2 42 -11 0 -8 14 -16 31 -20 25 -5 29 -10 24 -25 -5 -16
-2 -19 15 -18 11 1 20 8 20 17 0 20 43 45 59 36 14 -9 14 0 -1 23 -11 18 -13
18 -25 3 -12 -16 -13 -15 -11 3 1 11 -1 26 -5 33 -6 8 0 12 19 12 36 0 28 6
-16 13 -20 3 -42 0 -50 -6z m24 -29 c-3 -4 -9 -8 -15 -8 -5 0 -9 4 -9 8 0 5 7
9 15 9 8 0 12 -4 9 -9z m-294 -248 c0 -5 -4 -10 -10 -10 -5 0 -10 5 -10 10 0
6 5 10 10 10 6 0 10 -4 10 -10z"/>
<path d="M5590 8914 c0 -8 5 -12 10 -9 6 4 8 11 5 16 -9 14 -15 11 -15 -7z"/>
<path d="M15028 8918 c7 -7 12 -21 12 -31 0 -10 9 -21 19 -24 11 -3 17 -11 15
-18 -3 -7 -1 -16 5 -20 27 -16 -6 80 -33 97 -18 12 -31 9 -18 -4z"/>
<path d="M15395 8910 c-3 -5 -2 -10 4 -10 5 0 13 5 16 10 3 6 2 10 -4 10 -5 0
-13 -4 -16 -10z"/>
<path d="M6255 8900 c-4 -6 -11 -7 -17 -4 -7 4 -8 2 -4 -5 6 -8 12 -9 20 -2 7
6 17 7 21 3 5 -4 5 -1 1 6 -9 15 -13 15 -21 2z"/>
<path d="M6290 8885 c0 -8 5 -15 10 -15 6 0 10 7 10 15 0 8 -4 15 -10 15 -5 0
-10 -7 -10 -15z"/>
<path d="M6746 8887 c3 -10 9 -15 12 -12 3 3 0 11 -7 18 -10 9 -11 8 -5 -6z"/>
<path d="M5705 8861 c-12 -5 -20 -17 -20 -32 0 -17 -9 -28 -33 -39 -25 -12
-30 -18 -20 -28 16 -16 28 -15 28 2 0 8 7 17 16 20 22 9 24 8 24 -9 0 -8 4
-15 8 -15 18 0 21 14 7 46 -12 28 -11 32 1 27 9 -3 14 2 14 16 0 12 -1 21 -2
20 -2 0 -12 -4 -23 -8z"/>
<path d="M5661 8844 c0 -11 3 -14 6 -6 3 7 2 16 -1 19 -3 4 -6 -2 -5 -13z"/>
<path d="M6510 8811 c0 -17 18 -21 24 -6 3 9 0 15 -9 15 -8 0 -15 -4 -15 -9z"/>
<path d="M6660 8785 c0 -8 5 -15 10 -15 6 0 10 7 10 15 0 8 -4 15 -10 15 -5 0
-10 -7 -10 -15z"/>
<path d="M5579 8781 c7 -5 10 -14 7 -20 -4 -6 -3 -11 2 -11 17 0 21 28 6 34
-23 9 -31 7 -15 -3z"/>
<path d="M6285 8770 c-4 -6 -4 -14 -1 -17 3 -3 1 -12 -5 -19 -14 -18 1 -22 39
-12 37 10 41 24 10 34 -13 4 -26 11 -29 16 -4 6 -9 6 -14 -2z"/>
<path d="M5517 8755 c-16 -15 -11 -59 5 -49 5 3 15 -2 23 -12 13 -18 14 -17
24 9 14 36 14 37 -4 37 -8 0 -15 7 -15 15 0 19 -14 19 -33 0z"/>
<path d="M15720 8670 c13 -8 13 -10 -2 -10 -9 0 -23 -13 -32 -30 -8 -16 -10
-30 -5 -30 6 0 8 -4 5 -8 -2 -4 4 -9 15 -9 22 -2 39 31 39 73 0 16 -6 24 -17
24 -15 0 -16 -2 -3 -10z m0 -60 c0 -5 -5 -10 -11 -10 -5 0 -7 5 -4 10 3 6 8
10 11 10 2 0 4 -4 4 -10z"/>
<path d="M5707 8576 c6 -31 44 -58 64 -45 20 12 23 11 36 -11 11 -16 10 -18
-2 -14 -8 4 -15 2 -15 -4 0 -19 12 -42 22 -42 5 0 7 4 4 9 -3 4 3 16 13 25 13
12 21 14 26 6 4 -6 17 -15 29 -20 20 -8 20 -9 -4 -10 -31 0 -45 -10 -46 -31
-1 -12 4 -15 18 -11 11 3 24 -1 30 -9 8 -11 11 -11 15 -1 4 10 9 9 24 -4 18
-16 19 -16 19 4 0 25 10 28 28 10 9 -9 12 -9 12 0 0 19 29 14 42 -8 15 -24 28
-26 28 -4 0 8 -4 13 -8 10 -5 -3 -24 11 -42 30 -26 28 -39 35 -58 31 -35 -7
-52 1 -52 24 0 19 -34 44 -49 34 -5 -3 -19 7 -30 22 -17 24 -22 26 -31 13 -5
-8 -10 -10 -10 -5 0 6 -8 11 -17 11 -10 1 -25 4 -34 8 -13 6 -16 2 -12 -18z"/>
<path d="M6601 8581 c-30 -10 -59 -25 -65 -33 -6 -9 -26 -19 -44 -22 -40 -9
-44 -16 -26 -41 14 -19 16 -19 44 -3 23 13 30 14 30 4 0 -17 27 -29 35 -16 3
5 1 18 -5 29 -14 27 -13 34 6 27 18 -7 57 21 49 35 -3 4 8 10 25 14 33 7 51
26 23 24 -10 -1 -42 -9 -72 -18z m-31 -31 c0 -5 -7 -10 -16 -10 -8 0 -12 5 -9
10 3 6 10 10 16 10 5 0 9 -4 9 -10z"/>
<path d="M5766 8434 c-5 -12 -2 -15 10 -10 8 3 18 6 20 6 3 0 2 5 -1 10 -9 15
-22 12 -29 -6z"/>
<path d="M6460 8443 c0 -7 -6 -12 -12 -10 -8 1 -12 -6 -10 -18 2 -15 0 -16 -6
-7 -14 20 -52 -6 -52 -35 0 -12 -8 -26 -17 -32 -10 -5 -14 -13 -10 -17 5 -5
12 -2 16 5 7 10 12 8 24 -9 10 -15 17 -18 22 -10 5 8 22 10 49 7 22 -3 34 -3
26 0 -8 3 -25 17 -37 32 -12 14 -22 20 -23 14 0 -20 -27 -15 -32 5 -5 16 1 19
38 19 29 1 44 -4 44 -12 0 -15 51 -27 64 -15 5 6 -4 17 -22 27 -18 10 -32 21
-32 24 0 12 -29 43 -30 32z"/>
<path d="M5805 8380 c-4 -6 -11 -7 -17 -4 -7 4 -8 2 -4 -4 10 -17 36 -15 36 3
0 17 -6 19 -15 5z"/>
<path d="M15370 8380 c0 -5 5 -10 10 -10 6 0 10 5 10 10 0 6 -4 10 -10 10 -5
0 -10 -4 -10 -10z"/>
<path d="M6438 8265 c-6 -13 -20 -25 -32 -27 -27 -4 -54 -57 -36 -68 7 -5 18
-6 25 -4 6 3 18 -2 25 -10 7 -9 16 -13 21 -10 5 3 9 -2 9 -10 0 -9 5 -16 11
-16 6 0 9 7 5 15 -3 8 0 18 7 22 7 5 12 15 12 23 0 22 -24 34 -41 19 -11 -9
-18 -9 -26 -1 -8 8 -1 12 25 17 24 5 37 13 41 28 9 32 8 34 -15 40 -15 4 -23
-1 -31 -18z"/>
<path d="M6507 8273 c-4 -3 -7 -11 -7 -17 0 -6 5 -5 12 2 6 6 9 14 7 17 -3 3
-9 2 -12 -2z"/>
<path d="M5864 8239 c-3 -5 0 -9 5 -9 6 0 11 -7 11 -15 0 -8 5 -15 11 -15 5 0
8 4 4 9 -3 5 4 11 16 13 19 3 17 5 -10 15 -18 6 -33 7 -37 2z"/>
<path d="M15158 8181 c-19 -18 -18 -65 0 -83 7 -7 12 -15 12 -19 0 -11 -42 -7
-57 4 -18 13 -16 -5 2 -29 13 -16 16 -17 25 -4 8 12 10 11 10 -8 0 -13 -3 -21
-7 -19 -5 3 -8 -6 -8 -19 0 -13 5 -24 12 -24 7 0 19 -12 26 -26 9 -17 17 -23
21 -15 4 6 18 8 32 5 17 -4 24 -2 24 9 0 8 7 20 15 27 9 7 13 15 11 18 -3 2
-1 13 5 23 11 22 -9 27 -29 7 -9 -9 -12 -8 -12 5 0 10 -8 17 -18 17 -18 0 -42
18 -42 32 0 4 6 5 13 2 7 -2 24 -1 36 4 21 7 22 10 8 23 -8 8 -17 24 -21 36
-4 11 -14 27 -24 35 -15 14 -19 14 -34 -1z"/>
<path d="M6391 8134 c-1 -7 -10 -14 -21 -17 -13 -3 -20 -14 -20 -29 0 -17 6
-24 20 -24 11 0 20 6 20 12 0 7 4 14 8 16 5 2 5 14 1 28 -4 14 -7 20 -8 14z"/>
<path d="M6435 8110 c-6 -9 1 -14 18 -11 4 0 7 -3 7 -9 0 -5 -7 -10 -15 -10
-17 0 -20 -16 -5 -25 6 -3 10 -1 10 4 0 6 11 11 25 11 14 0 25 4 25 10 0 15
-58 42 -65 30z"/>
<path d="M15280 8080 c0 -5 7 -10 15 -10 8 0 15 5 15 10 0 6 -7 10 -15 10 -8
0 -15 -4 -15 -10z"/>
<path d="M15305 7996 c0 -23 -5 -39 -17 -48 -10 -7 -18 -18 -18 -24 0 -7 -18
-15 -40 -19 -37 -6 -39 -9 -33 -32 4 -19 1 -30 -12 -39 -19 -14 -11 -38 10
-30 7 2 16 -3 20 -12 6 -14 9 -13 18 8 5 14 9 32 8 41 -1 9 5 22 14 29 8 7 15
19 15 26 0 8 14 17 30 21 30 6 31 7 28 56 -3 57 -25 78 -23 23z"/>
<path d="M14900 7880 c0 -5 5 -10 10 -10 6 0 10 5 10 10 0 6 -4 10 -10 10 -5
0 -10 -4 -10 -10z"/>
<path d="M14950 7832 c0 -5 7 -16 16 -23 14 -12 16 -11 13 5 -4 20 -29 35 -29
18z"/>
<path d="M14890 7773 c1 -18 28 -55 33 -46 10 15 -4 53 -19 53 -8 0 -14 -3
-14 -7z"/>
<path d="M15080 7530 c0 -5 5 -10 10 -10 6 0 10 5 10 10 0 6 -4 10 -10 10 -5
0 -10 -4 -10 -10z"/>
<path d="M15830 7525 c0 -11 41 -45 54 -45 23 0 27 29 6 40 -19 10 -60 14 -60
5z"/>
<path d="M14640 7456 c0 -2 7 -7 16 -10 8 -3 12 -2 9 4 -6 10 -25 14 -25 6z"/>
<path d="M14605 7403 c3 -8 5 -22 5 -30 0 -9 3 -13 7 -10 3 4 12 2 19 -4 19
-15 38 -1 23 17 -6 7 -9 20 -6 27 4 10 -4 14 -24 14 -22 0 -28 -4 -24 -14z"/>
<path d="M14542 7398 c6 -18 28 -21 28 -4 0 9 -7 16 -16 16 -9 0 -14 -5 -12
-12z"/>
<path d="M15135 7400 c-3 -5 -1 -10 4 -10 6 0 11 5 11 10 0 6 -2 10 -4 10 -3
0 -8 -4 -11 -10z"/>
<path d="M15160 7370 c0 -13 6 -20 18 -19 9 0 12 3 5 5 -7 3 -9 12 -6 20 3 8
0 14 -6 14 -6 0 -11 -9 -11 -20z"/>
<path d="M14496 7361 c-4 -7 -5 -15 -2 -18 9 -9 19 4 14 18 -4 11 -6 11 -12 0z"/>
<path d="M14674 7336 c-8 -22 3 -33 18 -18 9 9 9 15 0 24 -9 9 -13 7 -18 -6z"/>
<path d="M14806 7152 c-2 -4 4 -9 15 -9 10 -1 19 2 19 8 0 11 -27 12 -34 1z"/>
<path d="M15295 7140 c3 -5 11 -10 16 -10 6 0 7 5 4 10 -3 6 -11 10 -16 10 -6
0 -7 -4 -4 -10z"/>
<path d="M14881 7054 c0 -11 3 -14 6 -6 3 7 2 16 -1 19 -3 4 -6 -2 -5 -13z"/>
<path d="M14366 7022 c-9 -15 9 -57 24 -57 9 0 14 -8 13 -21 -2 -17 3 -21 22
-21 17 0 24 4 23 14 -2 9 7 19 20 24 21 8 21 7 11 -13 -8 -16 -8 -22 2 -29 7
-4 19 -3 25 2 18 14 46 -18 38 -43 -4 -13 -2 -18 4 -14 9 5 18 -12 20 -38 1
-17 34 -29 42 -16 5 8 10 9 14 1 4 -5 1 -19 -5 -29 -7 -11 -9 -27 -4 -38 5
-13 9 -15 12 -6 10 26 25 11 20 -18 -5 -22 -3 -30 7 -30 8 0 16 -7 20 -15 6
-18 36 -9 36 11 0 8 -11 19 -25 24 -16 6 -25 17 -25 32 l0 22 20 -22 c29 -31
76 -29 63 3 -2 8 -10 13 -16 11 -7 -1 -9 -1 -4 1 4 3 7 13 7 22 0 14 -6 17
-25 13 -29 -5 -33 5 -9 23 15 11 15 14 0 43 -9 18 -16 35 -17 39 0 5 -13 7
-30 6 -16 -1 -27 2 -24 7 3 4 -2 10 -10 14 -22 8 -18 44 5 58 31 20 24 29 -17
24 -21 -3 -40 -5 -43 -6 -3 -2 -9 -2 -13 -1 -4 1 -10 -5 -13 -14 -5 -11 -12
-7 -31 15 -22 26 -31 30 -78 30 -30 0 -56 -4 -59 -8z"/>
<path d="M15440 7001 c0 -10 42 -23 49 -16 7 7 -4 15 -28 20 -11 2 -21 0 -21
-4z"/>
<path d="M15403 6964 c-6 -15 20 -46 47 -57 10 -3 11 -6 3 -6 -14 -1 -18 -30
-5 -32 4 -1 31 -3 61 -4 30 -2 57 -8 60 -13 3 -5 19 -12 36 -15 l30 -5 -30 25
c-25 22 -26 25 -7 19 16 -6 22 -3 22 8 0 9 -4 16 -10 16 -5 0 -9 3 -9 8 4 22
-2 62 -9 62 -4 0 -12 -10 -17 -22 -11 -25 -35 -36 -35 -17 0 7 7 21 17 31 15
17 15 18 -5 18 -17 0 -22 -6 -22 -25 0 -14 -6 -25 -13 -25 -21 0 -78 31 -73
39 3 4 -4 8 -15 8 -11 1 -23 -5 -26 -13z"/>
<path d="M14940 6941 c0 -5 5 -13 10 -16 6 -3 10 -2 10 4 0 5 -4 13 -10 16 -5
3 -10 2 -10 -4z"/>
<path d="M14500 6889 c0 -6 -5 -7 -12 -3 -6 4 -8 3 -5 -3 7 -11 57 -5 57 6 0
4 -9 7 -20 8 -11 1 -20 -3 -20 -8z"/>
<path d="M14521 6841 c-1 -24 2 -32 9 -25 7 7 7 19 1 35 -9 23 -10 22 -10 -10z"/>
<path d="M14913 6757 c3 -9 1 -17 -5 -19 -13 -5 -3 -38 11 -38 13 0 11 59 -2
67 -6 4 -8 0 -4 -10z"/>
<path d="M14582 6709 c2 -7 10 -15 17 -17 8 -3 12 1 9 9 -2 7 -10 15 -17 17
-8 3 -12 -1 -9 -9z"/>
<path d="M15476 6653 c-6 -14 -5 -15 5 -6 7 7 10 15 7 18 -3 3 -9 -2 -12 -12z"/>
<path d="M14640 6635 c0 -16 6 -25 16 -25 11 0 14 5 10 16 -3 9 -6 20 -6 25 0
5 -4 9 -10 9 -5 0 -10 -11 -10 -25z"/>
<path d="M15332 6637 c-7 -8 -6 -18 4 -32 8 -10 11 -27 8 -38 -5 -16 -3 -17
15 -8 27 15 26 25 -1 51 -19 17 -19 20 -4 20 9 0 14 5 11 10 -8 14 -20 13 -33
-3z"/>
<path d="M15440 6618 c0 -6 -7 -20 -17 -30 -10 -11 -12 -18 -4 -18 6 0 14 7
17 15 3 8 14 17 25 20 25 8 24 25 -1 25 -11 0 -20 -5 -20 -12z"/>
<path d="M15289 6602 c-15 -18 -14 -19 19 -20 34 -1 34 -1 17 18 -22 24 -17
24 -36 2z"/>
<path d="M14641 6595 c0 -11 34 -55 43 -55 3 0 6 7 6 15 0 8 -7 15 -15 15 -7
0 -19 8 -24 18 -6 9 -10 13 -10 7z"/>
<path d="M14355 6534 c-14 -21 -14 -24 0 -24 21 0 19 -16 -4 -32 -14 -10 -18
-21 -14 -41 3 -15 10 -27 15 -27 5 0 23 -14 40 -30 l30 -30 -30 -31 c-27 -27
-32 -29 -51 -17 -12 7 -21 17 -21 22 0 4 -6 4 -12 -1 -7 -5 -24 -10 -37 -11
-13 0 -28 -7 -32 -14 -13 -20 -11 -56 3 -60 8 -3 4 -10 -10 -17 -22 -12 -23
-11 -18 7 4 10 0 32 -9 48 -8 16 -15 24 -15 17 0 -6 -3 -18 -6 -27 -4 -11 -1
-16 11 -16 11 0 15 -6 11 -18 -7 -20 29 -61 42 -48 4 4 13 24 19 44 11 31 12
32 8 7 -5 -28 -4 -29 9 -11 29 37 51 -19 23 -58 -11 -15 -19 -16 -49 -8 -34 9
-37 8 -43 -16 -3 -14 -16 -33 -27 -40 -16 -12 -17 -16 -7 -23 20 -13 29 -11
29 6 0 32 18 13 23 -24 3 -22 14 -50 26 -62 13 -14 19 -30 15 -41 -6 -21 -1
-22 27 -8 10 6 19 18 19 26 0 9 5 12 11 8 7 -4 10 -1 7 7 -3 8 -15 14 -27 14
-28 1 -41 21 -41 63 0 38 19 40 35 4 5 -12 17 -23 25 -24 31 -3 35 -4 48 -11
14 -9 28 16 17 33 -3 5 1 10 9 10 9 0 16 8 17 18 0 10 3 12 6 5 7 -18 38 -16
54 4 8 9 9 14 3 10 -19 -11 -37 20 -31 53 7 33 -7 48 -28 30 -8 -6 -19 -9 -25
-5 -18 11 -22 -22 -6 -47 9 -14 12 -28 7 -37 -11 -17 -34 -4 -27 14 3 8 -2 19
-10 26 -8 7 -12 20 -9 30 4 13 1 19 -9 19 -12 0 -16 11 -16 45 0 25 5 45 10
45 6 0 10 -9 10 -21 0 -11 4 -17 10 -14 6 4 17 1 25 -5 13 -10 15 -8 15 13 0
19 8 29 30 39 29 12 42 38 20 38 -6 0 -10 17 -10 38 0 20 -1 54 -4 75 -3 27
-1 37 10 37 20 0 17 36 -3 45 -59 24 -72 24 -88 -1z m35 -84 c11 -21 4 -25
-19 -11 -7 5 -10 14 -7 20 10 15 14 14 26 -9z m-70 -330 c0 -5 -5 -10 -11 -10
-5 0 -7 5 -4 10 3 6 8 10 11 10 2 0 4 -4 4 -10z"/>
<path d="M15302 6520 c-19 -10 -29 -21 -23 -25 17 -10 13 -25 -6 -25 -9 0 -14
-3 -10 -6 3 -4 22 -3 41 0 27 5 37 13 42 32 9 36 -6 45 -44 24z"/>
<path d="M15220 6440 c-13 -8 -12 -10 3 -10 9 0 17 5 17 10 0 12 -1 12 -20 0z"/>
<path d="M14303 6429 c-18 -18 -16 -39 2 -39 9 0 15 -9 15 -25 0 -20 5 -25 23
-24 13 1 16 3 6 6 -11 3 -14 12 -11 33 2 17 0 30 -6 30 -6 0 -12 7 -14 16 -2
12 -5 13 -15 3z"/>
<path d="M14990 6379 c-19 -8 -21 -12 -11 -18 7 -5 10 -14 7 -20 -8 -12 -4
-14 18 -5 8 3 12 12 9 21 -3 8 0 19 8 24 18 11 0 10 -31 -2z"/>
<path d="M14581 6361 c-11 -10 -21 -26 -21 -36 0 -17 1 -17 18 -2 10 10 24 17
30 17 14 0 16 26 3 34 -4 3 -18 -3 -30 -13z"/>
<path d="M15038 6353 c7 -3 16 -2 19 1 4 3 -2 6 -13 5 -11 0 -14 -3 -6 -6z"/>
<path d="M14665 6340 c-3 -5 1 -10 9 -10 9 0 16 5 16 10 0 6 -4 10 -9 10 -6 0
-13 -4 -16 -10z"/>
<path d="M14590 6309 c0 -5 5 -7 10 -4 6 3 10 8 10 11 0 2 -4 4 -10 4 -5 0
-10 -5 -10 -11z"/>
<path d="M14420 6240 c0 -5 5 -10 11 -10 5 0 7 5 4 10 -3 6 -8 10 -11 10 -2 0
-4 -4 -4 -10z"/>
<path d="M14880 6184 c0 -8 5 -12 10 -9 6 3 10 10 10 16 0 5 -4 9 -10 9 -5 0
-10 -7 -10 -16z"/>
<path d="M14973 6155 c-3 -9 -3 -18 -1 -21 3 -3 8 4 11 16 6 23 -1 27 -10 5z"/>
<path d="M15130 6140 c0 -5 -8 -10 -18 -10 -10 0 -22 -3 -26 -7 -14 -14 -50
-13 -59 2 -7 14 -12 13 -33 -10 -13 -14 -24 -21 -24 -16 0 20 -16 11 -17 -9
-1 -11 2 -18 8 -15 5 4 9 -3 9 -15 0 -14 4 -19 12 -14 6 4 38 6 70 5 65 -3 94
15 85 50 -4 16 -2 19 14 14 23 -7 25 1 5 21 -17 16 -26 18 -26 4z m-56 -55
c-6 -16 -24 -21 -24 -7 0 11 11 22 21 22 5 0 6 -7 3 -15z m-74 -5 c0 -5 -5
-10 -11 -10 -5 0 -7 5 -4 10 3 6 8 10 11 10 2 0 4 -4 4 -10z"/>
<path d="M14820 6030 c0 -5 5 -10 10 -10 6 0 10 5 10 10 0 6 -4 10 -10 10 -5
0 -10 -4 -10 -10z"/>
<path d="M15170 6020 c0 -5 7 -10 15 -10 8 0 15 5 15 10 0 6 -7 10 -15 10 -8
0 -15 -4 -15 -10z"/>
<path d="M14740 6010 c0 -7 24 -20 36 -20 13 0 1 19 -16 23 -11 3 -20 2 -20
-3z"/>
<path d="M14355 5900 c-3 -5 -1 -10 4 -10 6 0 11 5 11 10 0 6 -2 10 -4 10 -3
0 -8 -4 -11 -10z"/>
<path d="M7080 5696 c0 -2 8 -10 18 -17 15 -13 16 -12 3 4 -13 16 -21 21 -21
13z"/>
<path d="M7189 5562 c5 -10 18 -25 27 -33 11 -9 9 -2 -6 19 -26 35 -36 42 -21
14z"/>
<path d="M7410 5300 c0 -5 5 -10 11 -10 5 0 7 5 4 10 -3 6 -8 10 -11 10 -2 0
-4 -4 -4 -10z"/>
<path d="M7890 4856 c0 -2 8 -10 18 -17 15 -13 16 -12 3 4 -13 16 -21 21 -21
13z"/>
<path d="M8130 4666 c0 -2 7 -6 15 -10 8 -3 15 -1 15 4 0 6 -7 10 -15 10 -8 0
-15 -2 -15 -4z"/>
<path d="M9878 3913 c6 -2 18 -2 25 0 6 3 1 5 -13 5 -14 0 -19 -2 -12 -5z"/>
<path d="M10413 3843 c9 -2 23 -2 30 0 6 3 -1 5 -18 5 -16 0 -22 -2 -12 -5z"/>
<path d="M10988 3833 c7 -3 16 -2 19 1 4 3 -2 6 -13 5 -11 0 -14 -3 -6 -6z"/>
</g>
</svg>
