<svg id="svg" version="1.1" xmlns="http://www.w3.org/2000/svg" xmlns:xlink="http://www.w3.org/1999/xlink" width="400" height="290.57471264367814" viewBox="0, 0, 400,290.57471264367814"><g id="svgg"><path id="path0" d="M110.814 64.884 C 110.222 65.476,110.317 206.357,110.911 208.952 C 112.036 213.864,113.699 217.731,115.770 220.250 C 116.370 220.979,116.860 221.683,116.860 221.816 C 116.860 222.012,119.124 224.019,121.221 225.682 C 123.582 227.554,127.886 229.489,130.713 229.949 C 131.573 230.089,132.400 230.280,132.551 230.374 C 133.126 230.729,135.530 230.598,135.784 230.197 C 135.924 229.975,136.040 216.036,136.042 198.971 C 136.046 172.518,136.108 167.908,136.483 166.471 C 136.722 165.551,136.919 164.588,136.919 164.332 C 136.919 164.076,137.402 162.545,137.993 160.930 C 146.985 136.354,179.722 131.698,195.427 152.762 C 199.489 158.211,201.209 163.406,201.729 171.802 C 202.120 178.110,202.497 181.759,202.954 183.659 C 204.219 188.922,205.075 191.852,205.705 193.068 C 205.925 193.492,206.105 193.996,206.105 194.188 C 206.105 195.223,210.457 202.985,213.242 206.917 C 216.497 211.513,223.133 217.846,227.762 220.775 C 231.024 222.839,235.436 225.291,235.887 225.291 C 236.116 225.291,236.381 225.417,236.476 225.571 C 236.571 225.725,237.069 225.978,237.583 226.134 C 238.858 226.521,241.009 227.285,241.715 227.602 C 242.363 227.892,244.527 228.516,247.384 229.236 C 248.423 229.498,250.320 229.825,251.599 229.962 C 252.878 230.100,254.775 230.345,255.814 230.507 C 258.235 230.885,262.120 230.885,264.535 230.506 C 265.574 230.343,267.209 230.139,268.169 230.052 C 270.856 229.809,276.990 228.328,278.968 227.444 C 279.472 227.219,280.016 227.035,280.177 227.035 C 280.338 227.035,281.344 226.642,282.413 226.163 C 283.482 225.683,284.485 225.291,284.642 225.291 C 285.104 225.291,290.541 222.062,293.605 219.968 C 303.246 213.378,311.542 202.260,315.354 190.822 C 317.304 184.972,318.394 185.465,303.526 185.465 C 290.060 185.465,290.530 185.392,289.225 187.698 C 284.999 195.168,279.664 199.875,271.657 203.199 C 261.800 207.291,247.820 205.019,239.535 197.978 C 236.953 195.784,233.484 192.051,232.808 190.737 C 232.590 190.316,232.128 189.542,231.781 189.018 C 228.915 184.698,227.063 177.321,227.021 170.058 C 227.010 168.060,226.878 165.770,226.728 164.971 C 226.579 164.172,226.332 162.747,226.180 161.804 C 224.187 149.426,216.181 135.527,206.686 127.962 C 205.967 127.388,205.247 126.777,205.087 126.603 C 204.844 126.339,201.701 124.075,198.828 122.095 C 197.164 120.948,189.249 117.390,187.515 117.009 C 187.005 116.897,186.238 116.623,185.809 116.399 C 185.380 116.175,184.702 115.987,184.302 115.980 C 183.903 115.973,183.249 115.781,182.849 115.552 C 182.449 115.324,181.599 115.131,180.959 115.123 C 180.320 115.116,179.142 114.901,178.343 114.646 C 176.136 113.942,162.699 113.944,159.448 114.648 C 150.246 116.643,143.912 119.025,138.273 122.613 C 136.450 123.772,136.046 123.606,136.048 121.699 C 136.072 91.890,135.855 85.648,134.683 82.413 C 131.201 72.798,124.190 66.894,113.994 64.989 C 111.083 64.445,111.247 64.451,110.814 64.884 M254.070 114.238 C 242.781 115.188,230.271 120.690,221.730 128.462 C 220.349 129.718,220.363 129.989,221.907 131.959 C 225.468 136.500,229.573 144.003,231.526 149.542 C 232.877 153.374,232.894 153.384,234.521 151.453 C 238.277 146.995,245.800 141.570,248.227 141.570 C 248.499 141.570,248.850 141.441,249.008 141.283 C 251.261 139.030,265.717 138.922,271.076 141.117 C 277.608 143.794,282.711 147.489,286.183 152.053 C 287.404 153.659,287.747 154.214,289.554 157.507 L 290.300 158.866 303.106 158.942 C 317.824 159.029,316.895 159.204,316.144 156.486 C 315.887 155.557,315.557 154.339,315.410 153.779 C 315.163 152.834,313.392 148.678,311.941 145.640 C 311.101 143.881,307.779 138.502,307.040 137.704 C 306.714 137.352,305.942 136.388,305.326 135.563 C 294.407 120.942,274.220 112.544,254.070 114.238 " stroke="none" fill="#3e86fa" fill-rule="evenodd"></path><path id="path1" d="M0.000 145.349 L 0.000 290.698 200.000 290.698 L 400.000 290.698 400.000 145.349 L 400.000 0.000 200.000 0.000 L 0.000 0.000 0.000 145.349 M116.883 64.427 C 117.136 64.646,117.770 64.826,118.292 64.826 C 118.814 64.826,119.589 65.012,120.013 65.239 C 120.438 65.466,120.981 65.728,121.221 65.821 C 125.747 67.577,132.061 73.658,134.374 78.489 C 134.948 79.689,135.512 81.063,135.627 81.542 C 135.742 82.021,135.972 82.585,136.139 82.796 C 136.718 83.529,137.001 90.353,137.089 105.637 C 137.137 114.094,137.282 121.119,137.411 121.248 C 137.635 121.473,139.309 120.709,142.151 119.087 C 144.000 118.032,144.356 117.871,146.802 116.988 C 148.001 116.555,149.395 116.022,149.899 115.804 C 150.402 115.586,151.195 115.407,151.660 115.407 C 152.125 115.407,152.759 115.215,153.069 114.980 C 153.380 114.745,154.036 114.549,154.527 114.544 C 155.018 114.539,155.999 114.346,156.707 114.114 C 160.004 113.037,171.622 112.398,174.709 113.123 C 175.429 113.292,177.064 113.524,178.343 113.638 C 179.622 113.753,181.037 114.001,181.487 114.191 C 181.937 114.380,182.673 114.535,183.123 114.535 C 183.573 114.535,184.410 114.731,184.984 114.971 C 185.558 115.211,186.343 115.407,186.728 115.407 C 187.114 115.407,187.592 115.603,187.791 115.843 C 187.990 116.083,188.496 116.284,188.916 116.289 C 189.337 116.295,190.007 116.487,190.407 116.715 C 190.807 116.944,191.373 117.135,191.666 117.141 C 191.959 117.147,192.940 117.578,193.846 118.100 C 194.753 118.622,196.214 119.367,197.093 119.756 C 197.972 120.145,199.026 120.764,199.435 121.133 C 199.843 121.501,200.392 121.802,200.656 121.802 C 200.919 121.802,201.239 121.985,201.366 122.208 C 201.494 122.431,202.515 123.224,203.634 123.968 C 204.753 124.713,207.212 126.778,209.099 128.556 C 210.986 130.334,212.721 131.930,212.954 132.101 C 213.366 132.404,214.581 134.023,216.734 137.137 C 217.314 137.976,217.892 138.663,218.018 138.663 C 218.143 138.663,218.325 138.892,218.422 139.172 C 218.519 139.451,218.828 140.031,219.110 140.460 C 220.439 142.483,221.767 144.780,221.962 145.395 C 222.081 145.768,222.570 146.794,223.049 147.673 C 223.529 148.553,224.022 149.666,224.144 150.145 C 224.472 151.427,225.112 153.028,225.373 153.221 C 225.591 153.382,225.748 154.070,226.461 157.994 C 226.635 158.953,226.922 160.196,227.097 160.756 C 227.273 161.315,227.513 163.081,227.631 164.680 C 227.749 166.279,227.970 167.980,228.123 168.459 C 228.276 168.939,228.419 171.092,228.442 173.244 C 228.468 175.809,228.640 177.712,228.940 178.767 C 229.743 181.600,231.467 186.337,231.694 186.337 C 231.815 186.337,231.989 186.638,232.082 187.006 C 232.359 188.110,235.426 192.474,236.556 193.372 C 237.135 193.833,237.814 194.521,238.063 194.901 C 239.336 196.839,246.847 201.744,248.542 201.744 C 248.848 201.744,249.204 201.932,249.333 202.161 C 249.905 203.185,257.241 204.183,262.324 203.930 C 266.944 203.700,268.971 203.128,275.042 200.341 C 275.625 200.073,276.344 199.495,276.641 199.056 C 276.987 198.543,277.544 198.190,278.198 198.071 C 280.469 197.656,288.663 188.038,288.663 185.786 C 288.663 184.338,289.002 184.304,303.594 184.276 C 318.584 184.247,318.162 184.195,317.861 186.014 C 317.610 187.527,316.544 191.085,316.244 191.410 C 316.103 191.562,315.984 191.954,315.979 192.282 C 315.974 192.610,315.778 193.132,315.543 193.442 C 315.308 193.753,315.116 194.181,315.116 194.395 C 315.116 194.609,314.451 196.186,313.639 197.901 C 311.539 202.330,311.091 203.186,310.143 204.578 C 309.681 205.258,308.922 206.370,308.457 207.049 C 307.720 208.126,305.996 210.131,302.740 213.701 C 301.330 215.246,299.156 217.200,296.948 218.907 C 295.828 219.772,294.832 220.593,294.734 220.732 C 294.555 220.983,294.254 221.174,292.407 222.207 C 291.867 222.509,291.060 223.060,290.614 223.432 C 289.867 224.056,287.927 225.045,285.029 226.280 C 284.390 226.553,283.519 226.965,283.095 227.196 C 282.670 227.427,282.147 227.617,281.932 227.618 C 281.717 227.619,281.214 227.790,280.814 227.998 C 279.227 228.824,276.508 229.567,272.093 230.382 C 270.894 230.604,269.456 230.922,268.897 231.090 C 267.541 231.498,252.798 231.496,251.452 231.088 C 250.893 230.919,249.586 230.653,248.547 230.498 C 247.507 230.343,246.265 230.097,245.785 229.953 C 245.305 229.808,244.063 229.478,243.023 229.219 C 241.352 228.803,238.231 227.683,236.939 227.037 C 235.965 226.549,233.136 225.275,232.448 225.013 C 232.049 224.862,230.528 223.947,229.068 222.979 C 227.607 222.012,226.297 221.221,226.157 221.221 C 226.016 221.221,225.796 221.053,225.669 220.847 C 225.541 220.641,225.044 220.180,224.564 219.821 C 224.084 219.463,223.234 218.820,222.674 218.393 C 222.115 217.965,219.891 215.844,217.733 213.679 C 214.135 210.069,212.644 208.284,210.558 205.087 C 210.141 204.448,209.622 203.820,209.405 203.692 C 209.189 203.564,209.011 203.302,209.010 203.111 C 209.010 202.919,208.618 202.173,208.140 201.453 C 207.661 200.734,207.269 199.974,207.269 199.765 C 207.268 199.556,206.756 198.313,206.131 197.003 C 204.824 194.267,203.015 189.092,202.735 187.287 C 202.630 186.611,202.364 185.908,202.144 185.726 C 201.885 185.511,201.743 184.765,201.740 183.613 C 201.737 182.633,201.547 181.308,201.317 180.669 C 201.023 179.854,200.893 178.156,200.882 175.000 C 200.864 170.012,200.105 164.582,199.303 163.695 C 199.047 163.412,198.837 162.775,198.837 162.279 C 198.837 161.783,198.445 160.530,197.965 159.494 C 197.485 158.457,197.087 157.434,197.081 157.220 C 197.074 157.006,196.682 156.510,196.209 156.118 C 195.736 155.726,195.349 155.230,195.349 155.016 C 195.349 154.455,193.136 151.541,192.288 150.985 C 191.893 150.726,191.570 150.289,191.570 150.013 C 191.570 149.738,191.239 149.361,190.835 149.177 C 190.431 148.993,190.024 148.645,189.932 148.404 C 189.839 148.162,189.597 147.965,189.394 147.965 C 189.191 147.965,188.470 147.442,187.791 146.802 C 187.112 146.163,186.439 145.640,186.296 145.640 C 186.152 145.640,185.517 145.313,184.884 144.913 C 184.251 144.513,183.606 144.186,183.452 144.186 C 183.297 144.186,182.389 143.728,181.435 143.169 C 180.480 142.609,179.544 142.151,179.355 142.151 C 179.167 142.151,178.600 141.967,178.096 141.743 C 177.592 141.518,176.480 141.261,175.623 141.171 C 174.767 141.082,173.892 140.864,173.679 140.687 C 172.737 139.905,161.757 140.792,159.976 141.794 C 159.626 141.990,158.957 142.151,158.489 142.151 C 158.020 142.151,157.299 142.417,156.886 142.742 C 156.473 143.066,155.399 143.669,154.498 144.082 C 152.863 144.830,150.242 146.419,149.419 147.161 C 149.179 147.377,148.296 148.065,147.456 148.691 C 146.617 149.317,145.930 150.015,145.930 150.243 C 145.930 150.471,145.503 151.066,144.981 151.565 C 143.701 152.788,141.323 156.177,140.928 157.341 C 140.753 157.860,140.374 158.622,140.088 159.034 C 137.406 162.890,137.403 162.933,137.306 198.837 L 137.219 230.959 136.269 231.289 C 135.059 231.710,130.889 231.467,130.025 230.926 C 129.671 230.705,129.112 230.523,128.783 230.523 C 127.691 230.523,123.038 228.427,121.610 227.291 C 120.836 226.677,119.909 226.043,119.549 225.885 C 119.190 225.726,118.895 225.478,118.895 225.333 C 118.895 225.189,118.503 224.908,118.023 224.709 C 117.544 224.511,117.151 224.234,117.151 224.093 C 117.151 223.953,116.715 223.348,116.182 222.748 C 113.695 219.947,112.275 217.470,110.973 213.663 L 110.029 210.901 109.954 137.678 C 109.898 82.478,109.962 64.355,110.216 64.048 C 110.661 63.512,116.192 63.826,116.883 64.427 M268.314 113.239 C 269.673 113.328,271.212 113.597,271.735 113.838 C 272.257 114.079,273.425 114.397,274.330 114.544 C 275.234 114.691,276.108 114.946,276.272 115.109 C 276.436 115.273,276.985 115.407,277.493 115.407 C 278.002 115.407,278.580 115.603,278.779 115.843 C 278.978 116.083,279.424 116.279,279.770 116.279 C 280.628 116.279,283.295 117.247,284.884 118.136 C 285.603 118.538,286.781 119.134,287.500 119.459 C 288.219 119.785,289.004 120.182,289.244 120.342 C 290.286 121.034,292.014 121.802,292.528 121.802 C 292.858 121.802,293.028 121.952,292.944 122.170 C 292.861 122.388,294.018 123.399,295.789 124.657 C 297.431 125.823,300.085 128.110,301.688 129.740 C 304.283 132.381,305.100 133.301,307.284 136.047 C 307.602 136.446,308.227 137.231,308.674 137.791 C 309.120 138.350,309.919 139.593,310.449 140.552 C 310.980 141.512,311.592 142.401,311.811 142.529 C 312.030 142.657,312.209 143.066,312.209 143.438 C 312.209 143.810,312.406 144.278,312.645 144.477 C 312.885 144.676,313.081 145.031,313.081 145.266 C 313.081 145.501,313.343 146.026,313.663 146.432 C 313.983 146.839,314.244 147.408,314.244 147.696 C 314.244 147.985,314.356 148.291,314.493 148.375 C 314.629 148.459,315.031 149.416,315.384 150.500 C 315.738 151.584,316.199 152.863,316.408 153.343 C 317.053 154.820,317.487 156.188,317.782 157.674 C 318.307 160.313,318.884 160.196,304.771 160.297 C 298.070 160.345,292.326 160.411,292.006 160.443 C 291.686 160.476,291.051 160.411,290.594 160.299 C 290.025 160.159,289.675 160.222,289.482 160.498 C 289.249 160.831,289.222 160.825,289.327 160.465 C 289.595 159.544,286.100 153.633,284.177 151.756 C 283.446 151.044,282.849 150.300,282.849 150.105 C 282.849 149.449,281.196 148.513,280.393 148.714 C 279.627 148.906,279.422 148.602,279.957 148.066 C 280.170 147.853,280.017 147.602,279.448 147.232 C 279.000 146.941,278.463 146.464,278.254 146.171 C 278.045 145.879,277.740 145.640,277.576 145.640 C 277.413 145.640,276.603 145.202,275.776 144.667 C 274.949 144.132,273.815 143.522,273.256 143.311 C 272.696 143.100,272.042 142.772,271.802 142.581 C 270.010 141.157,258.591 139.831,255.669 140.708 C 255.029 140.900,253.852 141.164,253.052 141.296 C 250.892 141.652,248.685 142.254,248.226 142.615 C 248.002 142.790,247.603 143.010,247.338 143.104 C 247.072 143.198,245.980 143.807,244.910 144.457 C 243.839 145.108,242.905 145.640,242.832 145.640 C 242.545 145.640,237.500 149.815,237.500 150.052 C 237.500 150.192,236.944 150.865,236.265 151.548 C 235.585 152.231,234.652 153.340,234.190 154.012 C 232.814 156.015,231.832 155.177,230.791 151.112 C 230.059 148.250,225.217 138.236,224.230 137.540 C 224.085 137.438,223.726 136.808,223.431 136.140 C 223.137 135.473,222.519 134.565,222.058 134.124 C 221.598 133.683,221.221 133.201,221.221 133.054 C 221.221 132.907,220.828 132.292,220.349 131.686 C 219.173 130.202,219.144 128.707,220.276 128.008 C 220.716 127.737,221.664 126.913,222.384 126.176 C 223.103 125.440,224.542 124.327,225.581 123.702 C 226.621 123.078,227.863 122.285,228.343 121.940 C 228.823 121.596,229.738 121.048,230.378 120.722 C 232.957 119.408,233.594 119.077,234.012 118.839 C 234.415 118.608,236.437 117.651,238.517 116.705 C 238.997 116.487,240.174 116.096,241.134 115.837 C 242.093 115.578,243.532 115.189,244.331 114.973 C 245.131 114.757,246.710 114.309,247.840 113.976 C 248.971 113.644,250.802 113.359,251.910 113.343 C 253.018 113.327,254.251 113.204,254.651 113.070 C 255.371 112.828,263.557 112.930,268.314 113.239 M118.605 228.488 C 118.605 228.648,118.408 228.779,118.169 228.779 C 117.929 228.779,117.733 228.648,117.733 228.488 C 117.733 228.328,117.929 228.198,118.169 228.198 C 118.408 228.198,118.605 228.328,118.605 228.488 " stroke="none" fill="#fbfbfb" fill-rule="evenodd"></path><path id="path2" d="M110.392 64.406 C 109.809 65.011,110.155 208.189,110.746 210.610 C 112.556 218.029,115.958 222.775,122.862 227.512 C 123.366 227.857,124.085 228.234,124.461 228.349 C 124.838 228.465,125.276 228.652,125.436 228.765 C 126.482 229.502,131.124 230.780,133.606 231.014 C 136.665 231.302,136.355 234.696,136.341 201.082 C 136.327 166.807,136.309 167.120,138.777 160.320 C 144.866 143.547,166.301 134.986,182.484 142.862 C 183.323 143.271,184.082 143.605,184.172 143.605 C 185.035 143.605,191.097 148.491,193.116 150.815 C 195.820 153.927,199.419 160.004,199.419 161.458 C 199.419 161.672,199.596 162.289,199.813 162.828 C 200.532 164.613,201.144 168.970,201.442 174.419 C 201.895 182.729,202.667 186.432,205.685 194.767 C 206.129 195.995,209.420 202.386,210.158 203.454 C 212.558 206.928,214.406 209.423,215.196 210.254 C 215.712 210.797,217.049 212.204,218.169 213.380 C 244.053 240.581,289.402 235.829,309.789 203.779 C 311.428 201.204,314.535 195.077,314.535 194.422 C 314.535 194.261,314.727 193.783,314.961 193.359 C 316.488 190.594,317.572 185.398,316.691 185.060 C 316.012 184.799,290.613 184.854,290.199 185.117 C 290.004 185.241,289.500 185.991,289.079 186.784 C 285.613 193.307,279.861 198.879,273.826 201.561 C 272.793 202.021,271.702 202.523,271.401 202.678 C 266.604 205.149,255.042 205.195,248.983 202.767 C 236.934 197.940,229.018 187.551,227.939 175.145 C 227.772 173.227,227.557 170.153,227.462 168.314 C 227.239 164.022,226.117 158.059,224.823 154.279 C 224.263 152.645,223.698 150.916,223.567 150.436 C 223.436 149.956,222.999 148.910,222.597 148.110 C 222.194 147.311,221.381 145.693,220.790 144.514 C 219.847 142.634,219.166 141.556,216.449 137.644 C 212.850 132.462,206.573 126.579,200.081 122.305 C 198.447 121.229,197.035 120.349,196.944 120.349 C 196.853 120.349,195.705 119.818,194.392 119.169 C 191.856 117.915,191.227 117.662,187.791 116.517 C 179.277 113.679,171.532 112.849,162.500 113.805 C 160.342 114.033,158.118 114.345,157.558 114.497 C 156.999 114.650,155.922 114.859,155.167 114.962 C 154.411 115.065,153.716 115.273,153.623 115.424 C 153.530 115.574,153.167 115.698,152.817 115.698 C 151.183 115.698,143.342 119.014,138.399 121.796 C 137.535 122.282,136.750 122.603,136.655 122.508 C 136.560 122.413,136.412 114.007,136.326 103.828 C 136.172 85.668,136.156 85.279,135.511 83.140 C 132.920 74.554,126.343 67.941,117.733 65.265 C 115.267 64.500,110.806 63.977,110.392 64.406 M113.994 64.989 C 124.190 66.894,131.201 72.798,134.683 82.413 C 135.855 85.648,136.072 91.890,136.048 121.699 C 136.046 123.606,136.450 123.772,138.273 122.613 C 143.912 119.025,150.246 116.643,159.448 114.648 C 162.699 113.944,176.136 113.942,178.343 114.646 C 179.142 114.901,180.320 115.116,180.959 115.123 C 181.599 115.131,182.449 115.324,182.849 115.552 C 183.249 115.781,183.903 115.973,184.302 115.980 C 184.702 115.987,185.380 116.175,185.809 116.399 C 186.238 116.623,187.005 116.897,187.515 117.009 C 189.249 117.390,197.164 120.948,198.828 122.095 C 201.701 124.075,204.844 126.339,205.087 126.603 C 205.247 126.777,205.967 127.388,206.686 127.962 C 216.181 135.527,224.187 149.426,226.180 161.804 C 226.332 162.747,226.579 164.172,226.728 164.971 C 226.878 165.770,227.010 168.060,227.021 170.058 C 227.063 177.321,228.915 184.698,231.781 189.018 C 232.128 189.542,232.590 190.316,232.808 190.737 C 236.750 198.390,249.572 205.233,259.970 205.233 C 264.076 205.233,268.695 204.429,271.657 203.199 C 279.664 199.875,284.999 195.168,289.225 187.698 C 289.789 186.701,290.474 185.896,290.894 185.736 C 291.935 185.341,315.290 185.382,316.035 185.781 C 317.548 186.590,313.625 196.778,309.160 203.634 C 304.093 211.414,298.403 217.033,290.698 221.865 C 287.949 223.588,284.940 225.291,284.642 225.291 C 284.485 225.291,283.482 225.683,282.413 226.163 C 281.344 226.642,280.338 227.035,280.177 227.035 C 280.016 227.035,279.472 227.219,278.968 227.444 C 276.990 228.328,270.856 229.809,268.169 230.052 C 267.209 230.139,265.574 230.343,264.535 230.506 C 262.120 230.885,258.235 230.885,255.814 230.507 C 254.775 230.345,252.878 230.100,251.599 229.962 C 250.320 229.825,248.423 229.498,247.384 229.236 C 244.527 228.516,242.363 227.892,241.715 227.602 C 241.009 227.285,238.858 226.521,237.583 226.134 C 237.069 225.978,236.571 225.725,236.476 225.571 C 236.381 225.417,236.116 225.291,235.887 225.291 C 235.436 225.291,231.024 222.839,227.762 220.775 C 223.133 217.846,216.497 211.513,213.242 206.917 C 210.457 202.985,206.105 195.223,206.105 194.188 C 206.105 193.996,205.925 193.492,205.705 193.068 C 205.075 191.852,204.219 188.922,202.954 183.659 C 202.497 181.759,202.120 178.110,201.729 171.802 C 201.209 163.406,199.489 158.211,195.427 152.762 C 179.722 131.698,146.985 136.354,137.993 160.930 C 137.402 162.545,136.919 164.076,136.919 164.332 C 136.919 164.588,136.722 165.551,136.483 166.471 C 136.108 167.908,136.046 172.518,136.042 198.971 C 136.040 216.036,135.924 229.975,135.784 230.197 C 135.530 230.598,133.126 230.729,132.551 230.374 C 132.400 230.280,131.573 230.089,130.713 229.949 C 127.886 229.489,123.582 227.554,121.221 225.682 C 119.124 224.019,116.860 222.012,116.860 221.816 C 116.860 221.683,116.370 220.979,115.770 220.250 C 113.699 217.731,112.036 213.864,110.911 208.952 C 110.317 206.357,110.222 65.476,110.814 64.884 C 111.247 64.451,111.083 64.445,113.994 64.989 M254.942 113.661 C 254.222 113.798,252.936 113.920,252.083 113.932 C 249.484 113.968,242.361 115.885,237.791 117.778 C 233.263 119.654,229.632 121.673,225.236 124.760 C 224.706 125.132,223.451 126.188,222.446 127.108 C 221.441 128.027,220.492 128.779,220.338 128.779 C 219.574 128.779,220.174 130.518,221.593 132.413 C 224.714 136.581,226.755 140.112,229.745 146.512 C 230.155 147.391,230.828 149.177,231.238 150.482 C 231.649 151.786,232.249 153.159,232.571 153.534 L 233.157 154.215 233.802 153.367 C 240.637 144.386,249.410 139.958,260.320 139.984 C 265.373 139.996,265.251 139.978,270.339 141.484 C 275.219 142.928,281.251 147.085,284.896 151.516 C 286.660 153.660,287.479 154.909,289.078 157.887 C 290.022 159.646,289.171 159.548,303.806 159.584 C 318.807 159.622,317.727 159.953,316.611 155.668 C 315.827 152.656,312.240 144.467,310.665 142.092 C 310.315 141.565,309.854 140.794,309.640 140.378 C 309.426 139.962,308.742 138.981,308.120 138.197 C 307.498 137.414,306.678 136.315,306.298 135.756 C 300.483 127.191,286.643 118.181,274.855 115.286 C 273.735 115.011,272.297 114.649,271.657 114.481 C 268.812 113.733,257.480 113.177,254.942 113.661 M269.592 114.689 C 284.348 117.480,297.605 125.224,305.326 135.563 C 305.942 136.388,306.714 137.352,307.040 137.704 C 307.779 138.502,311.101 143.881,311.941 145.640 C 313.392 148.678,315.163 152.834,315.410 153.779 C 315.557 154.339,315.887 155.557,316.144 156.486 C 316.895 159.204,317.824 159.029,303.106 158.942 L 290.300 158.866 289.554 157.507 C 287.747 154.214,287.404 153.659,286.183 152.053 C 282.711 147.489,277.608 143.794,271.076 141.117 C 265.717 138.922,251.261 139.030,249.008 141.283 C 248.850 141.441,248.499 141.570,248.227 141.570 C 245.800 141.570,238.277 146.995,234.521 151.453 C 232.894 153.384,232.877 153.374,231.526 149.542 C 229.573 144.003,225.468 136.500,221.907 131.959 C 220.363 129.989,220.349 129.718,221.730 128.462 C 230.271 120.690,242.781 115.188,254.070 114.238 C 258.010 113.907,266.807 114.163,269.592 114.689 " stroke="none" fill="#a4c7f6" fill-rule="evenodd"></path><path id="path3" d="M110.357 64.183 C 110.279 64.310,110.697 64.368,111.285 64.312 C 113.083 64.142,113.295 64.023,111.863 63.987 C 111.113 63.969,110.435 64.057,110.357 64.183 M115.552 64.687 C 117.375 65.193,117.466 65.192,116.570 64.680 C 116.170 64.452,115.451 64.269,114.971 64.274 C 114.268 64.282,114.381 64.362,115.552 64.687 M110.027 136.047 C 110.027 175.298,110.060 191.355,110.102 171.730 C 110.143 152.104,110.143 119.989,110.102 100.363 C 110.060 80.738,110.027 96.795,110.027 136.047 M119.186 65.722 C 124.094 67.450,129.804 72.020,132.595 76.453 C 133.049 77.173,133.422 77.621,133.425 77.449 C 133.476 74.534,121.555 64.981,118.060 65.138 C 117.800 65.149,118.307 65.412,119.186 65.722 M133.430 78.181 C 133.430 78.331,133.548 78.527,133.691 78.615 C 134.071 78.850,135.415 82.690,135.886 84.884 C 136.133 86.035,136.300 86.438,136.314 85.916 C 136.342 84.896,135.051 80.538,134.265 78.997 C 133.718 77.924,133.430 77.643,133.430 78.181 M136.412 104.651 C 136.376 114.164,136.452 122.114,136.581 122.317 C 136.759 122.599,137.190 122.475,138.393 121.798 C 141.417 120.094,146.965 117.516,149.379 116.694 C 150.716 116.238,151.689 115.825,151.542 115.775 C 151.394 115.726,150.038 116.157,148.529 116.732 C 147.020 117.307,145.523 117.855,145.203 117.950 C 144.591 118.132,139.439 120.889,138.219 121.689 C 136.582 122.761,136.639 123.348,136.555 104.588 L 136.478 87.355 136.412 104.651 M162.209 113.526 L 159.448 113.918 162.355 113.718 C 166.045 113.463,172.135 113.460,175.145 113.711 C 176.890 113.857,177.181 113.837,176.308 113.631 C 174.320 113.161,165.253 113.094,162.209 113.526 M255.087 113.322 C 254.608 113.434,256.439 113.524,259.157 113.522 C 261.875 113.519,265.276 113.602,266.715 113.704 C 268.939 113.863,269.048 113.853,267.442 113.634 C 264.896 113.288,256.175 113.067,255.087 113.322 M248.256 114.255 C 247.217 114.547,246.652 114.795,247.001 114.806 C 247.351 114.817,248.005 114.679,248.455 114.499 C 248.905 114.320,250.385 114.078,251.744 113.961 L 254.215 113.748 252.180 113.736 C 251.050 113.728,249.305 113.959,248.256 114.255 M156.686 114.404 C 155.967 114.610,155.640 114.787,155.959 114.797 C 156.279 114.806,157.195 114.632,157.994 114.410 C 158.794 114.187,159.121 114.011,158.721 114.017 C 158.321 114.024,157.406 114.198,156.686 114.404 M179.797 114.410 C 180.596 114.632,181.512 114.808,181.831 114.800 C 182.151 114.793,181.759 114.605,180.959 114.383 C 180.160 114.161,179.244 113.985,178.924 113.992 C 178.605 114.000,178.997 114.187,179.797 114.410 M271.076 114.396 C 271.875 114.618,272.791 114.797,273.110 114.793 C 273.430 114.789,273.038 114.605,272.238 114.383 C 271.439 114.161,270.523 113.982,270.203 113.986 C 269.884 113.990,270.276 114.174,271.076 114.396 M153.634 115.116 C 153.535 115.276,153.102 115.422,152.672 115.441 C 152.113 115.465,152.046 115.514,152.436 115.615 C 152.737 115.692,153.261 115.621,153.599 115.457 C 153.938 115.293,154.411 115.094,154.651 115.015 C 154.927 114.924,154.853 114.863,154.450 114.849 C 154.100 114.836,153.733 114.956,153.634 115.116 M183.197 114.961 C 183.308 115.083,184.224 115.412,185.232 115.692 C 186.239 115.973,187.326 116.301,187.645 116.422 L 188.227 116.641 187.645 116.207 C 187.326 115.968,186.475 115.634,185.756 115.466 C 185.036 115.297,184.121 115.065,183.721 114.950 C 183.321 114.834,183.085 114.839,183.197 114.961 M244.331 115.272 C 243.178 115.800,243.735 115.799,245.203 115.270 C 245.843 115.040,246.105 114.856,245.785 114.862 C 245.465 114.868,244.811 115.052,244.331 115.272 M275.000 115.277 C 275.719 115.503,276.439 115.681,276.599 115.671 C 277.108 115.640,274.880 114.870,274.273 114.867 C 273.953 114.866,274.281 115.050,275.000 115.277 M241.715 115.988 C 241.616 116.148,241.249 116.280,240.899 116.281 C 240.548 116.282,239.935 116.451,239.535 116.658 C 239.135 116.864,238.032 117.346,237.084 117.728 C 236.136 118.111,235.491 118.468,235.651 118.521 C 235.812 118.575,236.718 118.271,237.666 117.847 C 238.614 117.423,240.305 116.774,241.424 116.405 C 242.775 115.960,243.196 115.728,242.677 115.716 C 242.247 115.706,241.814 115.828,241.715 115.988 M278.052 116.142 C 279.509 116.667,279.708 116.665,278.779 116.134 C 278.379 115.905,277.791 115.719,277.471 115.721 C 277.151 115.722,277.413 115.912,278.052 116.142 M189.390 117.035 C 190.029 117.277,190.879 117.587,191.279 117.724 C 191.679 117.861,193.098 118.516,194.433 119.181 C 195.767 119.845,196.914 120.334,196.981 120.267 C 197.300 119.948,189.687 116.584,188.663 116.592 C 188.423 116.594,188.750 116.793,189.390 117.035 M280.233 116.848 C 280.632 116.974,281.732 117.423,282.675 117.845 C 283.619 118.267,284.448 118.556,284.517 118.487 C 284.783 118.221,280.741 116.549,279.942 116.595 C 279.702 116.609,279.833 116.723,280.233 116.848 M284.908 118.711 C 285.494 119.223,286.448 119.530,286.084 119.088 C 285.864 118.822,285.483 118.605,285.236 118.605 C 284.989 118.605,284.841 118.652,284.908 118.711 M231.686 120.362 C 230.967 120.828,230.285 121.212,230.171 121.215 C 229.839 121.224,223.712 125.349,223.494 125.711 C 223.385 125.892,222.502 126.677,221.532 127.455 C 220.256 128.478,219.767 129.063,219.767 129.568 C 219.767 130.151,222.022 133.827,222.672 134.302 C 222.781 134.382,223.251 135.075,223.717 135.842 C 224.183 136.609,224.978 137.918,225.483 138.749 C 225.989 139.581,226.691 140.824,227.043 141.512 C 227.395 142.200,227.734 142.711,227.798 142.648 C 228.111 142.335,224.237 135.945,221.593 132.413 C 220.174 130.518,219.574 128.779,220.338 128.779 C 220.492 128.779,221.441 128.027,222.446 127.108 C 224.228 125.478,224.875 124.977,227.445 123.243 C 228.572 122.482,231.247 120.900,233.140 119.874 C 233.539 119.658,233.670 119.488,233.430 119.497 C 233.190 119.506,232.406 119.896,231.686 120.362 M288.663 120.729 C 295.325 124.540,303.294 131.331,306.298 135.756 C 306.678 136.315,307.498 137.414,308.120 138.197 C 308.742 138.981,309.426 139.960,309.640 140.373 C 310.191 141.436,311.919 144.065,311.919 143.840 C 311.919 142.440,305.840 134.426,301.300 129.842 C 297.553 126.058,288.295 119.466,286.745 119.479 C 286.601 119.480,287.464 120.042,288.663 120.729 M197.384 120.450 C 197.384 120.506,198.659 121.385,200.218 122.404 C 204.252 125.039,207.231 127.492,210.909 131.209 C 213.875 134.205,214.840 135.327,216.449 137.644 C 219.792 142.457,220.191 143.135,222.400 147.753 C 222.918 148.835,223.392 149.670,223.453 149.609 C 224.290 148.772,215.472 135.057,211.953 131.721 C 211.215 131.021,209.554 129.438,208.263 128.202 C 206.280 126.305,202.398 123.279,200.627 122.249 C 200.362 122.095,199.601 121.604,198.935 121.159 C 197.801 120.400,197.384 120.209,197.384 120.450 M167.951 140.040 C 168.790 140.099,170.164 140.099,171.003 140.040 C 171.842 139.981,171.156 139.933,169.477 139.933 C 167.798 139.933,167.111 139.981,167.951 140.040 M258.358 140.041 C 259.357 140.098,260.992 140.098,261.991 140.041 C 262.991 139.984,262.173 139.938,260.174 139.938 C 258.176 139.938,257.358 139.984,258.358 140.041 M162.209 140.567 C 160.453 141.070,161.646 141.068,163.663 140.565 C 164.740 140.296,164.977 140.170,164.390 140.179 C 163.910 140.186,162.929 140.361,162.209 140.567 M173.983 140.438 C 176.296 140.946,177.245 141.018,175.727 140.571 C 174.927 140.335,173.946 140.151,173.547 140.163 C 173.056 140.176,173.198 140.266,173.983 140.438 M253.779 140.398 C 253.379 140.528,252.164 140.860,251.077 141.137 C 249.991 141.415,249.153 141.692,249.216 141.754 C 249.278 141.816,250.559 141.549,252.063 141.160 C 253.566 140.771,255.189 140.397,255.669 140.328 C 256.493 140.210,256.485 140.202,255.523 140.183 C 254.964 140.171,254.179 140.268,253.779 140.398 M264.971 140.438 C 267.471 140.988,268.292 141.041,266.860 140.563 C 266.141 140.322,265.160 140.138,264.680 140.154 C 263.896 140.180,263.926 140.209,264.971 140.438 M158.866 141.435 C 158.383 141.656,158.206 141.840,158.470 141.847 C 158.731 141.855,159.320 141.665,159.778 141.426 C 160.817 140.884,160.053 140.892,158.866 141.435 M178.158 141.436 C 178.696 141.669,179.285 141.855,179.467 141.849 C 179.648 141.843,179.356 141.647,178.818 141.413 C 178.280 141.179,177.692 140.993,177.510 141.000 C 177.329 141.006,177.620 141.202,178.158 141.436 M269.331 141.433 C 269.971 141.663,270.690 141.848,270.930 141.843 C 271.170 141.839,270.843 141.646,270.203 141.416 C 269.564 141.186,268.844 141.001,268.605 141.006 C 268.365 141.010,268.692 141.202,269.331 141.433 M154.416 143.319 C 149.404 145.940,145.688 149.112,142.641 153.369 C 141.251 155.312,138.899 159.575,139.019 159.936 C 139.071 160.092,139.617 159.196,140.233 157.944 C 143.265 151.777,147.801 147.173,154.070 143.900 C 157.088 142.323,157.857 141.860,157.413 141.886 C 157.253 141.896,155.904 142.540,154.416 143.319 M182.558 143.249 C 186.221 145.076,189.825 147.586,191.825 149.704 C 193.005 150.954,195.640 154.317,195.640 154.574 C 195.640 154.708,196.038 155.271,196.525 155.825 L 197.411 156.831 196.607 155.523 C 193.835 151.017,188.896 146.197,184.738 143.943 C 183.213 143.116,180.428 141.861,180.130 141.866 C 179.947 141.869,181.039 142.492,182.558 143.249 M246.802 142.686 C 241.468 145.343,237.084 148.950,233.821 153.367 C 233.007 154.469,232.508 154.044,231.534 151.421 C 230.684 149.132,230.593 149.524,231.412 151.948 C 232.262 154.465,232.922 155.007,233.791 153.901 C 235.744 151.415,238.352 148.684,240.195 147.195 C 242.312 145.485,242.660 145.267,246.512 143.243 C 247.711 142.613,248.746 142.044,248.813 141.979 C 249.147 141.652,248.232 141.974,246.802 142.686 M271.965 142.287 C 272.275 142.522,272.660 142.714,272.820 142.714 C 272.980 142.714,272.857 142.522,272.546 142.287 C 272.236 142.053,271.851 141.860,271.691 141.860 C 271.531 141.860,271.654 142.053,271.965 142.287 M273.692 143.065 C 280.878 146.960,287.859 154.122,289.616 159.402 C 289.819 160.011,316.655 160.045,317.160 159.438 C 317.650 158.846,317.571 157.321,316.984 156.046 L 316.542 155.087 316.722 155.959 C 317.548 159.963,318.762 159.622,303.806 159.584 C 289.171 159.548,290.022 159.646,289.078 157.887 C 287.479 154.909,286.660 153.660,284.896 151.516 C 282.326 148.392,278.287 145.139,274.717 143.318 C 273.542 142.718,272.643 142.497,273.692 143.065 M227.934 143.169 C 227.934 143.328,228.315 144.179,228.779 145.058 C 229.244 145.938,229.624 146.526,229.624 146.366 C 229.624 146.206,229.244 145.356,228.779 144.477 C 228.315 143.597,227.934 143.009,227.934 143.169 M311.919 144.366 C 311.919 144.526,312.111 144.910,312.345 145.221 C 312.580 145.531,312.772 145.654,312.772 145.494 C 312.772 145.334,312.580 144.950,312.345 144.639 C 312.111 144.329,311.919 144.206,311.919 144.366 M312.843 146.076 C 312.904 146.235,313.131 146.759,313.347 147.238 C 313.922 148.519,314.415 149.674,315.084 151.308 C 315.411 152.108,315.683 152.615,315.688 152.435 C 315.703 151.925,313.703 147.099,313.190 146.406 C 312.937 146.064,312.781 145.916,312.843 146.076 M229.651 146.851 C 229.651 146.949,229.922 147.600,230.252 148.297 C 230.703 149.247,230.808 149.352,230.671 148.716 C 230.508 147.963,229.651 146.396,229.651 146.851 M223.664 150.581 C 223.730 150.981,224.133 152.271,224.559 153.449 C 224.985 154.626,225.578 156.523,225.878 157.664 C 226.177 158.805,226.426 159.477,226.431 159.157 C 226.444 158.318,225.455 154.733,224.616 152.578 C 223.536 149.802,223.535 149.800,223.664 150.581 M315.708 152.946 C 315.702 153.048,315.889 153.571,316.122 154.109 C 316.356 154.647,316.547 154.891,316.548 154.651 C 316.549 154.232,315.729 152.568,315.708 152.946 M197.387 157.206 C 197.385 157.413,197.661 158.125,198.000 158.789 C 198.339 159.454,198.788 160.462,198.997 161.031 C 199.206 161.599,199.387 161.838,199.398 161.562 C 199.409 161.286,198.962 160.108,198.405 158.946 C 197.847 157.783,197.389 157.000,197.387 157.206 M226.497 160.320 C 226.494 160.640,226.668 161.686,226.884 162.645 C 227.100 163.605,227.282 164.063,227.289 163.663 C 227.296 163.263,227.121 162.217,226.902 161.337 C 226.682 160.458,226.500 160.000,226.497 160.320 M138.372 161.337 C 138.169 161.827,138.069 162.293,138.148 162.373 C 138.228 162.453,138.460 162.118,138.663 161.628 C 138.866 161.138,138.966 160.672,138.886 160.592 C 138.806 160.512,138.575 160.847,138.372 161.337 M199.442 162.394 C 199.429 162.575,199.610 163.164,199.843 163.702 C 200.077 164.240,200.267 164.484,200.266 164.244 C 200.264 163.707,199.475 161.935,199.442 162.394 M137.532 163.857 C 137.324 164.487,137.214 165.322,137.287 165.713 C 137.395 166.287,137.428 166.238,137.460 165.461 C 137.482 164.930,137.639 164.236,137.810 163.918 C 137.980 163.600,138.072 163.199,138.014 163.026 C 137.957 162.853,137.740 163.227,137.532 163.857 M200.483 166.279 C 200.589 166.999,200.765 168.372,200.875 169.331 L 201.074 171.076 201.106 169.622 C 201.124 168.823,200.948 167.449,200.715 166.570 C 200.324 165.093,200.306 165.071,200.483 166.279 M227.538 169.186 C 227.623 171.025,227.796 173.379,227.922 174.419 C 228.078 175.706,228.101 175.181,227.993 172.770 C 227.906 170.824,227.733 168.470,227.608 167.538 C 227.459 166.422,227.435 166.985,227.538 169.186 M136.663 169.155 C 136.430 170.971,136.333 180.667,136.341 201.192 C 136.351 224.761,136.280 230.678,135.982 230.892 C 135.722 231.079,135.770 231.108,136.143 230.987 C 136.436 230.892,136.697 230.814,136.724 230.814 C 136.751 230.814,136.731 217.700,136.679 201.672 C 136.610 180.371,136.678 171.763,136.932 169.681 C 137.122 168.114,137.215 166.769,137.138 166.692 C 137.060 166.615,136.847 167.723,136.663 169.155 M201.229 176.163 C 201.213 177.522,201.388 179.419,201.618 180.378 C 202.026 182.080,202.031 182.087,201.850 180.669 C 201.748 179.869,201.573 177.972,201.462 176.453 L 201.259 173.692 201.229 176.163 M228.244 177.907 C 228.243 178.467,228.418 179.382,228.634 179.942 C 229.133 181.240,229.135 180.834,228.639 178.634 C 228.327 177.247,228.246 177.098,228.244 177.907 M229.085 181.250 C 229.062 181.764,230.391 185.269,231.233 186.919 C 234.236 192.799,239.603 198.182,245.286 201.011 C 249.456 203.088,249.913 203.278,250.339 203.108 C 250.563 203.018,250.466 202.943,250.108 202.930 C 249.768 202.917,249.327 202.711,249.128 202.471 C 248.929 202.231,248.485 202.035,248.141 202.035 C 247.796 202.035,246.482 201.446,245.220 200.727 C 243.957 200.007,242.848 199.417,242.756 199.416 C 242.663 199.415,241.802 198.746,240.843 197.930 C 234.820 192.809,232.405 189.502,229.830 182.849 C 229.427 181.810,229.092 181.090,229.085 181.250 M202.087 183.285 C 202.072 183.765,202.249 184.680,202.479 185.320 C 202.710 185.959,202.915 186.744,202.936 187.064 C 202.969 187.560,202.994 187.570,203.108 187.133 C 203.182 186.851,203.043 186.000,202.800 185.243 C 202.556 184.486,202.303 183.539,202.236 183.140 C 202.129 182.500,202.111 182.518,202.087 183.285 M290.011 184.845 C 289.714 184.963,289.296 185.576,289.082 186.207 C 288.740 187.218,288.743 187.287,289.114 186.790 C 289.346 186.480,289.535 186.059,289.535 185.856 C 289.535 185.652,289.788 185.350,290.097 185.185 C 290.797 184.810,316.240 184.776,316.829 185.149 C 317.225 185.399,317.187 186.695,316.728 188.663 C 316.634 189.063,316.762 188.866,317.012 188.227 C 317.261 187.587,317.427 186.541,317.381 185.901 L 317.297 184.738 303.924 184.685 C 296.570 184.655,290.309 184.727,290.011 184.845 M287.238 189.317 C 285.257 192.352,285.135 192.500,282.415 195.210 C 280.967 196.653,279.131 198.214,278.336 198.680 C 277.540 199.145,276.747 199.665,276.573 199.836 C 276.294 200.109,273.589 201.418,271.076 202.496 C 270.596 202.701,269.328 203.103,268.257 203.389 C 267.187 203.674,266.368 203.965,266.439 204.035 C 266.589 204.186,269.824 203.310,271.076 202.779 C 279.101 199.378,283.948 195.325,288.047 188.590 C 289.135 186.801,288.518 187.356,287.238 189.317 M203.231 188.081 C 203.247 188.734,204.022 190.628,204.048 190.077 C 204.060 189.816,203.879 189.161,203.645 188.623 C 203.412 188.086,203.225 187.842,203.231 188.081 M315.827 191.205 C 315.526 192.125,315.113 193.136,314.908 193.451 C 314.703 193.767,314.535 194.225,314.535 194.469 C 314.535 194.713,314.780 194.390,315.079 193.750 C 315.868 192.062,316.652 189.811,316.503 189.662 C 316.432 189.591,316.128 190.286,315.827 191.205 M204.081 190.882 C 204.075 191.064,204.261 191.652,204.494 192.190 C 204.728 192.728,204.924 193.020,204.930 192.839 C 204.937 192.657,204.751 192.068,204.517 191.530 C 204.284 190.992,204.087 190.701,204.081 190.882 M204.952 193.353 C 204.946 193.455,205.133 193.978,205.367 194.516 C 205.600 195.054,205.792 195.298,205.792 195.058 C 205.793 194.639,204.973 192.975,204.952 193.353 M312.948 198.039 C 311.750 200.595,310.848 202.158,308.501 205.741 C 308.265 206.101,308.151 206.395,308.247 206.395 C 308.882 206.395,314.870 195.587,314.462 195.179 C 314.397 195.114,313.715 196.401,312.948 198.039 M205.814 195.819 C 205.814 195.979,206.006 196.364,206.241 196.674 C 206.475 196.984,206.668 197.108,206.668 196.948 C 206.668 196.788,206.475 196.403,206.241 196.093 C 206.006 195.782,205.814 195.659,205.814 195.819 M206.728 197.529 C 208.585 201.983,212.206 207.469,215.746 211.192 C 216.659 212.151,217.969 213.531,218.659 214.259 C 221.463 217.218,226.084 220.865,229.947 223.169 C 232.528 224.708,235.272 225.990,234.174 225.144 C 233.864 224.905,233.488 224.709,233.340 224.709 C 233.040 224.709,230.552 223.247,227.500 221.276 C 224.887 219.589,220.728 216.069,218.169 213.380 C 217.049 212.204,215.712 210.797,215.196 210.254 C 214.309 209.321,211.795 205.900,210.115 203.343 C 209.695 202.703,208.812 201.139,208.153 199.867 C 207.124 197.883,206.337 196.591,206.728 197.529 M252.035 203.634 C 252.594 203.849,253.379 204.027,253.779 204.028 C 254.200 204.029,253.894 203.861,253.052 203.627 C 251.220 203.118,250.705 203.121,252.035 203.634 M255.699 204.416 C 257.164 204.677,263.185 204.677,264.650 204.416 C 265.273 204.306,263.259 204.215,260.174 204.215 C 257.090 204.215,255.076 204.306,255.699 204.416 M306.513 208.495 C 301.692 214.633,293.638 221.386,287.427 224.498 C 285.452 225.488,285.219 225.791,287.031 225.014 C 290.535 223.512,297.676 218.254,301.786 214.149 C 304.392 211.547,308.273 207.013,308.069 206.810 C 307.998 206.738,307.298 207.497,306.513 208.495 M110.195 209.327 C 110.206 209.713,110.334 210.291,110.479 210.610 C 110.662 211.016,110.688 210.839,110.565 210.029 C 110.360 208.679,110.165 208.311,110.195 209.327 M111.058 212.685 C 111.052 212.866,111.238 213.455,111.471 213.993 C 111.705 214.531,111.901 214.822,111.907 214.641 C 111.913 214.459,111.728 213.871,111.494 213.333 C 111.260 212.795,111.064 212.503,111.058 212.685 M112.051 215.552 C 113.275 219.369,118.341 225.107,122.820 227.747 C 124.050 228.472,123.076 227.640,120.707 225.942 C 117.687 223.779,115.134 220.835,113.080 217.151 C 112.412 215.952,111.949 215.233,112.051 215.552 M235.465 226.017 C 235.865 226.246,236.323 226.433,236.483 226.433 C 236.642 226.433,236.446 226.246,236.047 226.017 C 235.647 225.789,235.189 225.602,235.029 225.602 C 234.869 225.602,235.065 225.789,235.465 226.017 M283.285 226.443 C 282.326 226.901,281.672 227.277,281.831 227.278 C 282.219 227.282,285.693 225.628,285.320 225.618 C 285.160 225.614,284.244 225.985,283.285 226.443 M237.500 226.890 C 237.900 227.118,238.358 227.305,238.517 227.305 C 238.677 227.305,238.481 227.118,238.081 226.890 C 237.682 226.661,237.224 226.474,237.064 226.474 C 236.904 226.474,237.100 226.661,237.500 226.890 M238.953 227.447 C 238.953 227.862,247.964 230.347,248.741 230.147 C 249.190 230.031,249.177 230.004,248.651 229.976 C 247.719 229.925,242.695 228.582,240.933 227.913 C 239.382 227.323,238.953 227.222,238.953 227.447 M279.215 227.947 C 278.416 228.271,277.108 228.713,276.308 228.929 C 275.509 229.145,275.139 229.331,275.486 229.341 C 276.042 229.358,281.057 227.738,281.371 227.441 C 281.684 227.143,280.525 227.416,279.215 227.947 M125.476 229.081 C 126.457 229.539,127.635 229.990,128.092 230.083 C 128.550 230.176,128.270 229.980,127.471 229.648 C 126.672 229.316,125.605 228.854,125.101 228.621 C 124.598 228.388,124.074 228.209,123.939 228.223 C 123.803 228.236,124.495 228.623,125.476 229.081 M273.780 229.514 C 273.696 229.599,273.053 229.781,272.351 229.918 C 271.361 230.113,271.271 230.171,271.948 230.179 C 272.852 230.189,275.209 229.422,274.394 229.383 C 274.141 229.370,273.865 229.430,273.780 229.514 M130.233 230.658 C 130.952 230.899,131.868 231.083,132.267 231.067 C 133.024 231.037,132.305 230.832,129.942 230.404 C 129.110 230.254,129.163 230.300,130.233 230.658 M249.782 230.433 C 250.062 230.506,250.520 230.506,250.799 230.433 C 251.079 230.360,250.850 230.300,250.291 230.300 C 249.731 230.300,249.502 230.360,249.782 230.433 M269.549 230.433 C 269.829 230.506,270.287 230.506,270.567 230.433 C 270.847 230.360,270.618 230.300,270.058 230.300 C 269.499 230.300,269.270 230.360,269.549 230.433 M251.890 230.799 C 252.442 231.051,254.591 231.224,254.336 230.997 C 254.270 230.937,253.561 230.809,252.762 230.711 C 251.783 230.592,251.498 230.621,251.890 230.799 M266.715 230.814 L 265.552 231.022 266.715 231.043 C 267.355 231.054,268.140 230.951,268.459 230.814 L 269.041 230.564 268.459 230.585 C 268.140 230.596,267.355 230.699,266.715 230.814 M134.084 231.305 C 134.364 231.378,134.822 231.378,135.102 231.305 C 135.382 231.232,135.153 231.172,134.593 231.172 C 134.033 231.172,133.805 231.232,134.084 231.305 " stroke="none" fill="#cde3f8" fill-rule="evenodd"></path><path id="path4" d="M110.233 64.012 C 110.041 64.203,109.884 64.490,109.884 64.649 C 109.884 64.807,110.047 64.722,110.247 64.460 C 110.447 64.198,111.134 63.933,111.773 63.872 L 112.936 63.761 111.759 63.712 C 111.111 63.685,110.424 63.820,110.233 64.012 M114.535 64.246 C 115.414 64.360,116.526 64.591,117.006 64.760 C 117.485 64.929,118.401 65.222,119.041 65.412 C 122.594 66.464,126.135 68.770,129.471 72.205 C 130.731 73.502,131.490 74.161,131.159 73.670 C 129.799 71.653,124.833 67.521,122.631 66.574 C 122.255 66.413,121.751 66.168,121.512 66.030 C 119.930 65.123,119.120 64.826,118.232 64.826 C 117.677 64.826,117.060 64.629,116.860 64.390 C 116.603 64.079,115.987 63.966,114.717 63.996 L 112.936 64.039 114.535 64.246 M132.316 75.581 C 134.165 78.157,135.896 82.583,136.352 85.901 L 136.591 87.645 136.509 85.403 C 136.463 84.170,136.293 82.992,136.131 82.787 C 135.969 82.581,135.743 82.026,135.630 81.552 C 135.255 79.991,133.205 76.031,132.388 75.291 L 131.585 74.564 132.316 75.581 M136.653 105.605 C 136.626 123.305,136.572 122.768,138.243 121.673 C 139.578 120.798,144.311 118.279,145.349 117.890 C 145.908 117.681,147.674 117.039,149.273 116.464 C 150.872 115.890,151.873 115.417,151.497 115.413 C 151.122 115.410,150.402 115.586,149.899 115.804 C 149.395 116.022,148.001 116.555,146.802 116.988 C 144.356 117.871,144.000 118.032,142.151 119.087 C 139.285 120.723,137.634 121.472,137.403 121.241 C 137.270 121.107,137.173 114.278,137.188 106.066 C 137.203 97.662,137.098 90.752,136.947 90.262 C 136.774 89.702,136.669 95.208,136.653 105.605 M160.901 113.354 C 158.823 113.643,156.795 114.019,156.395 114.189 C 155.475 114.580,156.340 114.652,157.349 114.269 C 159.873 113.309,173.455 112.750,175.727 113.512 L 176.308 113.707 175.727 113.329 C 174.761 112.703,165.464 112.718,160.901 113.354 M254.651 113.070 C 254.251 113.204,252.943 113.337,251.744 113.366 C 249.861 113.410,245.707 114.446,247.147 114.512 C 247.416 114.525,248.005 114.390,248.455 114.212 C 249.418 113.832,253.630 113.407,258.721 113.177 C 262.618 113.000,266.374 113.330,272.529 114.388 C 273.009 114.470,273.205 114.456,272.965 114.356 C 272.725 114.255,272.137 114.000,271.657 113.787 C 270.243 113.160,256.152 112.566,254.651 113.070 M178.634 113.955 C 179.433 114.070,180.545 114.255,181.105 114.365 L 182.122 114.566 181.144 114.114 C 180.605 113.865,179.496 113.681,178.673 113.704 L 177.180 113.745 178.634 113.955 M153.069 114.980 C 152.647 115.300,152.614 115.407,152.939 115.407 C 153.177 115.407,153.496 115.286,153.648 115.139 C 153.800 114.991,154.317 114.814,154.797 114.746 C 155.631 114.627,155.624 114.621,154.651 114.588 C 154.092 114.569,153.380 114.745,153.069 114.980 M183.140 114.843 C 185.745 115.462,186.005 115.482,184.923 114.985 C 184.385 114.737,183.535 114.550,183.033 114.568 L 182.122 114.602 183.140 114.843 M244.041 114.977 C 243.401 115.197,242.093 115.586,241.134 115.842 C 240.174 116.099,238.997 116.487,238.517 116.705 C 236.437 117.651,234.415 118.608,234.012 118.839 C 233.594 119.077,232.957 119.408,230.378 120.722 C 229.738 121.048,228.823 121.596,228.343 121.940 C 227.863 122.285,226.621 123.078,225.581 123.702 C 224.542 124.327,223.103 125.440,222.384 126.176 C 221.664 126.913,220.716 127.737,220.276 128.008 C 219.144 128.707,219.173 130.202,220.349 131.686 C 220.828 132.292,221.221 132.907,221.221 133.054 C 221.221 133.201,221.598 133.683,222.058 134.124 C 222.519 134.565,223.137 135.473,223.431 136.140 C 223.726 136.808,224.085 137.438,224.230 137.540 C 224.643 137.831,225.968 140.218,228.039 144.404 C 229.087 146.523,230.005 148.256,230.078 148.256 C 230.396 148.256,227.012 141.250,225.486 138.749 C 224.979 137.918,224.183 136.609,223.717 135.842 C 223.251 135.075,222.781 134.382,222.672 134.302 C 222.022 133.827,219.767 130.151,219.767 129.568 C 219.767 129.063,220.256 128.478,221.532 127.455 C 222.502 126.677,223.385 125.892,223.494 125.711 C 223.702 125.366,229.836 121.221,230.139 121.221 C 230.235 121.221,230.951 120.828,231.731 120.349 C 232.510 119.869,233.300 119.477,233.484 119.477 C 233.669 119.477,234.027 119.302,234.279 119.089 C 234.532 118.876,235.458 118.404,236.337 118.039 C 237.217 117.675,238.485 117.130,239.156 116.828 C 239.826 116.526,240.580 116.279,240.831 116.279 C 241.082 116.279,241.514 116.164,241.792 116.023 C 242.069 115.881,242.885 115.613,243.605 115.425 C 246.572 114.653,246.731 114.595,245.930 114.586 C 245.531 114.581,244.680 114.757,244.041 114.977 M274.855 114.965 C 275.654 115.180,276.359 115.305,276.421 115.244 C 276.626 115.042,274.978 114.534,274.182 114.555 C 273.632 114.568,273.832 114.690,274.855 114.965 M186.483 115.664 C 186.802 115.774,187.391 116.006,187.791 116.180 C 188.190 116.354,189.237 116.726,190.116 117.008 C 192.023 117.617,198.248 120.653,199.321 121.497 C 199.738 121.825,200.199 122.093,200.347 122.093 C 200.495 122.093,201.098 122.461,201.689 122.911 C 202.279 123.361,203.626 124.374,204.683 125.164 C 212.355 130.893,221.615 143.005,223.679 150.010 C 223.795 150.404,224.216 151.561,224.614 152.581 C 225.291 154.313,226.244 157.643,226.537 159.302 L 226.665 160.029 226.698 159.302 C 226.716 158.903,226.593 158.052,226.426 157.413 C 226.258 156.773,226.004 155.606,225.861 154.820 C 225.718 154.033,225.498 153.313,225.373 153.221 C 225.112 153.028,224.472 151.427,224.144 150.145 C 224.022 149.666,223.529 148.553,223.049 147.673 C 222.570 146.794,222.081 145.768,221.962 145.395 C 221.767 144.780,220.439 142.483,219.110 140.460 C 218.828 140.031,218.519 139.451,218.422 139.172 C 218.325 138.892,218.143 138.663,218.018 138.663 C 217.892 138.663,217.314 137.976,216.734 137.137 C 214.581 134.023,213.366 132.404,212.954 132.101 C 212.721 131.930,210.986 130.334,209.099 128.556 C 207.212 126.778,204.753 124.713,203.634 123.968 C 202.515 123.224,201.494 122.431,201.366 122.208 C 201.239 121.985,200.919 121.802,200.656 121.802 C 200.392 121.802,199.843 121.501,199.435 121.133 C 199.026 120.764,197.972 120.145,197.093 119.756 C 196.214 119.367,194.753 118.622,193.846 118.100 C 192.940 117.578,191.959 117.147,191.666 117.141 C 191.373 117.135,190.807 116.944,190.407 116.715 C 190.007 116.487,189.337 116.295,188.916 116.289 C 188.496 116.284,187.990 116.083,187.791 115.843 C 187.592 115.603,187.085 115.420,186.665 115.436 C 186.006 115.461,185.981 115.492,186.483 115.664 M277.496 115.681 C 277.990 115.799,278.579 116.007,278.804 116.143 C 279.155 116.354,279.156 116.318,278.816 115.899 C 278.582 115.611,278.041 115.419,277.508 115.437 L 276.599 115.466 277.496 115.681 M279.797 116.480 C 280.695 116.685,283.459 117.722,284.287 118.163 C 284.695 118.381,285.225 118.634,285.465 118.725 C 289.263 120.169,297.333 125.835,301.300 129.842 C 309.098 137.717,312.856 143.929,316.863 155.566 C 317.578 157.644,317.669 158.823,317.162 159.435 C 316.656 160.045,289.820 160.013,289.616 159.402 C 288.689 156.617,283.606 150.046,280.283 147.336 C 277.290 144.896,271.587 141.711,270.658 141.961 C 270.325 142.051,270.353 142.093,270.762 142.117 C 271.069 142.136,271.527 142.326,271.779 142.539 C 272.032 142.753,272.696 143.100,273.256 143.311 C 273.815 143.522,274.949 144.132,275.776 144.667 C 276.603 145.202,277.413 145.640,277.576 145.640 C 277.740 145.640,278.045 145.879,278.254 146.171 C 278.463 146.464,279.000 146.941,279.448 147.232 C 280.017 147.602,280.170 147.853,279.957 148.066 C 279.422 148.602,279.627 148.906,280.393 148.714 C 281.196 148.513,282.849 149.449,282.849 150.105 C 282.849 150.300,283.446 151.044,284.177 151.756 C 286.100 153.633,289.595 159.544,289.327 160.465 C 289.222 160.825,289.249 160.831,289.482 160.498 C 289.675 160.222,290.025 160.159,290.594 160.299 C 291.051 160.411,291.686 160.476,292.006 160.443 C 292.326 160.411,298.070 160.345,304.771 160.297 C 318.884 160.196,318.307 160.313,317.782 157.674 C 317.487 156.188,317.053 154.820,316.408 153.343 C 316.199 152.863,315.738 151.584,315.384 150.500 C 315.031 149.416,314.629 148.459,314.493 148.375 C 314.356 148.291,314.244 147.985,314.244 147.696 C 314.244 147.408,313.983 146.839,313.663 146.432 C 313.343 146.026,313.081 145.501,313.081 145.266 C 313.081 145.031,312.885 144.676,312.645 144.477 C 312.406 144.278,312.209 143.810,312.209 143.438 C 312.209 143.066,312.030 142.657,311.811 142.529 C 311.592 142.401,310.980 141.512,310.449 140.552 C 309.919 139.593,309.120 138.350,308.674 137.791 C 308.227 137.231,307.602 136.446,307.284 136.047 C 305.100 133.301,304.283 132.381,301.688 129.740 C 300.085 128.110,297.431 125.823,295.789 124.657 C 294.018 123.399,292.861 122.388,292.944 122.170 C 293.028 121.952,292.858 121.802,292.528 121.802 C 292.014 121.802,290.286 121.034,289.244 120.342 C 289.004 120.182,288.219 119.785,287.500 119.459 C 286.781 119.134,285.603 118.538,284.884 118.136 C 283.253 117.224,280.591 116.268,279.807 116.313 C 279.224 116.346,279.224 116.349,279.797 116.480 M166.920 140.332 C 167.993 140.387,169.824 140.388,170.990 140.332 C 172.156 140.277,171.279 140.231,169.041 140.231 C 166.802 140.231,165.848 140.276,166.920 140.332 M258.212 140.332 C 259.291 140.388,261.057 140.388,262.137 140.332 C 263.216 140.276,262.333 140.230,260.174 140.230 C 258.016 140.230,257.133 140.276,258.212 140.332 M163.081 140.698 C 162.682 140.826,161.962 140.944,161.483 140.961 C 161.003 140.978,160.236 141.187,159.778 141.426 C 159.320 141.665,158.716 141.860,158.435 141.860 C 157.540 141.860,151.396 145.290,148.834 147.221 C 144.769 150.284,140.636 156.020,138.776 161.179 C 136.598 167.225,136.580 167.564,136.684 201.539 L 136.773 230.839 135.465 231.242 C 134.746 231.464,134.419 231.647,134.738 231.649 C 135.058 231.652,135.747 231.497,136.269 231.306 L 137.219 230.959 137.306 198.837 C 137.403 162.933,137.406 162.890,140.088 159.034 C 140.374 158.622,140.753 157.860,140.928 157.341 C 141.323 156.177,143.701 152.788,144.981 151.565 C 145.503 151.066,145.930 150.471,145.930 150.243 C 145.930 150.015,146.617 149.317,147.456 148.691 C 148.296 148.065,149.179 147.377,149.419 147.161 C 150.242 146.419,152.863 144.830,154.498 144.082 C 155.399 143.669,156.473 143.066,156.886 142.742 C 157.299 142.417,158.048 142.151,158.550 142.151 C 159.053 142.151,159.722 141.974,160.037 141.757 C 160.352 141.540,161.298 141.274,162.139 141.165 C 163.831 140.947,165.450 140.435,164.390 140.454 C 164.070 140.460,163.481 140.570,163.081 140.698 M173.723 140.676 C 173.900 140.866,174.816 141.076,175.758 141.141 C 177.143 141.238,177.276 141.213,176.453 141.012 C 173.875 140.381,173.394 140.322,173.723 140.676 M253.198 140.858 C 251.895 141.231,251.894 141.232,252.907 141.233 C 253.467 141.234,254.448 141.062,255.087 140.851 C 256.721 140.313,255.081 140.318,253.198 140.858 M264.750 140.680 C 265.108 140.838,266.090 141.033,266.930 141.113 C 268.393 141.253,268.409 141.247,267.297 140.980 C 265.272 140.495,263.990 140.344,264.750 140.680 M177.717 141.498 C 177.825 141.673,178.337 141.907,178.855 142.018 C 179.373 142.129,180.556 142.662,181.484 143.203 C 182.411 143.744,183.297 144.186,183.452 144.186 C 183.606 144.186,184.251 144.513,184.884 144.913 C 185.517 145.313,186.152 145.640,186.296 145.640 C 186.439 145.640,187.112 146.163,187.791 146.802 C 188.470 147.442,189.191 147.965,189.394 147.965 C 189.597 147.965,189.839 148.162,189.932 148.404 C 190.024 148.645,190.431 148.993,190.835 149.177 C 191.239 149.361,191.570 149.738,191.570 150.013 C 191.570 150.289,191.893 150.726,192.288 150.985 C 193.136 151.541,195.349 154.455,195.349 155.016 C 195.349 155.230,195.736 155.726,196.209 156.118 C 196.682 156.510,197.074 157.006,197.081 157.220 C 197.087 157.434,197.485 158.457,197.965 159.494 C 198.445 160.530,198.837 161.766,198.837 162.241 C 198.837 162.716,199.083 163.459,199.384 163.893 C 199.705 164.355,200.088 165.752,200.311 167.277 C 200.520 168.705,200.749 169.699,200.820 169.487 C 201.178 168.413,199.411 161.650,198.066 158.949 C 197.691 158.194,197.378 157.410,197.372 157.204 C 197.365 156.999,196.973 156.378,196.500 155.825 C 196.027 155.271,195.640 154.708,195.640 154.574 C 195.640 154.317,193.005 150.954,191.825 149.704 C 189.221 146.947,182.782 142.876,179.433 141.870 C 178.993 141.738,178.383 141.529,178.077 141.405 C 177.704 141.254,177.585 141.285,177.717 141.498 M249.855 141.746 L 248.692 142.153 249.855 141.980 C 251.064 141.800,252.335 141.275,251.453 141.318 C 251.214 141.330,250.494 141.523,249.855 141.746 M268.895 141.570 C 269.135 141.725,269.528 141.852,269.767 141.852 C 270.155 141.852,270.155 141.820,269.767 141.570 C 269.528 141.415,269.135 141.288,268.895 141.288 C 268.508 141.288,268.508 141.319,268.895 141.570 M246.366 143.291 C 245.247 143.894,243.869 144.641,243.304 144.950 C 240.782 146.331,236.777 150.100,233.782 153.911 L 233.117 154.758 232.525 154.166 C 232.200 153.841,231.560 152.410,231.104 150.988 C 230.127 147.939,229.988 148.084,230.825 151.280 C 231.849 155.189,232.832 155.988,234.190 154.012 C 234.652 153.340,235.585 152.231,236.265 151.548 C 236.944 150.865,237.500 150.192,237.500 150.052 C 237.500 149.818,242.543 145.640,242.825 145.640 C 242.894 145.640,243.929 145.051,245.126 144.331 C 246.323 143.612,247.436 143.023,247.598 143.023 C 247.761 143.023,248.057 142.827,248.256 142.587 C 248.730 142.015,248.731 142.015,246.366 143.291 M226.913 161.192 C 227.026 161.672,227.222 162.980,227.348 164.099 L 227.577 166.134 227.481 163.762 C 227.428 162.458,227.232 161.149,227.046 160.855 C 226.761 160.405,226.740 160.458,226.913 161.192 M227.813 169.186 C 227.891 170.385,228.056 172.674,228.179 174.273 L 228.404 177.180 228.403 173.256 C 228.403 170.919,228.254 168.861,228.037 168.169 C 227.689 167.061,227.678 167.109,227.813 169.186 M200.984 175.581 C 201.008 178.999,201.127 180.545,201.398 180.959 C 201.746 181.490,201.763 181.464,201.588 180.669 C 201.482 180.189,201.296 177.769,201.173 175.291 L 200.951 170.785 200.984 175.581 M228.509 177.913 C 228.463 178.911,230.354 184.581,231.456 186.754 C 232.843 189.486,235.063 192.555,237.014 194.437 C 239.317 196.657,242.493 199.412,242.756 199.416 C 242.848 199.417,243.957 200.007,245.220 200.727 C 246.482 201.446,247.796 202.035,248.141 202.035 C 248.485 202.035,248.929 202.231,249.128 202.471 C 249.327 202.711,249.703 202.897,249.963 202.884 C 250.359 202.865,250.365 202.834,250.000 202.696 C 249.760 202.605,249.459 202.354,249.331 202.138 C 249.204 201.921,248.848 201.744,248.542 201.744 C 246.847 201.744,239.336 196.839,238.063 194.901 C 237.814 194.521,237.135 193.833,236.556 193.372 C 235.426 192.474,232.359 188.110,232.082 187.006 C 231.989 186.638,231.815 186.337,231.694 186.337 C 231.483 186.337,229.867 181.949,228.963 178.924 C 228.724 178.125,228.520 177.670,228.509 177.913 M201.780 183.613 C 201.756 184.807,201.876 185.503,202.144 185.726 C 202.364 185.908,202.630 186.611,202.735 187.287 C 203.015 189.092,204.824 194.267,206.131 197.003 C 206.756 198.313,207.268 199.556,207.269 199.765 C 207.269 199.974,207.661 200.734,208.140 201.453 C 208.618 202.173,209.010 202.919,209.010 203.111 C 209.011 203.302,209.189 203.564,209.405 203.692 C 209.622 203.820,210.141 204.448,210.558 205.087 C 212.644 208.284,214.135 210.069,217.733 213.679 C 219.891 215.844,222.115 217.965,222.674 218.393 C 223.234 218.820,224.084 219.463,224.564 219.821 C 225.044 220.180,225.541 220.641,225.669 220.847 C 225.796 221.053,226.016 221.221,226.157 221.221 C 226.297 221.221,227.607 222.012,229.068 222.979 C 230.528 223.947,232.049 224.862,232.448 225.013 C 233.136 225.275,235.965 226.549,236.939 227.037 C 239.064 228.100,243.911 229.673,244.893 229.617 C 245.476 229.585,245.476 229.580,244.913 229.454 C 236.432 227.557,224.979 220.928,218.659 214.259 C 217.969 213.531,216.659 212.151,215.746 211.192 C 210.412 205.582,205.796 197.203,203.495 188.953 C 203.161 187.754,202.744 186.324,202.568 185.775 C 202.393 185.225,202.152 184.113,202.033 183.304 L 201.817 181.831 201.780 183.613 M290.949 184.312 C 289.419 184.488,288.663 184.985,288.663 185.815 C 288.663 188.041,280.450 197.660,278.198 198.071 C 277.544 198.190,276.987 198.543,276.641 199.056 C 276.344 199.495,275.625 200.073,275.042 200.341 C 267.840 203.647,266.648 203.926,259.738 203.914 C 255.561 203.908,254.640 203.966,255.959 204.153 C 260.357 204.776,267.561 203.984,271.076 202.492 C 273.460 201.480,276.291 200.112,276.573 199.836 C 276.747 199.665,277.544 199.144,278.343 198.678 C 279.767 197.847,284.752 193.044,285.901 191.396 C 287.601 188.958,289.244 186.152,289.244 185.688 C 289.244 184.670,290.456 184.586,304.024 184.663 L 317.297 184.738 317.386 185.813 C 317.462 186.726,316.954 188.853,316.116 191.134 C 315.971 191.529,315.998 191.622,316.201 191.424 C 316.531 191.102,317.589 187.654,317.861 186.014 C 317.983 185.273,317.908 184.859,317.604 184.607 C 317.157 184.236,293.850 183.978,290.949 184.312 M315.731 192.311 C 315.713 192.639,315.580 193.031,315.437 193.183 C 315.293 193.335,314.762 194.506,314.257 195.785 C 313.751 197.064,313.078 198.552,312.761 199.092 C 312.445 199.632,312.255 200.142,312.339 200.227 C 312.513 200.400,315.116 194.916,315.116 194.376 C 315.116 194.183,315.322 193.732,315.573 193.373 C 315.824 193.015,315.970 192.495,315.897 192.218 C 315.790 191.811,315.759 191.829,315.731 192.311 M311.919 200.787 C 311.919 200.953,311.068 202.370,310.029 203.935 C 308.990 205.501,308.140 206.833,308.140 206.896 C 308.140 207.197,303.887 212.052,301.786 214.149 C 294.091 221.834,286.848 225.950,274.273 229.782 C 272.839 230.219,273.409 230.170,275.779 229.651 C 277.374 229.302,279.902 228.473,280.814 227.998 C 281.214 227.790,281.717 227.619,281.932 227.618 C 282.147 227.617,282.670 227.427,283.095 227.196 C 283.519 226.965,284.390 226.553,285.029 226.280 C 287.927 225.045,289.867 224.056,290.614 223.432 C 291.060 223.060,291.867 222.509,292.407 222.207 C 294.254 221.174,294.555 220.983,294.734 220.732 C 294.832 220.593,295.828 219.772,296.948 218.907 C 299.156 217.200,301.330 215.246,302.740 213.701 C 305.954 210.177,307.713 208.136,308.408 207.122 C 310.625 203.886,311.034 203.248,311.633 202.095 C 311.989 201.409,312.200 200.765,312.100 200.666 C 312.000 200.566,311.919 200.621,311.919 200.787 M251.890 203.350 C 252.689 203.572,253.539 203.745,253.779 203.736 C 254.477 203.707,251.965 202.952,251.163 202.949 C 250.743 202.947,251.049 203.116,251.890 203.350 M110.041 209.157 C 110.242 213.300,112.781 218.917,116.182 222.748 C 116.715 223.348,117.151 223.953,117.151 224.093 C 117.151 224.234,117.544 224.511,118.023 224.709 C 118.503 224.908,118.895 225.189,118.895 225.333 C 118.895 225.478,119.190 225.726,119.549 225.885 C 119.909 226.043,120.836 226.677,121.610 227.291 C 122.993 228.391,127.692 230.529,128.700 230.517 C 128.983 230.514,128.365 230.209,127.326 229.839 C 118.198 226.593,111.094 217.779,110.068 208.430 C 110.007 207.871,109.995 208.198,110.041 209.157 M117.733 228.488 C 117.733 228.648,117.929 228.779,118.169 228.779 C 118.408 228.779,118.605 228.648,118.605 228.488 C 118.605 228.328,118.408 228.198,118.169 228.198 C 117.929 228.198,117.733 228.328,117.733 228.488 M245.930 229.942 C 246.170 230.097,246.628 230.216,246.948 230.208 L 247.529 230.192 246.948 229.942 C 246.079 229.568,245.352 229.568,245.930 229.942 M248.038 230.433 C 248.318 230.506,248.775 230.506,249.055 230.433 C 249.335 230.360,249.106 230.300,248.547 230.300 C 247.987 230.300,247.758 230.360,248.038 230.433 M130.070 230.936 C 130.450 231.245,131.162 231.383,132.250 231.357 L 133.866 231.319 132.267 231.100 C 131.388 230.979,130.407 230.789,130.087 230.678 C 129.514 230.479,129.514 230.482,130.070 230.936 M251.017 230.942 C 251.657 231.167,252.900 231.341,253.779 231.330 L 255.378 231.310 253.779 231.097 C 252.900 230.979,251.657 230.805,251.017 230.709 L 249.855 230.534 251.017 230.942 M268.797 230.718 C 268.690 230.825,267.720 231.003,266.641 231.113 L 264.680 231.313 266.424 231.332 C 268.193 231.351,271.321 230.618,269.743 230.554 C 269.330 230.537,268.905 230.611,268.797 230.718 M258.212 231.320 C 259.291 231.376,261.057 231.376,262.137 231.320 C 263.216 231.264,262.333 231.219,260.174 231.219 C 258.016 231.219,257.133 231.264,258.212 231.320 " stroke="none" fill="#dfedf8" fill-rule="evenodd"></path></g></svg>